G04 EAGLE Gerber RS-274X export*
G75*
%MOMM*%
%FSLAX34Y34*%
%LPD*%
%INBottom Copper*%
%IPPOS*%
%AMOC8*
5,1,8,0,0,1.08239X$1,22.5*%
G01*
%ADD10R,0.220000X0.500000*%
%ADD11R,8.400000X1.700000*%
%ADD12R,0.750000X0.550000*%
%ADD13C,0.152400*%
%ADD14C,0.554000*%
%ADD15C,0.101600*%
%ADD16C,0.508000*%
%ADD17C,0.200000*%
%ADD18C,1.016000*%


D10*
X103000Y962000D03*
X99000Y962000D03*
X95000Y962000D03*
X91000Y962000D03*
X87000Y962000D03*
X83000Y962000D03*
X79000Y962000D03*
X75000Y962000D03*
X71000Y962000D03*
X67000Y962000D03*
X63000Y962000D03*
X59000Y962000D03*
X55000Y962000D03*
X51000Y962000D03*
X47000Y962000D03*
X43000Y962000D03*
X39000Y962000D03*
X35000Y962000D03*
X31000Y962000D03*
X27000Y962000D03*
X27000Y938000D03*
X31000Y938000D03*
X35000Y938000D03*
X39000Y938000D03*
X43000Y938000D03*
X47000Y938000D03*
X51000Y938000D03*
X55000Y938000D03*
X59000Y938000D03*
X63000Y938000D03*
X67000Y938000D03*
X71000Y938000D03*
X75000Y938000D03*
X79000Y938000D03*
X83000Y938000D03*
X87000Y938000D03*
X91000Y938000D03*
X95000Y938000D03*
X99000Y938000D03*
X103000Y938000D03*
D11*
X65000Y950000D03*
D12*
X18750Y938250D03*
X111250Y938250D03*
X111250Y961750D03*
X18750Y961750D03*
D13*
X108631Y972476D02*
X114118Y972476D01*
D14*
X118194Y968400D03*
D13*
X108631Y972476D02*
X103000Y966845D01*
X103000Y962000D01*
X114118Y972476D02*
X118194Y968400D01*
X99000Y967955D02*
X99000Y962000D01*
X99000Y967955D02*
X108522Y977478D01*
X111369Y980324D01*
X114536Y980324D01*
D14*
X118000Y977006D03*
D13*
X114536Y980324D01*
X95000Y969645D02*
X95000Y962000D01*
X95000Y969645D02*
X108251Y982896D01*
D14*
X117083Y985883D03*
D13*
X108251Y982896D01*
X87000Y971379D02*
X87000Y962124D01*
D14*
X104000Y992194D03*
D13*
X87000Y962124D02*
X87000Y962000D01*
X87000Y971379D02*
X104000Y988234D01*
X104000Y992194D01*
X83000Y962276D02*
X83000Y962000D01*
X83000Y962276D02*
X83000Y972310D01*
X95676Y985014D01*
X95676Y992800D01*
D14*
X95406Y992800D03*
D13*
X95676Y992800D01*
X79000Y975745D02*
X79000Y962000D01*
X79000Y975745D02*
X87178Y983922D01*
D14*
X88183Y985717D03*
D15*
X88183Y984927D02*
X87178Y983922D01*
D13*
X88183Y984927D02*
X88183Y985717D01*
X75000Y979000D02*
X75000Y962000D01*
X75000Y979000D02*
X82400Y986400D01*
D14*
X82517Y992417D03*
D13*
X82400Y992266D02*
X82400Y986400D01*
X82400Y992266D02*
X82517Y992417D01*
D14*
X72883Y985317D03*
D13*
X72883Y982517D02*
X71000Y980634D01*
X71000Y962000D01*
X72883Y982517D02*
X72883Y985317D01*
X67000Y992683D02*
X67000Y962000D01*
D14*
X67117Y992683D03*
D15*
X67000Y992683D01*
D13*
X63000Y987155D02*
X63000Y962000D01*
X63000Y987155D02*
X58178Y991978D01*
D14*
X58283Y992883D03*
D15*
X58283Y992083D02*
X58178Y991978D01*
D13*
X58283Y992083D02*
X58283Y992883D01*
X59000Y980845D02*
X59000Y962000D01*
X59000Y980845D02*
X56222Y983622D01*
D14*
X56517Y983917D03*
D13*
X56222Y983622D01*
X55000Y977000D02*
X55000Y962000D01*
X55000Y977000D02*
X49200Y982800D01*
D14*
X49200Y988700D03*
D13*
X49200Y982800D01*
X51000Y975500D02*
X51000Y962000D01*
D14*
X41800Y993400D03*
D13*
X41500Y993100D02*
X41500Y985000D01*
X41500Y993100D02*
X41800Y993400D01*
X41500Y985000D02*
X51000Y975500D01*
X47000Y974405D02*
X47000Y962000D01*
X47000Y974405D02*
X44328Y977078D01*
D14*
X33433Y990183D03*
D13*
X33433Y987973D02*
X44328Y977078D01*
X33433Y987973D02*
X33433Y990183D01*
X39000Y970500D02*
X39000Y962000D01*
X39000Y970500D02*
X16883Y992617D01*
D14*
X16817Y992883D03*
D15*
X16883Y992617D01*
D13*
X35000Y968845D02*
X35000Y962000D01*
X35000Y968845D02*
X19422Y984422D01*
D14*
X11817Y986817D03*
D13*
X17027Y986817D02*
X19422Y984422D01*
X17027Y986817D02*
X11817Y986817D01*
X31000Y967155D02*
X31000Y962000D01*
X31000Y967155D02*
X22728Y975428D01*
D14*
X12983Y978083D03*
D13*
X20072Y978083D02*
X22728Y975428D01*
X20072Y978083D02*
X12983Y978083D01*
X27000Y964045D02*
X27000Y962000D01*
D14*
X13017Y969317D03*
D13*
X15262Y967072D02*
X23972Y967072D01*
X15262Y967072D02*
X13017Y969317D01*
X23972Y967072D02*
X27000Y964045D01*
X27000Y938000D02*
X27000Y37500D01*
X22500Y33000D01*
D14*
X18500Y33000D03*
D13*
X22500Y33000D01*
D14*
X26700Y25700D03*
D13*
X27700Y32300D02*
X31000Y35600D01*
X31000Y938000D01*
X27700Y32300D02*
X27700Y26700D01*
X26700Y25700D01*
D15*
X35000Y35000D02*
X37000Y33000D01*
D14*
X37000Y33000D03*
D15*
X39000Y35000D01*
D16*
X37000Y33000D02*
X37000Y931000D01*
D17*
X35000Y933000D01*
X35000Y938000D01*
X39000Y933000D02*
X37000Y931000D01*
X39000Y933000D02*
X39000Y938000D01*
D13*
X43000Y938000D02*
X43000Y26700D01*
D14*
X29000Y12700D03*
D13*
X43000Y26700D01*
X59000Y25000D02*
X59000Y938000D01*
X59000Y25000D02*
X52400Y18400D01*
D14*
X52400Y18400D03*
D13*
X63000Y19400D02*
X63000Y938000D01*
X63000Y19400D02*
X56000Y11000D01*
D14*
X56000Y11000D03*
D13*
X67000Y18000D02*
X67000Y938000D01*
X67000Y18000D02*
X74000Y11000D01*
D14*
X74000Y11000D03*
D13*
X71000Y24700D02*
X71000Y938000D01*
X71000Y24700D02*
X78600Y17100D01*
D14*
X78600Y17100D03*
X79000Y33000D03*
D17*
X79000Y930000D02*
X79000Y938000D01*
X79000Y930000D02*
X79000Y929400D01*
D18*
X79000Y930000D02*
X79000Y33000D01*
D17*
X83000Y933300D02*
X83000Y938000D01*
X83000Y933300D02*
X79000Y930000D01*
X75000Y933400D02*
X75000Y938000D01*
X75000Y933400D02*
X79000Y929400D01*
D13*
X87000Y938000D02*
X87000Y25000D01*
D14*
X95000Y17000D03*
D13*
X87000Y25000D01*
X91000Y28000D02*
X91000Y938000D01*
X104800Y14200D02*
X104800Y10200D01*
X104800Y14200D02*
X91000Y28000D01*
D14*
X104800Y10200D03*
D13*
X95000Y30571D02*
X95000Y938000D01*
X95000Y30571D02*
X95000Y29000D01*
X108400Y15600D01*
X116200Y15600D01*
D14*
X116200Y15600D03*
D13*
X99000Y33000D02*
X99000Y938000D01*
X99000Y33000D02*
X109400Y22600D01*
D14*
X109400Y22600D03*
D13*
X103000Y34000D02*
X103000Y938000D01*
X103000Y34000D02*
X107400Y29600D01*
D14*
X116000Y29600D03*
D13*
X107400Y29600D01*
X43000Y962000D02*
X43000Y972595D01*
X25567Y990028D01*
D14*
X25567Y993317D03*
D13*
X25567Y990028D01*
X91000Y969955D02*
X91000Y962000D01*
X91000Y969955D02*
X112360Y991316D01*
D14*
X112517Y993317D03*
D13*
X112360Y991316D01*
X106225Y932423D02*
X107065Y932198D01*
X110637Y932198D01*
X110637Y937637D01*
X111863Y937637D01*
X111863Y932198D01*
X115435Y932198D01*
X116275Y932423D01*
X117027Y932858D01*
X117642Y933473D01*
X118077Y934225D01*
X118302Y935065D01*
X118302Y937637D01*
X111863Y937637D01*
X111863Y938863D01*
X118302Y938863D01*
X118302Y941435D01*
X118077Y942275D01*
X117642Y943027D01*
X117027Y943642D01*
X116275Y944077D01*
X115435Y944302D01*
X111863Y944302D01*
X111863Y938863D01*
X110637Y938863D01*
X110637Y944302D01*
X110302Y944302D01*
X110302Y949238D01*
X65762Y949238D01*
X65762Y950762D01*
X110302Y950762D01*
X110302Y955698D01*
X110637Y955698D01*
X110637Y961137D01*
X111863Y961137D01*
X111863Y955698D01*
X115435Y955698D01*
X116275Y955923D01*
X117027Y956358D01*
X117642Y956973D01*
X118077Y957725D01*
X118302Y958565D01*
X118302Y961137D01*
X111863Y961137D01*
X111863Y962363D01*
X118302Y962363D01*
X118302Y963344D01*
X120288Y963344D01*
X123250Y966306D01*
X123250Y970494D01*
X120944Y972800D01*
X123056Y974912D01*
X123056Y979100D01*
X120253Y981903D01*
X122139Y983789D01*
X122139Y987977D01*
X119177Y990939D01*
X117289Y990939D01*
X117573Y991223D01*
X117573Y995411D01*
X117287Y995698D01*
X120000Y995698D01*
X121112Y995589D01*
X123166Y994738D01*
X124738Y993166D01*
X125589Y991112D01*
X125698Y990000D01*
X125698Y10000D01*
X125589Y8888D01*
X124738Y6834D01*
X123166Y5262D01*
X121112Y4411D01*
X120000Y4302D01*
X10000Y4302D01*
X8888Y4411D01*
X6834Y5262D01*
X5262Y6834D01*
X4411Y8888D01*
X4302Y10000D01*
X4302Y990000D01*
X4411Y991112D01*
X5262Y993166D01*
X6834Y994738D01*
X8888Y995589D01*
X10000Y995698D01*
X12482Y995698D01*
X11761Y994977D01*
X11761Y991873D01*
X9723Y991873D01*
X6761Y988911D01*
X6761Y984723D01*
X9617Y981867D01*
X7927Y980177D01*
X7927Y975989D01*
X10233Y973683D01*
X7961Y971411D01*
X7961Y967223D01*
X10923Y964261D01*
X11698Y964261D01*
X11698Y962363D01*
X18137Y962363D01*
X18137Y961137D01*
X11698Y961137D01*
X11698Y958565D01*
X11923Y957725D01*
X12358Y956973D01*
X12973Y956358D01*
X13725Y955923D01*
X14565Y955698D01*
X18137Y955698D01*
X18137Y961137D01*
X19363Y961137D01*
X19363Y955698D01*
X19698Y955698D01*
X19698Y950762D01*
X64238Y950762D01*
X64238Y949238D01*
X19698Y949238D01*
X19698Y944302D01*
X19363Y944302D01*
X19363Y938863D01*
X18137Y938863D01*
X18137Y944302D01*
X14565Y944302D01*
X13725Y944077D01*
X12973Y943642D01*
X12358Y943027D01*
X11923Y942275D01*
X11698Y941435D01*
X11698Y938863D01*
X18137Y938863D01*
X18137Y937637D01*
X11698Y937637D01*
X11698Y935065D01*
X11923Y934225D01*
X12358Y933473D01*
X12973Y932858D01*
X13725Y932423D01*
X14565Y932198D01*
X18137Y932198D01*
X18137Y937637D01*
X19363Y937637D01*
X19363Y932198D01*
X22935Y932198D01*
X23775Y932423D01*
X23952Y932526D01*
X23952Y38763D01*
X21920Y36730D01*
X20594Y38056D01*
X16406Y38056D01*
X13444Y35094D01*
X13444Y30906D01*
X16406Y27944D01*
X20594Y27944D01*
X22602Y29952D01*
X23763Y29952D01*
X24652Y30842D01*
X24652Y30756D01*
X24606Y30756D01*
X21644Y27794D01*
X21644Y23606D01*
X24606Y20644D01*
X28794Y20644D01*
X31756Y23606D01*
X31756Y27794D01*
X30748Y28802D01*
X30748Y31037D01*
X31944Y32234D01*
X31944Y30906D01*
X34906Y27944D01*
X39094Y27944D01*
X39952Y28802D01*
X39952Y27963D01*
X29745Y17756D01*
X26906Y17756D01*
X23944Y14794D01*
X23944Y10606D01*
X26906Y7644D01*
X31094Y7644D01*
X34056Y10606D01*
X34056Y13445D01*
X46048Y25437D01*
X46048Y932198D01*
X47000Y932198D01*
X47000Y933919D01*
X47000Y933919D01*
X47000Y932198D01*
X48535Y932198D01*
X49000Y932323D01*
X49465Y932198D01*
X51000Y932198D01*
X51000Y933919D01*
X51000Y933919D01*
X51000Y933919D01*
X51000Y932198D01*
X52535Y932198D01*
X53000Y932323D01*
X53465Y932198D01*
X55000Y932198D01*
X55000Y933919D01*
X55000Y933919D01*
X55000Y932198D01*
X55952Y932198D01*
X55952Y26263D01*
X53145Y23456D01*
X50306Y23456D01*
X47344Y20494D01*
X47344Y16306D01*
X50306Y13344D01*
X51194Y13344D01*
X50944Y13094D01*
X50944Y8906D01*
X53906Y5944D01*
X58094Y5944D01*
X61056Y8906D01*
X61056Y12306D01*
X64387Y16303D01*
X68944Y11745D01*
X68944Y8906D01*
X71906Y5944D01*
X76094Y5944D01*
X79056Y8906D01*
X79056Y12044D01*
X80694Y12044D01*
X83656Y15006D01*
X83656Y19194D01*
X80694Y22156D01*
X77855Y22156D01*
X74048Y25963D01*
X74048Y27535D01*
X74827Y26755D01*
X77535Y25634D01*
X80465Y25634D01*
X83173Y26755D01*
X83952Y27535D01*
X83952Y23737D01*
X89944Y17745D01*
X89944Y14906D01*
X92906Y11944D01*
X97094Y11944D01*
X99920Y14770D01*
X101070Y13620D01*
X99744Y12294D01*
X99744Y8106D01*
X102706Y5144D01*
X106894Y5144D01*
X109856Y8106D01*
X109856Y12294D01*
X109598Y12552D01*
X112098Y12552D01*
X114106Y10544D01*
X118294Y10544D01*
X121256Y13506D01*
X121256Y17694D01*
X118294Y20656D01*
X114456Y20656D01*
X114456Y24544D01*
X118094Y24544D01*
X121056Y27506D01*
X121056Y31694D01*
X118094Y34656D01*
X113906Y34656D01*
X111898Y32648D01*
X108662Y32648D01*
X106048Y35262D01*
X106048Y932526D01*
X106225Y932423D01*
X111863Y967802D02*
X113138Y967802D01*
X111863Y967802D02*
X111863Y962363D01*
X110637Y962363D01*
X110637Y967802D01*
X108268Y967802D01*
X109894Y969428D01*
X112855Y969428D01*
X113138Y969145D01*
X113138Y967802D01*
X47000Y938000D02*
X47000Y938000D01*
X51000Y938000D01*
X51000Y938000D01*
X50598Y938000D01*
X47000Y938000D01*
X51000Y938000D02*
X51000Y938000D01*
X55000Y938000D01*
X55000Y938000D01*
X51000Y938000D01*
X26422Y8128D02*
X4726Y8128D01*
X31578Y8128D02*
X51722Y8128D01*
X60278Y8128D02*
X69722Y8128D01*
X78278Y8128D02*
X99744Y8128D01*
X109856Y8128D02*
X125274Y8128D01*
X23944Y12192D02*
X4302Y12192D01*
X34056Y12192D02*
X50944Y12192D01*
X61056Y12192D02*
X68497Y12192D01*
X80842Y12192D02*
X92658Y12192D01*
X97342Y12192D02*
X99744Y12192D01*
X109856Y12192D02*
X112458Y12192D01*
X119942Y12192D02*
X125698Y12192D01*
X25406Y16256D02*
X4302Y16256D01*
X36867Y16256D02*
X47394Y16256D01*
X64348Y16256D02*
X64433Y16256D01*
X83656Y16256D02*
X89944Y16256D01*
X121256Y16256D02*
X125698Y16256D01*
X32310Y20320D02*
X4302Y20320D01*
X40931Y20320D02*
X47344Y20320D01*
X82530Y20320D02*
X87369Y20320D01*
X118630Y20320D02*
X125698Y20320D01*
X21644Y24384D02*
X4302Y24384D01*
X31756Y24384D02*
X36374Y24384D01*
X44995Y24384D02*
X54074Y24384D01*
X75626Y24384D02*
X83952Y24384D01*
X114456Y24384D02*
X125698Y24384D01*
X15902Y28448D02*
X4302Y28448D01*
X21098Y28448D02*
X22298Y28448D01*
X31102Y28448D02*
X34402Y28448D01*
X39598Y28448D02*
X39952Y28448D01*
X46048Y28448D02*
X55952Y28448D01*
X121056Y28448D02*
X125698Y28448D01*
X13444Y32512D02*
X4302Y32512D01*
X46048Y32512D02*
X55952Y32512D01*
X120238Y32512D02*
X125698Y32512D01*
X14926Y36576D02*
X4302Y36576D01*
X46048Y36576D02*
X55952Y36576D01*
X106048Y36576D02*
X125698Y36576D01*
X23952Y40640D02*
X4302Y40640D01*
X46048Y40640D02*
X55952Y40640D01*
X106048Y40640D02*
X125698Y40640D01*
X23952Y44704D02*
X4302Y44704D01*
X46048Y44704D02*
X55952Y44704D01*
X106048Y44704D02*
X125698Y44704D01*
X23952Y48768D02*
X4302Y48768D01*
X46048Y48768D02*
X55952Y48768D01*
X106048Y48768D02*
X125698Y48768D01*
X23952Y52832D02*
X4302Y52832D01*
X46048Y52832D02*
X55952Y52832D01*
X106048Y52832D02*
X125698Y52832D01*
X23952Y56896D02*
X4302Y56896D01*
X46048Y56896D02*
X55952Y56896D01*
X106048Y56896D02*
X125698Y56896D01*
X23952Y60960D02*
X4302Y60960D01*
X46048Y60960D02*
X55952Y60960D01*
X106048Y60960D02*
X125698Y60960D01*
X23952Y65024D02*
X4302Y65024D01*
X46048Y65024D02*
X55952Y65024D01*
X106048Y65024D02*
X125698Y65024D01*
X23952Y69088D02*
X4302Y69088D01*
X46048Y69088D02*
X55952Y69088D01*
X106048Y69088D02*
X125698Y69088D01*
X23952Y73152D02*
X4302Y73152D01*
X46048Y73152D02*
X55952Y73152D01*
X106048Y73152D02*
X125698Y73152D01*
X23952Y77216D02*
X4302Y77216D01*
X46048Y77216D02*
X55952Y77216D01*
X106048Y77216D02*
X125698Y77216D01*
X23952Y81280D02*
X4302Y81280D01*
X46048Y81280D02*
X55952Y81280D01*
X106048Y81280D02*
X125698Y81280D01*
X23952Y85344D02*
X4302Y85344D01*
X46048Y85344D02*
X55952Y85344D01*
X106048Y85344D02*
X125698Y85344D01*
X23952Y89408D02*
X4302Y89408D01*
X46048Y89408D02*
X55952Y89408D01*
X106048Y89408D02*
X125698Y89408D01*
X23952Y93472D02*
X4302Y93472D01*
X46048Y93472D02*
X55952Y93472D01*
X106048Y93472D02*
X125698Y93472D01*
X23952Y97536D02*
X4302Y97536D01*
X46048Y97536D02*
X55952Y97536D01*
X106048Y97536D02*
X125698Y97536D01*
X23952Y101600D02*
X4302Y101600D01*
X46048Y101600D02*
X55952Y101600D01*
X106048Y101600D02*
X125698Y101600D01*
X23952Y105664D02*
X4302Y105664D01*
X46048Y105664D02*
X55952Y105664D01*
X106048Y105664D02*
X125698Y105664D01*
X23952Y109728D02*
X4302Y109728D01*
X46048Y109728D02*
X55952Y109728D01*
X106048Y109728D02*
X125698Y109728D01*
X23952Y113792D02*
X4302Y113792D01*
X46048Y113792D02*
X55952Y113792D01*
X106048Y113792D02*
X125698Y113792D01*
X23952Y117856D02*
X4302Y117856D01*
X46048Y117856D02*
X55952Y117856D01*
X106048Y117856D02*
X125698Y117856D01*
X23952Y121920D02*
X4302Y121920D01*
X46048Y121920D02*
X55952Y121920D01*
X106048Y121920D02*
X125698Y121920D01*
X23952Y125984D02*
X4302Y125984D01*
X46048Y125984D02*
X55952Y125984D01*
X106048Y125984D02*
X125698Y125984D01*
X23952Y130048D02*
X4302Y130048D01*
X46048Y130048D02*
X55952Y130048D01*
X106048Y130048D02*
X125698Y130048D01*
X23952Y134112D02*
X4302Y134112D01*
X46048Y134112D02*
X55952Y134112D01*
X106048Y134112D02*
X125698Y134112D01*
X23952Y138176D02*
X4302Y138176D01*
X46048Y138176D02*
X55952Y138176D01*
X106048Y138176D02*
X125698Y138176D01*
X23952Y142240D02*
X4302Y142240D01*
X46048Y142240D02*
X55952Y142240D01*
X106048Y142240D02*
X125698Y142240D01*
X23952Y146304D02*
X4302Y146304D01*
X46048Y146304D02*
X55952Y146304D01*
X106048Y146304D02*
X125698Y146304D01*
X23952Y150368D02*
X4302Y150368D01*
X46048Y150368D02*
X55952Y150368D01*
X106048Y150368D02*
X125698Y150368D01*
X23952Y154432D02*
X4302Y154432D01*
X46048Y154432D02*
X55952Y154432D01*
X106048Y154432D02*
X125698Y154432D01*
X23952Y158496D02*
X4302Y158496D01*
X46048Y158496D02*
X55952Y158496D01*
X106048Y158496D02*
X125698Y158496D01*
X23952Y162560D02*
X4302Y162560D01*
X46048Y162560D02*
X55952Y162560D01*
X106048Y162560D02*
X125698Y162560D01*
X23952Y166624D02*
X4302Y166624D01*
X46048Y166624D02*
X55952Y166624D01*
X106048Y166624D02*
X125698Y166624D01*
X23952Y170688D02*
X4302Y170688D01*
X46048Y170688D02*
X55952Y170688D01*
X106048Y170688D02*
X125698Y170688D01*
X23952Y174752D02*
X4302Y174752D01*
X46048Y174752D02*
X55952Y174752D01*
X106048Y174752D02*
X125698Y174752D01*
X23952Y178816D02*
X4302Y178816D01*
X46048Y178816D02*
X55952Y178816D01*
X106048Y178816D02*
X125698Y178816D01*
X23952Y182880D02*
X4302Y182880D01*
X46048Y182880D02*
X55952Y182880D01*
X106048Y182880D02*
X125698Y182880D01*
X23952Y186944D02*
X4302Y186944D01*
X46048Y186944D02*
X55952Y186944D01*
X106048Y186944D02*
X125698Y186944D01*
X23952Y191008D02*
X4302Y191008D01*
X46048Y191008D02*
X55952Y191008D01*
X106048Y191008D02*
X125698Y191008D01*
X23952Y195072D02*
X4302Y195072D01*
X46048Y195072D02*
X55952Y195072D01*
X106048Y195072D02*
X125698Y195072D01*
X23952Y199136D02*
X4302Y199136D01*
X46048Y199136D02*
X55952Y199136D01*
X106048Y199136D02*
X125698Y199136D01*
X23952Y203200D02*
X4302Y203200D01*
X46048Y203200D02*
X55952Y203200D01*
X106048Y203200D02*
X125698Y203200D01*
X23952Y207264D02*
X4302Y207264D01*
X46048Y207264D02*
X55952Y207264D01*
X106048Y207264D02*
X125698Y207264D01*
X23952Y211328D02*
X4302Y211328D01*
X46048Y211328D02*
X55952Y211328D01*
X106048Y211328D02*
X125698Y211328D01*
X23952Y215392D02*
X4302Y215392D01*
X46048Y215392D02*
X55952Y215392D01*
X106048Y215392D02*
X125698Y215392D01*
X23952Y219456D02*
X4302Y219456D01*
X46048Y219456D02*
X55952Y219456D01*
X106048Y219456D02*
X125698Y219456D01*
X23952Y223520D02*
X4302Y223520D01*
X46048Y223520D02*
X55952Y223520D01*
X106048Y223520D02*
X125698Y223520D01*
X23952Y227584D02*
X4302Y227584D01*
X46048Y227584D02*
X55952Y227584D01*
X106048Y227584D02*
X125698Y227584D01*
X23952Y231648D02*
X4302Y231648D01*
X46048Y231648D02*
X55952Y231648D01*
X106048Y231648D02*
X125698Y231648D01*
X23952Y235712D02*
X4302Y235712D01*
X46048Y235712D02*
X55952Y235712D01*
X106048Y235712D02*
X125698Y235712D01*
X23952Y239776D02*
X4302Y239776D01*
X46048Y239776D02*
X55952Y239776D01*
X106048Y239776D02*
X125698Y239776D01*
X23952Y243840D02*
X4302Y243840D01*
X46048Y243840D02*
X55952Y243840D01*
X106048Y243840D02*
X125698Y243840D01*
X23952Y247904D02*
X4302Y247904D01*
X46048Y247904D02*
X55952Y247904D01*
X106048Y247904D02*
X125698Y247904D01*
X23952Y251968D02*
X4302Y251968D01*
X46048Y251968D02*
X55952Y251968D01*
X106048Y251968D02*
X125698Y251968D01*
X23952Y256032D02*
X4302Y256032D01*
X46048Y256032D02*
X55952Y256032D01*
X106048Y256032D02*
X125698Y256032D01*
X23952Y260096D02*
X4302Y260096D01*
X46048Y260096D02*
X55952Y260096D01*
X106048Y260096D02*
X125698Y260096D01*
X23952Y264160D02*
X4302Y264160D01*
X46048Y264160D02*
X55952Y264160D01*
X106048Y264160D02*
X125698Y264160D01*
X23952Y268224D02*
X4302Y268224D01*
X46048Y268224D02*
X55952Y268224D01*
X106048Y268224D02*
X125698Y268224D01*
X23952Y272288D02*
X4302Y272288D01*
X46048Y272288D02*
X55952Y272288D01*
X106048Y272288D02*
X125698Y272288D01*
X23952Y276352D02*
X4302Y276352D01*
X46048Y276352D02*
X55952Y276352D01*
X106048Y276352D02*
X125698Y276352D01*
X23952Y280416D02*
X4302Y280416D01*
X46048Y280416D02*
X55952Y280416D01*
X106048Y280416D02*
X125698Y280416D01*
X23952Y284480D02*
X4302Y284480D01*
X46048Y284480D02*
X55952Y284480D01*
X106048Y284480D02*
X125698Y284480D01*
X23952Y288544D02*
X4302Y288544D01*
X46048Y288544D02*
X55952Y288544D01*
X106048Y288544D02*
X125698Y288544D01*
X23952Y292608D02*
X4302Y292608D01*
X46048Y292608D02*
X55952Y292608D01*
X106048Y292608D02*
X125698Y292608D01*
X23952Y296672D02*
X4302Y296672D01*
X46048Y296672D02*
X55952Y296672D01*
X106048Y296672D02*
X125698Y296672D01*
X23952Y300736D02*
X4302Y300736D01*
X46048Y300736D02*
X55952Y300736D01*
X106048Y300736D02*
X125698Y300736D01*
X23952Y304800D02*
X4302Y304800D01*
X46048Y304800D02*
X55952Y304800D01*
X106048Y304800D02*
X125698Y304800D01*
X23952Y308864D02*
X4302Y308864D01*
X46048Y308864D02*
X55952Y308864D01*
X106048Y308864D02*
X125698Y308864D01*
X23952Y312928D02*
X4302Y312928D01*
X46048Y312928D02*
X55952Y312928D01*
X106048Y312928D02*
X125698Y312928D01*
X23952Y316992D02*
X4302Y316992D01*
X46048Y316992D02*
X55952Y316992D01*
X106048Y316992D02*
X125698Y316992D01*
X23952Y321056D02*
X4302Y321056D01*
X46048Y321056D02*
X55952Y321056D01*
X106048Y321056D02*
X125698Y321056D01*
X23952Y325120D02*
X4302Y325120D01*
X46048Y325120D02*
X55952Y325120D01*
X106048Y325120D02*
X125698Y325120D01*
X23952Y329184D02*
X4302Y329184D01*
X46048Y329184D02*
X55952Y329184D01*
X106048Y329184D02*
X125698Y329184D01*
X23952Y333248D02*
X4302Y333248D01*
X46048Y333248D02*
X55952Y333248D01*
X106048Y333248D02*
X125698Y333248D01*
X23952Y337312D02*
X4302Y337312D01*
X46048Y337312D02*
X55952Y337312D01*
X106048Y337312D02*
X125698Y337312D01*
X23952Y341376D02*
X4302Y341376D01*
X46048Y341376D02*
X55952Y341376D01*
X106048Y341376D02*
X125698Y341376D01*
X23952Y345440D02*
X4302Y345440D01*
X46048Y345440D02*
X55952Y345440D01*
X106048Y345440D02*
X125698Y345440D01*
X23952Y349504D02*
X4302Y349504D01*
X46048Y349504D02*
X55952Y349504D01*
X106048Y349504D02*
X125698Y349504D01*
X23952Y353568D02*
X4302Y353568D01*
X46048Y353568D02*
X55952Y353568D01*
X106048Y353568D02*
X125698Y353568D01*
X23952Y357632D02*
X4302Y357632D01*
X46048Y357632D02*
X55952Y357632D01*
X106048Y357632D02*
X125698Y357632D01*
X23952Y361696D02*
X4302Y361696D01*
X46048Y361696D02*
X55952Y361696D01*
X106048Y361696D02*
X125698Y361696D01*
X23952Y365760D02*
X4302Y365760D01*
X46048Y365760D02*
X55952Y365760D01*
X106048Y365760D02*
X125698Y365760D01*
X23952Y369824D02*
X4302Y369824D01*
X46048Y369824D02*
X55952Y369824D01*
X106048Y369824D02*
X125698Y369824D01*
X23952Y373888D02*
X4302Y373888D01*
X46048Y373888D02*
X55952Y373888D01*
X106048Y373888D02*
X125698Y373888D01*
X23952Y377952D02*
X4302Y377952D01*
X46048Y377952D02*
X55952Y377952D01*
X106048Y377952D02*
X125698Y377952D01*
X23952Y382016D02*
X4302Y382016D01*
X46048Y382016D02*
X55952Y382016D01*
X106048Y382016D02*
X125698Y382016D01*
X23952Y386080D02*
X4302Y386080D01*
X46048Y386080D02*
X55952Y386080D01*
X106048Y386080D02*
X125698Y386080D01*
X23952Y390144D02*
X4302Y390144D01*
X46048Y390144D02*
X55952Y390144D01*
X106048Y390144D02*
X125698Y390144D01*
X23952Y394208D02*
X4302Y394208D01*
X46048Y394208D02*
X55952Y394208D01*
X106048Y394208D02*
X125698Y394208D01*
X23952Y398272D02*
X4302Y398272D01*
X46048Y398272D02*
X55952Y398272D01*
X106048Y398272D02*
X125698Y398272D01*
X23952Y402336D02*
X4302Y402336D01*
X46048Y402336D02*
X55952Y402336D01*
X106048Y402336D02*
X125698Y402336D01*
X23952Y406400D02*
X4302Y406400D01*
X46048Y406400D02*
X55952Y406400D01*
X106048Y406400D02*
X125698Y406400D01*
X23952Y410464D02*
X4302Y410464D01*
X46048Y410464D02*
X55952Y410464D01*
X106048Y410464D02*
X125698Y410464D01*
X23952Y414528D02*
X4302Y414528D01*
X46048Y414528D02*
X55952Y414528D01*
X106048Y414528D02*
X125698Y414528D01*
X23952Y418592D02*
X4302Y418592D01*
X46048Y418592D02*
X55952Y418592D01*
X106048Y418592D02*
X125698Y418592D01*
X23952Y422656D02*
X4302Y422656D01*
X46048Y422656D02*
X55952Y422656D01*
X106048Y422656D02*
X125698Y422656D01*
X23952Y426720D02*
X4302Y426720D01*
X46048Y426720D02*
X55952Y426720D01*
X106048Y426720D02*
X125698Y426720D01*
X23952Y430784D02*
X4302Y430784D01*
X46048Y430784D02*
X55952Y430784D01*
X106048Y430784D02*
X125698Y430784D01*
X23952Y434848D02*
X4302Y434848D01*
X46048Y434848D02*
X55952Y434848D01*
X106048Y434848D02*
X125698Y434848D01*
X23952Y438912D02*
X4302Y438912D01*
X46048Y438912D02*
X55952Y438912D01*
X106048Y438912D02*
X125698Y438912D01*
X23952Y442976D02*
X4302Y442976D01*
X46048Y442976D02*
X55952Y442976D01*
X106048Y442976D02*
X125698Y442976D01*
X23952Y447040D02*
X4302Y447040D01*
X46048Y447040D02*
X55952Y447040D01*
X106048Y447040D02*
X125698Y447040D01*
X23952Y451104D02*
X4302Y451104D01*
X46048Y451104D02*
X55952Y451104D01*
X106048Y451104D02*
X125698Y451104D01*
X23952Y455168D02*
X4302Y455168D01*
X46048Y455168D02*
X55952Y455168D01*
X106048Y455168D02*
X125698Y455168D01*
X23952Y459232D02*
X4302Y459232D01*
X46048Y459232D02*
X55952Y459232D01*
X106048Y459232D02*
X125698Y459232D01*
X23952Y463296D02*
X4302Y463296D01*
X46048Y463296D02*
X55952Y463296D01*
X106048Y463296D02*
X125698Y463296D01*
X23952Y467360D02*
X4302Y467360D01*
X46048Y467360D02*
X55952Y467360D01*
X106048Y467360D02*
X125698Y467360D01*
X23952Y471424D02*
X4302Y471424D01*
X46048Y471424D02*
X55952Y471424D01*
X106048Y471424D02*
X125698Y471424D01*
X23952Y475488D02*
X4302Y475488D01*
X46048Y475488D02*
X55952Y475488D01*
X106048Y475488D02*
X125698Y475488D01*
X23952Y479552D02*
X4302Y479552D01*
X46048Y479552D02*
X55952Y479552D01*
X106048Y479552D02*
X125698Y479552D01*
X23952Y483616D02*
X4302Y483616D01*
X46048Y483616D02*
X55952Y483616D01*
X106048Y483616D02*
X125698Y483616D01*
X23952Y487680D02*
X4302Y487680D01*
X46048Y487680D02*
X55952Y487680D01*
X106048Y487680D02*
X125698Y487680D01*
X23952Y491744D02*
X4302Y491744D01*
X46048Y491744D02*
X55952Y491744D01*
X106048Y491744D02*
X125698Y491744D01*
X23952Y495808D02*
X4302Y495808D01*
X46048Y495808D02*
X55952Y495808D01*
X106048Y495808D02*
X125698Y495808D01*
X23952Y499872D02*
X4302Y499872D01*
X46048Y499872D02*
X55952Y499872D01*
X106048Y499872D02*
X125698Y499872D01*
X23952Y503936D02*
X4302Y503936D01*
X46048Y503936D02*
X55952Y503936D01*
X106048Y503936D02*
X125698Y503936D01*
X23952Y508000D02*
X4302Y508000D01*
X46048Y508000D02*
X55952Y508000D01*
X106048Y508000D02*
X125698Y508000D01*
X23952Y512064D02*
X4302Y512064D01*
X46048Y512064D02*
X55952Y512064D01*
X106048Y512064D02*
X125698Y512064D01*
X23952Y516128D02*
X4302Y516128D01*
X46048Y516128D02*
X55952Y516128D01*
X106048Y516128D02*
X125698Y516128D01*
X23952Y520192D02*
X4302Y520192D01*
X46048Y520192D02*
X55952Y520192D01*
X106048Y520192D02*
X125698Y520192D01*
X23952Y524256D02*
X4302Y524256D01*
X46048Y524256D02*
X55952Y524256D01*
X106048Y524256D02*
X125698Y524256D01*
X23952Y528320D02*
X4302Y528320D01*
X46048Y528320D02*
X55952Y528320D01*
X106048Y528320D02*
X125698Y528320D01*
X23952Y532384D02*
X4302Y532384D01*
X46048Y532384D02*
X55952Y532384D01*
X106048Y532384D02*
X125698Y532384D01*
X23952Y536448D02*
X4302Y536448D01*
X46048Y536448D02*
X55952Y536448D01*
X106048Y536448D02*
X125698Y536448D01*
X23952Y540512D02*
X4302Y540512D01*
X46048Y540512D02*
X55952Y540512D01*
X106048Y540512D02*
X125698Y540512D01*
X23952Y544576D02*
X4302Y544576D01*
X46048Y544576D02*
X55952Y544576D01*
X106048Y544576D02*
X125698Y544576D01*
X23952Y548640D02*
X4302Y548640D01*
X46048Y548640D02*
X55952Y548640D01*
X106048Y548640D02*
X125698Y548640D01*
X23952Y552704D02*
X4302Y552704D01*
X46048Y552704D02*
X55952Y552704D01*
X106048Y552704D02*
X125698Y552704D01*
X23952Y556768D02*
X4302Y556768D01*
X46048Y556768D02*
X55952Y556768D01*
X106048Y556768D02*
X125698Y556768D01*
X23952Y560832D02*
X4302Y560832D01*
X46048Y560832D02*
X55952Y560832D01*
X106048Y560832D02*
X125698Y560832D01*
X23952Y564896D02*
X4302Y564896D01*
X46048Y564896D02*
X55952Y564896D01*
X106048Y564896D02*
X125698Y564896D01*
X23952Y568960D02*
X4302Y568960D01*
X46048Y568960D02*
X55952Y568960D01*
X106048Y568960D02*
X125698Y568960D01*
X23952Y573024D02*
X4302Y573024D01*
X46048Y573024D02*
X55952Y573024D01*
X106048Y573024D02*
X125698Y573024D01*
X23952Y577088D02*
X4302Y577088D01*
X46048Y577088D02*
X55952Y577088D01*
X106048Y577088D02*
X125698Y577088D01*
X23952Y581152D02*
X4302Y581152D01*
X46048Y581152D02*
X55952Y581152D01*
X106048Y581152D02*
X125698Y581152D01*
X23952Y585216D02*
X4302Y585216D01*
X46048Y585216D02*
X55952Y585216D01*
X106048Y585216D02*
X125698Y585216D01*
X23952Y589280D02*
X4302Y589280D01*
X46048Y589280D02*
X55952Y589280D01*
X106048Y589280D02*
X125698Y589280D01*
X23952Y593344D02*
X4302Y593344D01*
X46048Y593344D02*
X55952Y593344D01*
X106048Y593344D02*
X125698Y593344D01*
X23952Y597408D02*
X4302Y597408D01*
X46048Y597408D02*
X55952Y597408D01*
X106048Y597408D02*
X125698Y597408D01*
X23952Y601472D02*
X4302Y601472D01*
X46048Y601472D02*
X55952Y601472D01*
X106048Y601472D02*
X125698Y601472D01*
X23952Y605536D02*
X4302Y605536D01*
X46048Y605536D02*
X55952Y605536D01*
X106048Y605536D02*
X125698Y605536D01*
X23952Y609600D02*
X4302Y609600D01*
X46048Y609600D02*
X55952Y609600D01*
X106048Y609600D02*
X125698Y609600D01*
X23952Y613664D02*
X4302Y613664D01*
X46048Y613664D02*
X55952Y613664D01*
X106048Y613664D02*
X125698Y613664D01*
X23952Y617728D02*
X4302Y617728D01*
X46048Y617728D02*
X55952Y617728D01*
X106048Y617728D02*
X125698Y617728D01*
X23952Y621792D02*
X4302Y621792D01*
X46048Y621792D02*
X55952Y621792D01*
X106048Y621792D02*
X125698Y621792D01*
X23952Y625856D02*
X4302Y625856D01*
X46048Y625856D02*
X55952Y625856D01*
X106048Y625856D02*
X125698Y625856D01*
X23952Y629920D02*
X4302Y629920D01*
X46048Y629920D02*
X55952Y629920D01*
X106048Y629920D02*
X125698Y629920D01*
X23952Y633984D02*
X4302Y633984D01*
X46048Y633984D02*
X55952Y633984D01*
X106048Y633984D02*
X125698Y633984D01*
X23952Y638048D02*
X4302Y638048D01*
X46048Y638048D02*
X55952Y638048D01*
X106048Y638048D02*
X125698Y638048D01*
X23952Y642112D02*
X4302Y642112D01*
X46048Y642112D02*
X55952Y642112D01*
X106048Y642112D02*
X125698Y642112D01*
X23952Y646176D02*
X4302Y646176D01*
X46048Y646176D02*
X55952Y646176D01*
X106048Y646176D02*
X125698Y646176D01*
X23952Y650240D02*
X4302Y650240D01*
X46048Y650240D02*
X55952Y650240D01*
X106048Y650240D02*
X125698Y650240D01*
X23952Y654304D02*
X4302Y654304D01*
X46048Y654304D02*
X55952Y654304D01*
X106048Y654304D02*
X125698Y654304D01*
X23952Y658368D02*
X4302Y658368D01*
X46048Y658368D02*
X55952Y658368D01*
X106048Y658368D02*
X125698Y658368D01*
X23952Y662432D02*
X4302Y662432D01*
X46048Y662432D02*
X55952Y662432D01*
X106048Y662432D02*
X125698Y662432D01*
X23952Y666496D02*
X4302Y666496D01*
X46048Y666496D02*
X55952Y666496D01*
X106048Y666496D02*
X125698Y666496D01*
X23952Y670560D02*
X4302Y670560D01*
X46048Y670560D02*
X55952Y670560D01*
X106048Y670560D02*
X125698Y670560D01*
X23952Y674624D02*
X4302Y674624D01*
X46048Y674624D02*
X55952Y674624D01*
X106048Y674624D02*
X125698Y674624D01*
X23952Y678688D02*
X4302Y678688D01*
X46048Y678688D02*
X55952Y678688D01*
X106048Y678688D02*
X125698Y678688D01*
X23952Y682752D02*
X4302Y682752D01*
X46048Y682752D02*
X55952Y682752D01*
X106048Y682752D02*
X125698Y682752D01*
X23952Y686816D02*
X4302Y686816D01*
X46048Y686816D02*
X55952Y686816D01*
X106048Y686816D02*
X125698Y686816D01*
X23952Y690880D02*
X4302Y690880D01*
X46048Y690880D02*
X55952Y690880D01*
X106048Y690880D02*
X125698Y690880D01*
X23952Y694944D02*
X4302Y694944D01*
X46048Y694944D02*
X55952Y694944D01*
X106048Y694944D02*
X125698Y694944D01*
X23952Y699008D02*
X4302Y699008D01*
X46048Y699008D02*
X55952Y699008D01*
X106048Y699008D02*
X125698Y699008D01*
X23952Y703072D02*
X4302Y703072D01*
X46048Y703072D02*
X55952Y703072D01*
X106048Y703072D02*
X125698Y703072D01*
X23952Y707136D02*
X4302Y707136D01*
X46048Y707136D02*
X55952Y707136D01*
X106048Y707136D02*
X125698Y707136D01*
X23952Y711200D02*
X4302Y711200D01*
X46048Y711200D02*
X55952Y711200D01*
X106048Y711200D02*
X125698Y711200D01*
X23952Y715264D02*
X4302Y715264D01*
X46048Y715264D02*
X55952Y715264D01*
X106048Y715264D02*
X125698Y715264D01*
X23952Y719328D02*
X4302Y719328D01*
X46048Y719328D02*
X55952Y719328D01*
X106048Y719328D02*
X125698Y719328D01*
X23952Y723392D02*
X4302Y723392D01*
X46048Y723392D02*
X55952Y723392D01*
X106048Y723392D02*
X125698Y723392D01*
X23952Y727456D02*
X4302Y727456D01*
X46048Y727456D02*
X55952Y727456D01*
X106048Y727456D02*
X125698Y727456D01*
X23952Y731520D02*
X4302Y731520D01*
X46048Y731520D02*
X55952Y731520D01*
X106048Y731520D02*
X125698Y731520D01*
X23952Y735584D02*
X4302Y735584D01*
X46048Y735584D02*
X55952Y735584D01*
X106048Y735584D02*
X125698Y735584D01*
X23952Y739648D02*
X4302Y739648D01*
X46048Y739648D02*
X55952Y739648D01*
X106048Y739648D02*
X125698Y739648D01*
X23952Y743712D02*
X4302Y743712D01*
X46048Y743712D02*
X55952Y743712D01*
X106048Y743712D02*
X125698Y743712D01*
X23952Y747776D02*
X4302Y747776D01*
X46048Y747776D02*
X55952Y747776D01*
X106048Y747776D02*
X125698Y747776D01*
X23952Y751840D02*
X4302Y751840D01*
X46048Y751840D02*
X55952Y751840D01*
X106048Y751840D02*
X125698Y751840D01*
X23952Y755904D02*
X4302Y755904D01*
X46048Y755904D02*
X55952Y755904D01*
X106048Y755904D02*
X125698Y755904D01*
X23952Y759968D02*
X4302Y759968D01*
X46048Y759968D02*
X55952Y759968D01*
X106048Y759968D02*
X125698Y759968D01*
X23952Y764032D02*
X4302Y764032D01*
X46048Y764032D02*
X55952Y764032D01*
X106048Y764032D02*
X125698Y764032D01*
X23952Y768096D02*
X4302Y768096D01*
X46048Y768096D02*
X55952Y768096D01*
X106048Y768096D02*
X125698Y768096D01*
X23952Y772160D02*
X4302Y772160D01*
X46048Y772160D02*
X55952Y772160D01*
X106048Y772160D02*
X125698Y772160D01*
X23952Y776224D02*
X4302Y776224D01*
X46048Y776224D02*
X55952Y776224D01*
X106048Y776224D02*
X125698Y776224D01*
X23952Y780288D02*
X4302Y780288D01*
X46048Y780288D02*
X55952Y780288D01*
X106048Y780288D02*
X125698Y780288D01*
X23952Y784352D02*
X4302Y784352D01*
X46048Y784352D02*
X55952Y784352D01*
X106048Y784352D02*
X125698Y784352D01*
X23952Y788416D02*
X4302Y788416D01*
X46048Y788416D02*
X55952Y788416D01*
X106048Y788416D02*
X125698Y788416D01*
X23952Y792480D02*
X4302Y792480D01*
X46048Y792480D02*
X55952Y792480D01*
X106048Y792480D02*
X125698Y792480D01*
X23952Y796544D02*
X4302Y796544D01*
X46048Y796544D02*
X55952Y796544D01*
X106048Y796544D02*
X125698Y796544D01*
X23952Y800608D02*
X4302Y800608D01*
X46048Y800608D02*
X55952Y800608D01*
X106048Y800608D02*
X125698Y800608D01*
X23952Y804672D02*
X4302Y804672D01*
X46048Y804672D02*
X55952Y804672D01*
X106048Y804672D02*
X125698Y804672D01*
X23952Y808736D02*
X4302Y808736D01*
X46048Y808736D02*
X55952Y808736D01*
X106048Y808736D02*
X125698Y808736D01*
X23952Y812800D02*
X4302Y812800D01*
X46048Y812800D02*
X55952Y812800D01*
X106048Y812800D02*
X125698Y812800D01*
X23952Y816864D02*
X4302Y816864D01*
X46048Y816864D02*
X55952Y816864D01*
X106048Y816864D02*
X125698Y816864D01*
X23952Y820928D02*
X4302Y820928D01*
X46048Y820928D02*
X55952Y820928D01*
X106048Y820928D02*
X125698Y820928D01*
X23952Y824992D02*
X4302Y824992D01*
X46048Y824992D02*
X55952Y824992D01*
X106048Y824992D02*
X125698Y824992D01*
X23952Y829056D02*
X4302Y829056D01*
X46048Y829056D02*
X55952Y829056D01*
X106048Y829056D02*
X125698Y829056D01*
X23952Y833120D02*
X4302Y833120D01*
X46048Y833120D02*
X55952Y833120D01*
X106048Y833120D02*
X125698Y833120D01*
X23952Y837184D02*
X4302Y837184D01*
X46048Y837184D02*
X55952Y837184D01*
X106048Y837184D02*
X125698Y837184D01*
X23952Y841248D02*
X4302Y841248D01*
X46048Y841248D02*
X55952Y841248D01*
X106048Y841248D02*
X125698Y841248D01*
X23952Y845312D02*
X4302Y845312D01*
X46048Y845312D02*
X55952Y845312D01*
X106048Y845312D02*
X125698Y845312D01*
X23952Y849376D02*
X4302Y849376D01*
X46048Y849376D02*
X55952Y849376D01*
X106048Y849376D02*
X125698Y849376D01*
X23952Y853440D02*
X4302Y853440D01*
X46048Y853440D02*
X55952Y853440D01*
X106048Y853440D02*
X125698Y853440D01*
X23952Y857504D02*
X4302Y857504D01*
X46048Y857504D02*
X55952Y857504D01*
X106048Y857504D02*
X125698Y857504D01*
X23952Y861568D02*
X4302Y861568D01*
X46048Y861568D02*
X55952Y861568D01*
X106048Y861568D02*
X125698Y861568D01*
X23952Y865632D02*
X4302Y865632D01*
X46048Y865632D02*
X55952Y865632D01*
X106048Y865632D02*
X125698Y865632D01*
X23952Y869696D02*
X4302Y869696D01*
X46048Y869696D02*
X55952Y869696D01*
X106048Y869696D02*
X125698Y869696D01*
X23952Y873760D02*
X4302Y873760D01*
X46048Y873760D02*
X55952Y873760D01*
X106048Y873760D02*
X125698Y873760D01*
X23952Y877824D02*
X4302Y877824D01*
X46048Y877824D02*
X55952Y877824D01*
X106048Y877824D02*
X125698Y877824D01*
X23952Y881888D02*
X4302Y881888D01*
X46048Y881888D02*
X55952Y881888D01*
X106048Y881888D02*
X125698Y881888D01*
X23952Y885952D02*
X4302Y885952D01*
X46048Y885952D02*
X55952Y885952D01*
X106048Y885952D02*
X125698Y885952D01*
X23952Y890016D02*
X4302Y890016D01*
X46048Y890016D02*
X55952Y890016D01*
X106048Y890016D02*
X125698Y890016D01*
X23952Y894080D02*
X4302Y894080D01*
X46048Y894080D02*
X55952Y894080D01*
X106048Y894080D02*
X125698Y894080D01*
X23952Y898144D02*
X4302Y898144D01*
X46048Y898144D02*
X55952Y898144D01*
X106048Y898144D02*
X125698Y898144D01*
X23952Y902208D02*
X4302Y902208D01*
X46048Y902208D02*
X55952Y902208D01*
X106048Y902208D02*
X125698Y902208D01*
X23952Y906272D02*
X4302Y906272D01*
X46048Y906272D02*
X55952Y906272D01*
X106048Y906272D02*
X125698Y906272D01*
X23952Y910336D02*
X4302Y910336D01*
X46048Y910336D02*
X55952Y910336D01*
X106048Y910336D02*
X125698Y910336D01*
X23952Y914400D02*
X4302Y914400D01*
X46048Y914400D02*
X55952Y914400D01*
X106048Y914400D02*
X125698Y914400D01*
X23952Y918464D02*
X4302Y918464D01*
X46048Y918464D02*
X55952Y918464D01*
X106048Y918464D02*
X125698Y918464D01*
X23952Y922528D02*
X4302Y922528D01*
X46048Y922528D02*
X55952Y922528D01*
X106048Y922528D02*
X125698Y922528D01*
X23952Y926592D02*
X4302Y926592D01*
X46048Y926592D02*
X55952Y926592D01*
X106048Y926592D02*
X125698Y926592D01*
X23952Y930656D02*
X4302Y930656D01*
X46048Y930656D02*
X55952Y930656D01*
X106048Y930656D02*
X125698Y930656D01*
X11791Y934720D02*
X4302Y934720D01*
X18137Y934720D02*
X19363Y934720D01*
X110637Y934720D02*
X111863Y934720D01*
X118209Y934720D02*
X125698Y934720D01*
X18137Y938784D02*
X4302Y938784D01*
X111863Y938784D02*
X125698Y938784D01*
X12254Y942848D02*
X4302Y942848D01*
X18137Y942848D02*
X19363Y942848D01*
X110637Y942848D02*
X111863Y942848D01*
X117746Y942848D02*
X125698Y942848D01*
X19698Y946912D02*
X4302Y946912D01*
X110302Y946912D02*
X125698Y946912D01*
X19698Y950976D02*
X4302Y950976D01*
X110302Y950976D02*
X125698Y950976D01*
X19698Y955040D02*
X4302Y955040D01*
X110302Y955040D02*
X125698Y955040D01*
X11698Y959104D02*
X4302Y959104D01*
X18137Y959104D02*
X19363Y959104D01*
X110637Y959104D02*
X111863Y959104D01*
X118302Y959104D02*
X125698Y959104D01*
X11698Y963168D02*
X4302Y963168D01*
X110637Y963168D02*
X111863Y963168D01*
X118302Y963168D02*
X125698Y963168D01*
X7961Y967232D02*
X4302Y967232D01*
X110637Y967232D02*
X111863Y967232D01*
X123250Y967232D02*
X125698Y967232D01*
X7961Y971296D02*
X4302Y971296D01*
X122448Y971296D02*
X125698Y971296D01*
X8555Y975360D02*
X4302Y975360D01*
X123056Y975360D02*
X125698Y975360D01*
X7927Y979424D02*
X4302Y979424D01*
X122732Y979424D02*
X125698Y979424D01*
X7996Y983488D02*
X4302Y983488D01*
X121838Y983488D02*
X125698Y983488D01*
X6761Y987552D02*
X4302Y987552D01*
X122139Y987552D02*
X125698Y987552D01*
X9466Y991616D02*
X4620Y991616D01*
X117573Y991616D02*
X125380Y991616D01*
X12464Y995680D02*
X9817Y995680D01*
X117305Y995680D02*
X120183Y995680D01*
X8128Y967056D02*
X8128Y4726D01*
X8128Y971578D02*
X8128Y975787D01*
X8128Y980378D02*
X8128Y983356D01*
X8128Y990278D02*
X8128Y995274D01*
X12192Y933760D02*
X12192Y4302D01*
X12192Y937637D02*
X12192Y938863D01*
X12192Y942740D02*
X12192Y957260D01*
X12192Y961137D02*
X12192Y962363D01*
X12192Y995408D02*
X12192Y995698D01*
X16256Y28094D02*
X16256Y4302D01*
X16256Y37906D02*
X16256Y932198D01*
X16256Y937637D02*
X16256Y938863D01*
X16256Y944302D02*
X16256Y955698D01*
X16256Y961137D02*
X16256Y962363D01*
X20320Y27944D02*
X20320Y4302D01*
X20320Y38056D02*
X20320Y932198D01*
X20320Y949238D02*
X20320Y950762D01*
X24384Y10166D02*
X24384Y4302D01*
X24384Y15234D02*
X24384Y20866D01*
X24384Y30534D02*
X24384Y30574D01*
X24384Y949238D02*
X24384Y950762D01*
X28448Y7644D02*
X28448Y4302D01*
X28448Y17756D02*
X28448Y20644D01*
X28448Y949238D02*
X28448Y950762D01*
X32512Y9062D02*
X32512Y4302D01*
X32512Y20523D02*
X32512Y30338D01*
X32512Y949238D02*
X32512Y950762D01*
X36576Y15966D02*
X36576Y4302D01*
X36576Y24587D02*
X36576Y27944D01*
X36576Y949238D02*
X36576Y950762D01*
X40640Y20030D02*
X40640Y4302D01*
X40640Y949238D02*
X40640Y950762D01*
X44704Y24094D02*
X44704Y4302D01*
X44704Y949238D02*
X44704Y950762D01*
X48768Y14882D02*
X48768Y4302D01*
X48768Y21918D02*
X48768Y932261D01*
X48768Y938000D02*
X48768Y938000D01*
X48768Y949238D02*
X48768Y950762D01*
X52832Y7018D02*
X52832Y4302D01*
X52832Y23456D02*
X52832Y932278D01*
X52832Y938000D02*
X52832Y938000D01*
X52832Y949238D02*
X52832Y950762D01*
X56896Y5944D02*
X56896Y4302D01*
X56896Y949238D02*
X56896Y950762D01*
X60960Y8810D02*
X60960Y4302D01*
X60960Y949238D02*
X60960Y950762D01*
X65024Y15666D02*
X65024Y4302D01*
X69088Y4302D02*
X69088Y8762D01*
X69088Y949238D02*
X69088Y950762D01*
X73152Y5944D02*
X73152Y4302D01*
X73152Y949238D02*
X73152Y950762D01*
X77216Y7066D02*
X77216Y4302D01*
X77216Y22794D02*
X77216Y25766D01*
X77216Y949238D02*
X77216Y950762D01*
X81280Y12630D02*
X81280Y4302D01*
X81280Y21570D02*
X81280Y25972D01*
X81280Y949238D02*
X81280Y950762D01*
X85344Y22345D02*
X85344Y4302D01*
X85344Y949238D02*
X85344Y950762D01*
X89408Y18281D02*
X89408Y4302D01*
X89408Y949238D02*
X89408Y950762D01*
X93472Y11944D02*
X93472Y4302D01*
X93472Y949238D02*
X93472Y950762D01*
X97536Y12386D02*
X97536Y4302D01*
X97536Y949238D02*
X97536Y950762D01*
X101600Y6250D02*
X101600Y4302D01*
X101600Y949238D02*
X101600Y950762D01*
X105664Y5144D02*
X105664Y4302D01*
X105664Y949238D02*
X105664Y950762D01*
X109728Y7978D02*
X109728Y4302D01*
X109728Y12422D02*
X109728Y12552D01*
X109728Y32648D02*
X109728Y932198D01*
X109728Y949238D02*
X109728Y950762D01*
X109728Y967802D02*
X109728Y969262D01*
X113792Y10858D02*
X113792Y4302D01*
X113792Y34542D02*
X113792Y932198D01*
X113792Y937637D02*
X113792Y938863D01*
X113792Y944302D02*
X113792Y955698D01*
X113792Y961137D02*
X113792Y962363D01*
X117856Y10544D02*
X117856Y4302D01*
X117856Y20656D02*
X117856Y24544D01*
X117856Y34656D02*
X117856Y933843D01*
X117856Y937637D02*
X117856Y938863D01*
X117856Y942657D02*
X117856Y957343D01*
X117856Y961137D02*
X117856Y962363D01*
X117856Y990939D02*
X117856Y995698D01*
X121920Y964976D02*
X121920Y4746D01*
X121920Y971824D02*
X121920Y973776D01*
X121920Y980236D02*
X121920Y983570D01*
X121920Y988196D02*
X121920Y995254D01*
D18*
X51000Y930000D02*
X51000Y33000D01*
D14*
X51000Y33000D03*
D17*
X51000Y930000D02*
X51000Y932000D01*
X47000Y932000D01*
X47000Y938000D01*
X55000Y938000D02*
X55000Y933000D01*
X51000Y930000D01*
X51000Y938000D01*
M02*
