G04 EAGLE Gerber RS-274X export*
G75*
%MOMM*%
%FSLAX34Y34*%
%LPD*%
%IN*%
%IPPOS*%
%AMOC8*
5,1,8,0,0,1.08239X$1,22.5*%
G01*
%ADD10C,0.254000*%


D10*
X0Y10000D02*
X38Y9128D01*
X152Y8264D01*
X341Y7412D01*
X603Y6580D01*
X937Y5774D01*
X1340Y5000D01*
X1808Y4264D01*
X2340Y3572D01*
X2929Y2929D01*
X3572Y2340D01*
X4264Y1808D01*
X5000Y1340D01*
X5774Y937D01*
X6580Y603D01*
X7412Y341D01*
X8264Y152D01*
X9128Y38D01*
X10000Y0D01*
X120000Y0D01*
X120872Y38D01*
X121736Y152D01*
X122588Y341D01*
X123420Y603D01*
X124226Y937D01*
X125000Y1340D01*
X125736Y1808D01*
X126428Y2340D01*
X127071Y2929D01*
X127660Y3572D01*
X128192Y4264D01*
X128660Y5000D01*
X129063Y5774D01*
X129397Y6580D01*
X129659Y7412D01*
X129848Y8264D01*
X129962Y9128D01*
X130000Y10000D01*
X130000Y990000D01*
X129962Y990872D01*
X129848Y991736D01*
X129659Y992588D01*
X129397Y993420D01*
X129063Y994226D01*
X128660Y995000D01*
X128192Y995736D01*
X127660Y996428D01*
X127071Y997071D01*
X126428Y997660D01*
X125736Y998192D01*
X125000Y998660D01*
X124226Y999063D01*
X123420Y999397D01*
X122588Y999659D01*
X121736Y999848D01*
X120872Y999962D01*
X120000Y1000000D01*
X10000Y1000000D01*
X9128Y999962D01*
X8264Y999848D01*
X7412Y999659D01*
X6580Y999397D01*
X5774Y999063D01*
X5000Y998660D01*
X4264Y998192D01*
X3572Y997660D01*
X2929Y997071D01*
X2340Y996428D01*
X1808Y995736D01*
X1340Y995000D01*
X937Y994226D01*
X603Y993420D01*
X341Y992588D01*
X152Y991736D01*
X38Y990872D01*
X0Y990000D01*
X0Y10000D01*
M02*
