G04 EAGLE Gerber RS-274X export*
G75*
%MOMM*%
%FSLAX34Y34*%
%LPD*%
%INSilkscreen Top*%
%IPPOS*%
%AMOC8*
5,1,8,0,0,1.08239X$1,22.5*%
G01*
%ADD10C,0.076200*%
%ADD11C,0.127000*%
%ADD12C,0.200000*%


D10*
X35836Y68381D02*
X35914Y68383D01*
X35992Y68388D01*
X36069Y68398D01*
X36146Y68411D01*
X36222Y68427D01*
X36297Y68447D01*
X36371Y68471D01*
X36444Y68498D01*
X36516Y68529D01*
X36586Y68563D01*
X36655Y68600D01*
X36721Y68641D01*
X36786Y68685D01*
X36848Y68731D01*
X36908Y68781D01*
X36966Y68833D01*
X37021Y68888D01*
X37073Y68946D01*
X37123Y69006D01*
X37169Y69068D01*
X37213Y69133D01*
X37254Y69200D01*
X37291Y69268D01*
X37325Y69338D01*
X37356Y69410D01*
X37383Y69483D01*
X37407Y69557D01*
X37427Y69632D01*
X37443Y69708D01*
X37456Y69785D01*
X37466Y69862D01*
X37471Y69940D01*
X37473Y70018D01*
X35836Y68381D02*
X35722Y68383D01*
X35609Y68388D01*
X35495Y68398D01*
X35382Y68411D01*
X35270Y68428D01*
X35158Y68448D01*
X35047Y68472D01*
X34936Y68500D01*
X34827Y68531D01*
X34719Y68566D01*
X34612Y68605D01*
X34506Y68647D01*
X34402Y68692D01*
X34299Y68741D01*
X34198Y68794D01*
X34099Y68849D01*
X34001Y68908D01*
X33906Y68970D01*
X33813Y69035D01*
X33721Y69103D01*
X33633Y69174D01*
X33546Y69248D01*
X33462Y69325D01*
X33381Y69404D01*
X33585Y74110D02*
X33587Y74188D01*
X33592Y74266D01*
X33602Y74343D01*
X33615Y74420D01*
X33631Y74496D01*
X33651Y74571D01*
X33675Y74645D01*
X33702Y74718D01*
X33733Y74790D01*
X33767Y74860D01*
X33804Y74929D01*
X33845Y74995D01*
X33889Y75060D01*
X33935Y75122D01*
X33985Y75182D01*
X34037Y75240D01*
X34092Y75295D01*
X34150Y75347D01*
X34210Y75397D01*
X34272Y75443D01*
X34337Y75487D01*
X34404Y75528D01*
X34472Y75565D01*
X34542Y75599D01*
X34614Y75630D01*
X34687Y75657D01*
X34761Y75681D01*
X34836Y75701D01*
X34912Y75717D01*
X34989Y75730D01*
X35066Y75740D01*
X35144Y75745D01*
X35222Y75747D01*
X35332Y75745D01*
X35441Y75739D01*
X35551Y75729D01*
X35659Y75716D01*
X35768Y75698D01*
X35875Y75677D01*
X35982Y75651D01*
X36088Y75622D01*
X36193Y75590D01*
X36296Y75553D01*
X36398Y75513D01*
X36499Y75469D01*
X36598Y75421D01*
X36695Y75371D01*
X36790Y75316D01*
X36883Y75258D01*
X36974Y75197D01*
X37063Y75133D01*
X34404Y72677D02*
X34337Y72719D01*
X34272Y72763D01*
X34210Y72811D01*
X34150Y72861D01*
X34092Y72914D01*
X34037Y72970D01*
X33985Y73029D01*
X33935Y73089D01*
X33888Y73153D01*
X33845Y73218D01*
X33804Y73285D01*
X33767Y73354D01*
X33733Y73425D01*
X33702Y73497D01*
X33675Y73571D01*
X33651Y73645D01*
X33631Y73721D01*
X33615Y73798D01*
X33602Y73875D01*
X33592Y73953D01*
X33587Y74032D01*
X33585Y74110D01*
X36655Y71450D02*
X36721Y71408D01*
X36786Y71364D01*
X36848Y71317D01*
X36908Y71266D01*
X36966Y71213D01*
X37021Y71157D01*
X37074Y71099D01*
X37123Y71038D01*
X37170Y70975D01*
X37213Y70910D01*
X37254Y70843D01*
X37291Y70774D01*
X37325Y70703D01*
X37356Y70631D01*
X37383Y70557D01*
X37407Y70482D01*
X37427Y70407D01*
X37443Y70330D01*
X37456Y70253D01*
X37466Y70175D01*
X37471Y70096D01*
X37473Y70018D01*
X36655Y71450D02*
X34404Y72678D01*
X42138Y70018D02*
X42138Y75747D01*
X42139Y70018D02*
X42137Y69940D01*
X42132Y69862D01*
X42122Y69785D01*
X42109Y69708D01*
X42093Y69632D01*
X42073Y69557D01*
X42049Y69483D01*
X42022Y69410D01*
X41991Y69338D01*
X41957Y69268D01*
X41920Y69200D01*
X41879Y69133D01*
X41835Y69068D01*
X41789Y69006D01*
X41739Y68946D01*
X41687Y68888D01*
X41632Y68833D01*
X41574Y68781D01*
X41514Y68731D01*
X41452Y68685D01*
X41387Y68641D01*
X41321Y68600D01*
X41252Y68563D01*
X41182Y68529D01*
X41110Y68498D01*
X41037Y68471D01*
X40963Y68447D01*
X40888Y68427D01*
X40812Y68411D01*
X40735Y68398D01*
X40658Y68388D01*
X40580Y68383D01*
X40502Y68381D01*
X39683Y68381D01*
X45573Y74110D02*
X47619Y75747D01*
X47619Y68381D01*
X45573Y68381D02*
X49665Y68381D01*
X52888Y74110D02*
X54934Y75747D01*
X54934Y68381D01*
X52888Y68381D02*
X56980Y68381D01*
X60203Y74110D02*
X62250Y75747D01*
X62250Y68381D01*
X64296Y68381D02*
X60203Y68381D01*
X67519Y70427D02*
X67521Y70516D01*
X67527Y70605D01*
X67537Y70694D01*
X67550Y70782D01*
X67567Y70870D01*
X67589Y70957D01*
X67614Y71042D01*
X67642Y71127D01*
X67675Y71210D01*
X67711Y71292D01*
X67750Y71372D01*
X67793Y71450D01*
X67839Y71526D01*
X67889Y71601D01*
X67942Y71673D01*
X67998Y71742D01*
X68057Y71809D01*
X68118Y71874D01*
X68183Y71935D01*
X68250Y71994D01*
X68319Y72050D01*
X68391Y72103D01*
X68466Y72153D01*
X68542Y72199D01*
X68620Y72242D01*
X68700Y72281D01*
X68782Y72317D01*
X68865Y72350D01*
X68950Y72378D01*
X69035Y72403D01*
X69122Y72425D01*
X69210Y72442D01*
X69298Y72455D01*
X69387Y72465D01*
X69476Y72471D01*
X69565Y72473D01*
X69654Y72471D01*
X69743Y72465D01*
X69832Y72455D01*
X69920Y72442D01*
X70008Y72425D01*
X70095Y72403D01*
X70180Y72378D01*
X70265Y72350D01*
X70348Y72317D01*
X70430Y72281D01*
X70510Y72242D01*
X70588Y72199D01*
X70664Y72153D01*
X70739Y72103D01*
X70811Y72050D01*
X70880Y71994D01*
X70947Y71935D01*
X71012Y71874D01*
X71073Y71809D01*
X71132Y71742D01*
X71188Y71673D01*
X71241Y71601D01*
X71291Y71526D01*
X71337Y71450D01*
X71380Y71372D01*
X71419Y71292D01*
X71455Y71210D01*
X71488Y71127D01*
X71516Y71042D01*
X71541Y70957D01*
X71563Y70870D01*
X71580Y70782D01*
X71593Y70694D01*
X71603Y70605D01*
X71609Y70516D01*
X71611Y70427D01*
X71609Y70338D01*
X71603Y70249D01*
X71593Y70160D01*
X71580Y70072D01*
X71563Y69984D01*
X71541Y69897D01*
X71516Y69812D01*
X71488Y69727D01*
X71455Y69644D01*
X71419Y69562D01*
X71380Y69482D01*
X71337Y69404D01*
X71291Y69328D01*
X71241Y69253D01*
X71188Y69181D01*
X71132Y69112D01*
X71073Y69045D01*
X71012Y68980D01*
X70947Y68919D01*
X70880Y68860D01*
X70811Y68804D01*
X70739Y68751D01*
X70664Y68701D01*
X70588Y68655D01*
X70510Y68612D01*
X70430Y68573D01*
X70348Y68537D01*
X70265Y68504D01*
X70180Y68476D01*
X70095Y68451D01*
X70008Y68429D01*
X69920Y68412D01*
X69832Y68399D01*
X69743Y68389D01*
X69654Y68383D01*
X69565Y68381D01*
X69476Y68383D01*
X69387Y68389D01*
X69298Y68399D01*
X69210Y68412D01*
X69122Y68429D01*
X69035Y68451D01*
X68950Y68476D01*
X68865Y68504D01*
X68782Y68537D01*
X68700Y68573D01*
X68620Y68612D01*
X68542Y68655D01*
X68466Y68701D01*
X68391Y68751D01*
X68319Y68804D01*
X68250Y68860D01*
X68183Y68919D01*
X68118Y68980D01*
X68057Y69045D01*
X67998Y69112D01*
X67942Y69181D01*
X67889Y69253D01*
X67839Y69328D01*
X67793Y69404D01*
X67750Y69482D01*
X67711Y69562D01*
X67675Y69644D01*
X67642Y69727D01*
X67614Y69812D01*
X67589Y69897D01*
X67567Y69984D01*
X67550Y70072D01*
X67537Y70160D01*
X67527Y70249D01*
X67521Y70338D01*
X67519Y70427D01*
X67928Y74110D02*
X67930Y74189D01*
X67936Y74268D01*
X67945Y74347D01*
X67958Y74425D01*
X67976Y74502D01*
X67996Y74578D01*
X68021Y74653D01*
X68049Y74727D01*
X68080Y74800D01*
X68116Y74871D01*
X68154Y74940D01*
X68196Y75007D01*
X68241Y75072D01*
X68289Y75135D01*
X68340Y75196D01*
X68394Y75253D01*
X68450Y75309D01*
X68509Y75361D01*
X68571Y75411D01*
X68635Y75457D01*
X68701Y75501D01*
X68769Y75541D01*
X68839Y75577D01*
X68911Y75611D01*
X68985Y75641D01*
X69059Y75667D01*
X69135Y75690D01*
X69212Y75708D01*
X69289Y75724D01*
X69368Y75735D01*
X69446Y75743D01*
X69525Y75747D01*
X69605Y75747D01*
X69684Y75743D01*
X69762Y75735D01*
X69841Y75724D01*
X69918Y75708D01*
X69995Y75690D01*
X70071Y75667D01*
X70145Y75641D01*
X70219Y75611D01*
X70291Y75577D01*
X70361Y75541D01*
X70429Y75501D01*
X70495Y75457D01*
X70559Y75411D01*
X70621Y75361D01*
X70680Y75309D01*
X70736Y75253D01*
X70790Y75196D01*
X70841Y75135D01*
X70889Y75072D01*
X70934Y75007D01*
X70976Y74940D01*
X71014Y74871D01*
X71050Y74800D01*
X71081Y74727D01*
X71109Y74653D01*
X71134Y74578D01*
X71154Y74502D01*
X71172Y74425D01*
X71185Y74347D01*
X71194Y74268D01*
X71200Y74189D01*
X71202Y74110D01*
X71200Y74031D01*
X71194Y73952D01*
X71185Y73873D01*
X71172Y73795D01*
X71154Y73718D01*
X71134Y73642D01*
X71109Y73567D01*
X71081Y73493D01*
X71050Y73420D01*
X71014Y73349D01*
X70976Y73280D01*
X70934Y73213D01*
X70889Y73148D01*
X70841Y73085D01*
X70790Y73024D01*
X70736Y72967D01*
X70680Y72911D01*
X70621Y72859D01*
X70559Y72809D01*
X70495Y72763D01*
X70429Y72719D01*
X70361Y72679D01*
X70291Y72643D01*
X70219Y72609D01*
X70145Y72579D01*
X70071Y72553D01*
X69995Y72530D01*
X69918Y72512D01*
X69841Y72496D01*
X69762Y72485D01*
X69684Y72477D01*
X69605Y72473D01*
X69525Y72473D01*
X69446Y72477D01*
X69368Y72485D01*
X69289Y72496D01*
X69212Y72512D01*
X69135Y72530D01*
X69059Y72553D01*
X68985Y72579D01*
X68911Y72609D01*
X68839Y72643D01*
X68769Y72679D01*
X68701Y72719D01*
X68635Y72763D01*
X68571Y72809D01*
X68509Y72859D01*
X68450Y72911D01*
X68394Y72967D01*
X68340Y73024D01*
X68289Y73085D01*
X68241Y73148D01*
X68196Y73213D01*
X68154Y73280D01*
X68116Y73349D01*
X68080Y73420D01*
X68049Y73493D01*
X68021Y73567D01*
X67996Y73642D01*
X67976Y73718D01*
X67958Y73795D01*
X67945Y73873D01*
X67936Y73952D01*
X67930Y74031D01*
X67928Y74110D01*
X74834Y74929D02*
X74834Y75747D01*
X78926Y75747D01*
X76880Y68381D01*
X83786Y71655D02*
X86241Y71655D01*
X83786Y71655D02*
X83708Y71657D01*
X83630Y71662D01*
X83553Y71672D01*
X83476Y71685D01*
X83400Y71701D01*
X83325Y71721D01*
X83251Y71745D01*
X83178Y71772D01*
X83106Y71803D01*
X83036Y71837D01*
X82967Y71874D01*
X82901Y71915D01*
X82836Y71959D01*
X82774Y72005D01*
X82714Y72055D01*
X82656Y72107D01*
X82601Y72162D01*
X82549Y72220D01*
X82499Y72280D01*
X82453Y72342D01*
X82409Y72407D01*
X82368Y72474D01*
X82331Y72542D01*
X82297Y72612D01*
X82266Y72684D01*
X82239Y72757D01*
X82215Y72831D01*
X82195Y72906D01*
X82179Y72982D01*
X82166Y73059D01*
X82156Y73136D01*
X82151Y73214D01*
X82149Y73292D01*
X82149Y73701D01*
X82151Y73790D01*
X82157Y73879D01*
X82167Y73968D01*
X82180Y74056D01*
X82197Y74144D01*
X82219Y74231D01*
X82244Y74316D01*
X82272Y74401D01*
X82305Y74484D01*
X82341Y74566D01*
X82380Y74646D01*
X82423Y74724D01*
X82469Y74800D01*
X82519Y74875D01*
X82572Y74947D01*
X82628Y75016D01*
X82687Y75083D01*
X82748Y75148D01*
X82813Y75209D01*
X82880Y75268D01*
X82949Y75324D01*
X83021Y75377D01*
X83096Y75427D01*
X83172Y75473D01*
X83250Y75516D01*
X83330Y75555D01*
X83412Y75591D01*
X83495Y75624D01*
X83580Y75652D01*
X83665Y75677D01*
X83752Y75699D01*
X83840Y75716D01*
X83928Y75729D01*
X84017Y75739D01*
X84106Y75745D01*
X84195Y75747D01*
X84284Y75745D01*
X84373Y75739D01*
X84462Y75729D01*
X84550Y75716D01*
X84638Y75699D01*
X84725Y75677D01*
X84810Y75652D01*
X84895Y75624D01*
X84978Y75591D01*
X85060Y75555D01*
X85140Y75516D01*
X85218Y75473D01*
X85294Y75427D01*
X85369Y75377D01*
X85441Y75324D01*
X85510Y75268D01*
X85577Y75209D01*
X85642Y75148D01*
X85703Y75083D01*
X85762Y75016D01*
X85818Y74947D01*
X85871Y74875D01*
X85921Y74800D01*
X85967Y74724D01*
X86010Y74646D01*
X86049Y74566D01*
X86085Y74484D01*
X86118Y74401D01*
X86146Y74316D01*
X86171Y74231D01*
X86193Y74144D01*
X86210Y74056D01*
X86223Y73968D01*
X86233Y73879D01*
X86239Y73790D01*
X86241Y73701D01*
X86241Y71655D01*
X86242Y71655D02*
X86240Y71543D01*
X86234Y71432D01*
X86225Y71320D01*
X86212Y71209D01*
X86194Y71099D01*
X86174Y70989D01*
X86149Y70880D01*
X86121Y70772D01*
X86089Y70665D01*
X86053Y70559D01*
X86014Y70454D01*
X85971Y70351D01*
X85925Y70249D01*
X85875Y70149D01*
X85822Y70050D01*
X85765Y69954D01*
X85706Y69859D01*
X85643Y69767D01*
X85577Y69677D01*
X85508Y69589D01*
X85436Y69503D01*
X85361Y69420D01*
X85283Y69340D01*
X85203Y69262D01*
X85120Y69187D01*
X85034Y69115D01*
X84946Y69046D01*
X84856Y68980D01*
X84764Y68917D01*
X84669Y68858D01*
X84573Y68801D01*
X84474Y68748D01*
X84374Y68698D01*
X84272Y68652D01*
X84169Y68609D01*
X84064Y68570D01*
X83958Y68534D01*
X83851Y68502D01*
X83743Y68474D01*
X83634Y68449D01*
X83524Y68429D01*
X83414Y68411D01*
X83303Y68398D01*
X83191Y68389D01*
X83080Y68383D01*
X82968Y68381D01*
X13119Y248381D02*
X5753Y248381D01*
X5753Y250427D01*
X5755Y250516D01*
X5761Y250605D01*
X5771Y250694D01*
X5784Y250782D01*
X5801Y250870D01*
X5823Y250957D01*
X5848Y251042D01*
X5876Y251127D01*
X5909Y251210D01*
X5945Y251292D01*
X5984Y251372D01*
X6027Y251450D01*
X6073Y251526D01*
X6123Y251601D01*
X6176Y251673D01*
X6232Y251742D01*
X6291Y251809D01*
X6352Y251874D01*
X6417Y251935D01*
X6484Y251994D01*
X6553Y252050D01*
X6625Y252103D01*
X6700Y252153D01*
X6776Y252199D01*
X6854Y252242D01*
X6934Y252281D01*
X7016Y252317D01*
X7099Y252350D01*
X7184Y252378D01*
X7269Y252403D01*
X7356Y252425D01*
X7444Y252442D01*
X7532Y252455D01*
X7621Y252465D01*
X7710Y252471D01*
X7799Y252473D01*
X7888Y252471D01*
X7977Y252465D01*
X8066Y252455D01*
X8154Y252442D01*
X8242Y252425D01*
X8329Y252403D01*
X8414Y252378D01*
X8499Y252350D01*
X8582Y252317D01*
X8664Y252281D01*
X8744Y252242D01*
X8822Y252199D01*
X8898Y252153D01*
X8973Y252103D01*
X9045Y252050D01*
X9114Y251994D01*
X9181Y251935D01*
X9246Y251874D01*
X9307Y251809D01*
X9366Y251742D01*
X9422Y251673D01*
X9475Y251601D01*
X9525Y251526D01*
X9571Y251450D01*
X9614Y251372D01*
X9653Y251292D01*
X9689Y251210D01*
X9722Y251127D01*
X9750Y251042D01*
X9775Y250957D01*
X9797Y250870D01*
X9814Y250782D01*
X9827Y250694D01*
X9837Y250605D01*
X9843Y250516D01*
X9845Y250427D01*
X9845Y248381D01*
X8208Y255546D02*
X13119Y255546D01*
X8208Y255546D02*
X8208Y258002D01*
X9027Y258002D01*
X9845Y260377D02*
X11482Y260377D01*
X9845Y260377D02*
X9766Y260379D01*
X9687Y260385D01*
X9608Y260394D01*
X9530Y260407D01*
X9453Y260425D01*
X9377Y260445D01*
X9302Y260470D01*
X9228Y260498D01*
X9155Y260529D01*
X9084Y260565D01*
X9015Y260603D01*
X8948Y260645D01*
X8883Y260690D01*
X8820Y260738D01*
X8759Y260789D01*
X8702Y260843D01*
X8646Y260899D01*
X8594Y260958D01*
X8544Y261020D01*
X8498Y261084D01*
X8454Y261150D01*
X8414Y261218D01*
X8378Y261288D01*
X8344Y261360D01*
X8314Y261434D01*
X8288Y261508D01*
X8265Y261584D01*
X8247Y261661D01*
X8231Y261738D01*
X8220Y261817D01*
X8212Y261895D01*
X8208Y261974D01*
X8208Y262054D01*
X8212Y262133D01*
X8220Y262211D01*
X8231Y262290D01*
X8247Y262367D01*
X8265Y262444D01*
X8288Y262520D01*
X8314Y262594D01*
X8344Y262668D01*
X8378Y262740D01*
X8414Y262810D01*
X8454Y262878D01*
X8498Y262944D01*
X8544Y263008D01*
X8594Y263070D01*
X8646Y263129D01*
X8702Y263185D01*
X8759Y263239D01*
X8820Y263290D01*
X8883Y263338D01*
X8948Y263383D01*
X9015Y263425D01*
X9084Y263463D01*
X9155Y263499D01*
X9228Y263530D01*
X9302Y263558D01*
X9377Y263583D01*
X9453Y263603D01*
X9530Y263621D01*
X9608Y263634D01*
X9687Y263643D01*
X9766Y263649D01*
X9845Y263651D01*
X11482Y263651D01*
X11561Y263649D01*
X11640Y263643D01*
X11719Y263634D01*
X11797Y263621D01*
X11874Y263603D01*
X11950Y263583D01*
X12025Y263558D01*
X12099Y263530D01*
X12172Y263499D01*
X12243Y263463D01*
X12312Y263425D01*
X12379Y263383D01*
X12444Y263338D01*
X12507Y263290D01*
X12568Y263239D01*
X12625Y263185D01*
X12681Y263129D01*
X12733Y263070D01*
X12783Y263008D01*
X12829Y262944D01*
X12873Y262878D01*
X12913Y262810D01*
X12949Y262740D01*
X12983Y262668D01*
X13013Y262594D01*
X13039Y262520D01*
X13062Y262444D01*
X13080Y262367D01*
X13096Y262290D01*
X13107Y262211D01*
X13115Y262133D01*
X13119Y262054D01*
X13119Y261974D01*
X13115Y261895D01*
X13107Y261817D01*
X13096Y261738D01*
X13080Y261661D01*
X13062Y261584D01*
X13039Y261508D01*
X13013Y261434D01*
X12983Y261360D01*
X12949Y261288D01*
X12913Y261218D01*
X12873Y261150D01*
X12829Y261084D01*
X12783Y261020D01*
X12733Y260958D01*
X12681Y260899D01*
X12625Y260843D01*
X12568Y260789D01*
X12507Y260738D01*
X12444Y260690D01*
X12379Y260645D01*
X12312Y260603D01*
X12243Y260565D01*
X12172Y260529D01*
X12099Y260498D01*
X12025Y260470D01*
X11950Y260445D01*
X11874Y260425D01*
X11797Y260407D01*
X11719Y260394D01*
X11640Y260385D01*
X11561Y260379D01*
X11482Y260377D01*
X14347Y266509D02*
X8208Y266509D01*
X14347Y266510D02*
X14416Y266508D01*
X14484Y266502D01*
X14553Y266493D01*
X14620Y266479D01*
X14687Y266462D01*
X14753Y266441D01*
X14817Y266417D01*
X14880Y266388D01*
X14941Y266357D01*
X15000Y266322D01*
X15058Y266284D01*
X15113Y266242D01*
X15165Y266198D01*
X15215Y266150D01*
X15263Y266100D01*
X15307Y266048D01*
X15349Y265993D01*
X15387Y265935D01*
X15422Y265876D01*
X15453Y265815D01*
X15482Y265752D01*
X15506Y265688D01*
X15527Y265622D01*
X15544Y265555D01*
X15558Y265488D01*
X15567Y265419D01*
X15573Y265351D01*
X15575Y265282D01*
X15574Y265282D02*
X15574Y264872D01*
X6162Y266305D02*
X5753Y266305D01*
X5753Y266714D01*
X6162Y266714D01*
X6162Y266305D01*
X13119Y270870D02*
X13119Y272916D01*
X13119Y270870D02*
X13117Y270801D01*
X13111Y270733D01*
X13102Y270664D01*
X13088Y270597D01*
X13071Y270530D01*
X13050Y270464D01*
X13026Y270400D01*
X12997Y270337D01*
X12966Y270276D01*
X12931Y270217D01*
X12893Y270159D01*
X12851Y270104D01*
X12807Y270052D01*
X12759Y270002D01*
X12709Y269954D01*
X12657Y269910D01*
X12602Y269869D01*
X12544Y269830D01*
X12485Y269795D01*
X12424Y269764D01*
X12361Y269735D01*
X12297Y269711D01*
X12231Y269690D01*
X12164Y269673D01*
X12097Y269659D01*
X12029Y269650D01*
X11960Y269644D01*
X11891Y269642D01*
X11891Y269643D02*
X9845Y269643D01*
X9766Y269645D01*
X9687Y269651D01*
X9608Y269660D01*
X9530Y269673D01*
X9453Y269691D01*
X9377Y269711D01*
X9302Y269736D01*
X9228Y269764D01*
X9155Y269795D01*
X9084Y269831D01*
X9015Y269869D01*
X8948Y269911D01*
X8883Y269956D01*
X8820Y270004D01*
X8759Y270055D01*
X8702Y270109D01*
X8646Y270165D01*
X8594Y270224D01*
X8544Y270286D01*
X8498Y270350D01*
X8454Y270416D01*
X8414Y270484D01*
X8378Y270554D01*
X8344Y270626D01*
X8314Y270700D01*
X8288Y270774D01*
X8265Y270850D01*
X8247Y270927D01*
X8231Y271004D01*
X8220Y271083D01*
X8212Y271161D01*
X8208Y271240D01*
X8208Y271320D01*
X8212Y271399D01*
X8220Y271477D01*
X8231Y271556D01*
X8247Y271633D01*
X8265Y271710D01*
X8288Y271786D01*
X8314Y271860D01*
X8344Y271934D01*
X8378Y272006D01*
X8414Y272076D01*
X8454Y272144D01*
X8498Y272210D01*
X8544Y272274D01*
X8594Y272336D01*
X8646Y272395D01*
X8702Y272451D01*
X8759Y272505D01*
X8820Y272556D01*
X8883Y272604D01*
X8948Y272649D01*
X9015Y272691D01*
X9084Y272729D01*
X9155Y272765D01*
X9228Y272796D01*
X9302Y272824D01*
X9377Y272849D01*
X9453Y272869D01*
X9530Y272887D01*
X9608Y272900D01*
X9687Y272909D01*
X9766Y272915D01*
X9845Y272917D01*
X9845Y272916D02*
X10664Y272916D01*
X10664Y269643D01*
X13119Y277219D02*
X13119Y278856D01*
X13119Y277219D02*
X13117Y277150D01*
X13111Y277082D01*
X13102Y277013D01*
X13088Y276946D01*
X13071Y276879D01*
X13050Y276813D01*
X13026Y276749D01*
X12997Y276686D01*
X12966Y276625D01*
X12931Y276566D01*
X12893Y276508D01*
X12851Y276453D01*
X12807Y276401D01*
X12759Y276351D01*
X12709Y276303D01*
X12657Y276259D01*
X12602Y276218D01*
X12544Y276179D01*
X12485Y276144D01*
X12424Y276113D01*
X12361Y276084D01*
X12297Y276060D01*
X12231Y276039D01*
X12164Y276022D01*
X12097Y276008D01*
X12029Y275999D01*
X11960Y275993D01*
X11891Y275991D01*
X11891Y275992D02*
X9436Y275992D01*
X9436Y275991D02*
X9367Y275993D01*
X9299Y275999D01*
X9230Y276008D01*
X9163Y276022D01*
X9096Y276039D01*
X9030Y276060D01*
X8966Y276084D01*
X8903Y276113D01*
X8842Y276144D01*
X8783Y276179D01*
X8725Y276217D01*
X8670Y276259D01*
X8618Y276303D01*
X8568Y276351D01*
X8520Y276401D01*
X8476Y276453D01*
X8434Y276508D01*
X8396Y276566D01*
X8361Y276625D01*
X8330Y276686D01*
X8301Y276749D01*
X8277Y276813D01*
X8256Y276879D01*
X8239Y276946D01*
X8225Y277013D01*
X8216Y277082D01*
X8210Y277150D01*
X8208Y277219D01*
X8208Y278856D01*
X8208Y280960D02*
X8208Y283416D01*
X5753Y281779D02*
X11891Y281779D01*
X11960Y281781D01*
X12028Y281787D01*
X12097Y281796D01*
X12164Y281810D01*
X12231Y281827D01*
X12297Y281848D01*
X12361Y281872D01*
X12424Y281901D01*
X12485Y281932D01*
X12544Y281967D01*
X12602Y282005D01*
X12657Y282047D01*
X12709Y282091D01*
X12759Y282139D01*
X12807Y282189D01*
X12851Y282241D01*
X12893Y282296D01*
X12931Y282354D01*
X12966Y282413D01*
X12997Y282474D01*
X13026Y282537D01*
X13050Y282601D01*
X13071Y282667D01*
X13088Y282734D01*
X13102Y282801D01*
X13111Y282870D01*
X13117Y282938D01*
X13119Y283007D01*
X13119Y283416D01*
X13119Y290447D02*
X5753Y290447D01*
X13119Y294540D01*
X5753Y294540D01*
X9845Y297928D02*
X11482Y297928D01*
X9845Y297928D02*
X9766Y297930D01*
X9687Y297936D01*
X9608Y297945D01*
X9530Y297958D01*
X9453Y297976D01*
X9377Y297996D01*
X9302Y298021D01*
X9228Y298049D01*
X9155Y298080D01*
X9084Y298116D01*
X9015Y298154D01*
X8948Y298196D01*
X8883Y298241D01*
X8820Y298289D01*
X8759Y298340D01*
X8702Y298394D01*
X8646Y298450D01*
X8594Y298509D01*
X8544Y298571D01*
X8498Y298635D01*
X8454Y298701D01*
X8414Y298769D01*
X8378Y298839D01*
X8344Y298911D01*
X8314Y298985D01*
X8288Y299059D01*
X8265Y299135D01*
X8247Y299212D01*
X8231Y299289D01*
X8220Y299368D01*
X8212Y299446D01*
X8208Y299525D01*
X8208Y299605D01*
X8212Y299684D01*
X8220Y299762D01*
X8231Y299841D01*
X8247Y299918D01*
X8265Y299995D01*
X8288Y300071D01*
X8314Y300145D01*
X8344Y300219D01*
X8378Y300291D01*
X8414Y300361D01*
X8454Y300429D01*
X8498Y300495D01*
X8544Y300559D01*
X8594Y300621D01*
X8646Y300680D01*
X8702Y300736D01*
X8759Y300790D01*
X8820Y300841D01*
X8883Y300889D01*
X8948Y300934D01*
X9015Y300976D01*
X9084Y301014D01*
X9155Y301050D01*
X9228Y301081D01*
X9302Y301109D01*
X9377Y301134D01*
X9453Y301154D01*
X9530Y301172D01*
X9608Y301185D01*
X9687Y301194D01*
X9766Y301200D01*
X9845Y301202D01*
X11482Y301202D01*
X11561Y301200D01*
X11640Y301194D01*
X11719Y301185D01*
X11797Y301172D01*
X11874Y301154D01*
X11950Y301134D01*
X12025Y301109D01*
X12099Y301081D01*
X12172Y301050D01*
X12243Y301014D01*
X12312Y300976D01*
X12379Y300934D01*
X12444Y300889D01*
X12507Y300841D01*
X12568Y300790D01*
X12625Y300736D01*
X12681Y300680D01*
X12733Y300621D01*
X12783Y300559D01*
X12829Y300495D01*
X12873Y300429D01*
X12913Y300361D01*
X12949Y300291D01*
X12983Y300219D01*
X13013Y300145D01*
X13039Y300071D01*
X13062Y299995D01*
X13080Y299918D01*
X13096Y299841D01*
X13107Y299762D01*
X13115Y299684D01*
X13119Y299605D01*
X13119Y299525D01*
X13115Y299446D01*
X13107Y299368D01*
X13096Y299289D01*
X13080Y299212D01*
X13062Y299135D01*
X13039Y299059D01*
X13013Y298985D01*
X12983Y298911D01*
X12949Y298839D01*
X12913Y298769D01*
X12873Y298701D01*
X12829Y298635D01*
X12783Y298571D01*
X12733Y298509D01*
X12681Y298450D01*
X12625Y298394D01*
X12568Y298340D01*
X12507Y298289D01*
X12444Y298241D01*
X12379Y298196D01*
X12312Y298154D01*
X12243Y298116D01*
X12172Y298080D01*
X12099Y298049D01*
X12025Y298021D01*
X11950Y297996D01*
X11874Y297976D01*
X11797Y297958D01*
X11719Y297945D01*
X11640Y297936D01*
X11561Y297930D01*
X11482Y297928D01*
X13119Y304558D02*
X8208Y304558D01*
X8208Y307013D01*
X9027Y307013D01*
X8208Y308758D02*
X8208Y311213D01*
X5753Y309577D02*
X11891Y309577D01*
X11891Y309576D02*
X11960Y309578D01*
X12028Y309584D01*
X12097Y309593D01*
X12164Y309607D01*
X12231Y309624D01*
X12297Y309645D01*
X12361Y309669D01*
X12424Y309698D01*
X12485Y309729D01*
X12544Y309764D01*
X12602Y309802D01*
X12657Y309844D01*
X12709Y309888D01*
X12759Y309936D01*
X12807Y309986D01*
X12851Y310038D01*
X12893Y310093D01*
X12931Y310151D01*
X12966Y310210D01*
X12997Y310271D01*
X13026Y310334D01*
X13050Y310398D01*
X13071Y310464D01*
X13088Y310531D01*
X13102Y310598D01*
X13111Y310667D01*
X13117Y310735D01*
X13119Y310804D01*
X13119Y311213D01*
X13119Y314265D02*
X5753Y314265D01*
X8208Y314265D02*
X8208Y316311D01*
X8210Y316380D01*
X8216Y316448D01*
X8225Y316517D01*
X8239Y316584D01*
X8256Y316651D01*
X8277Y316717D01*
X8301Y316781D01*
X8330Y316844D01*
X8361Y316905D01*
X8396Y316964D01*
X8434Y317022D01*
X8476Y317077D01*
X8520Y317129D01*
X8568Y317179D01*
X8618Y317227D01*
X8670Y317271D01*
X8725Y317313D01*
X8783Y317351D01*
X8842Y317386D01*
X8903Y317417D01*
X8966Y317446D01*
X9030Y317470D01*
X9096Y317491D01*
X9163Y317508D01*
X9230Y317522D01*
X9299Y317531D01*
X9367Y317537D01*
X9436Y317539D01*
X13119Y317539D01*
X13119Y323139D02*
X13117Y323217D01*
X13112Y323295D01*
X13102Y323372D01*
X13089Y323449D01*
X13073Y323525D01*
X13053Y323600D01*
X13029Y323674D01*
X13002Y323747D01*
X12971Y323819D01*
X12937Y323889D01*
X12900Y323958D01*
X12859Y324024D01*
X12815Y324089D01*
X12769Y324151D01*
X12719Y324211D01*
X12667Y324269D01*
X12612Y324324D01*
X12554Y324376D01*
X12494Y324426D01*
X12432Y324472D01*
X12367Y324516D01*
X12301Y324557D01*
X12232Y324594D01*
X12162Y324628D01*
X12090Y324659D01*
X12017Y324686D01*
X11943Y324710D01*
X11868Y324730D01*
X11792Y324746D01*
X11715Y324759D01*
X11638Y324769D01*
X11560Y324774D01*
X11482Y324776D01*
X13119Y323139D02*
X13117Y323025D01*
X13112Y322912D01*
X13102Y322798D01*
X13089Y322685D01*
X13072Y322573D01*
X13052Y322461D01*
X13028Y322350D01*
X13000Y322239D01*
X12969Y322130D01*
X12934Y322022D01*
X12895Y321915D01*
X12853Y321809D01*
X12808Y321705D01*
X12759Y321602D01*
X12706Y321501D01*
X12651Y321402D01*
X12592Y321304D01*
X12530Y321209D01*
X12465Y321116D01*
X12397Y321024D01*
X12326Y320936D01*
X12252Y320849D01*
X12175Y320765D01*
X12096Y320684D01*
X7390Y320888D02*
X7312Y320890D01*
X7234Y320895D01*
X7157Y320905D01*
X7080Y320918D01*
X7004Y320934D01*
X6929Y320954D01*
X6855Y320978D01*
X6782Y321005D01*
X6710Y321036D01*
X6640Y321070D01*
X6571Y321107D01*
X6505Y321148D01*
X6440Y321192D01*
X6378Y321238D01*
X6318Y321288D01*
X6260Y321340D01*
X6205Y321395D01*
X6153Y321453D01*
X6103Y321513D01*
X6057Y321575D01*
X6013Y321640D01*
X5972Y321707D01*
X5935Y321775D01*
X5901Y321845D01*
X5870Y321917D01*
X5843Y321990D01*
X5819Y322064D01*
X5799Y322139D01*
X5783Y322215D01*
X5770Y322292D01*
X5760Y322369D01*
X5755Y322447D01*
X5753Y322525D01*
X5755Y322635D01*
X5761Y322744D01*
X5771Y322854D01*
X5784Y322962D01*
X5802Y323071D01*
X5823Y323178D01*
X5849Y323285D01*
X5878Y323391D01*
X5910Y323496D01*
X5947Y323599D01*
X5987Y323701D01*
X6031Y323802D01*
X6079Y323901D01*
X6129Y323998D01*
X6184Y324093D01*
X6242Y324186D01*
X6303Y324277D01*
X6367Y324366D01*
X8822Y321706D02*
X8780Y321640D01*
X8736Y321575D01*
X8688Y321513D01*
X8638Y321453D01*
X8585Y321395D01*
X8529Y321340D01*
X8471Y321287D01*
X8410Y321238D01*
X8347Y321191D01*
X8282Y321147D01*
X8215Y321107D01*
X8146Y321070D01*
X8075Y321036D01*
X8003Y321005D01*
X7929Y320978D01*
X7854Y320954D01*
X7779Y320934D01*
X7702Y320918D01*
X7625Y320905D01*
X7547Y320895D01*
X7468Y320890D01*
X7390Y320888D01*
X10049Y323957D02*
X10091Y324024D01*
X10135Y324089D01*
X10183Y324151D01*
X10233Y324211D01*
X10286Y324269D01*
X10342Y324324D01*
X10401Y324376D01*
X10461Y324426D01*
X10525Y324473D01*
X10590Y324516D01*
X10657Y324557D01*
X10726Y324594D01*
X10797Y324628D01*
X10869Y324659D01*
X10943Y324686D01*
X11017Y324710D01*
X11093Y324730D01*
X11170Y324746D01*
X11247Y324759D01*
X11325Y324769D01*
X11404Y324774D01*
X11482Y324776D01*
X10050Y323957D02*
X8822Y321706D01*
X8208Y327046D02*
X8208Y329501D01*
X5753Y327864D02*
X11891Y327864D01*
X11960Y327866D01*
X12028Y327872D01*
X12097Y327881D01*
X12164Y327895D01*
X12231Y327912D01*
X12297Y327933D01*
X12361Y327957D01*
X12424Y327986D01*
X12485Y328017D01*
X12544Y328052D01*
X12602Y328090D01*
X12657Y328132D01*
X12709Y328176D01*
X12759Y328224D01*
X12807Y328274D01*
X12851Y328326D01*
X12893Y328381D01*
X12931Y328439D01*
X12966Y328498D01*
X12997Y328559D01*
X13026Y328622D01*
X13050Y328686D01*
X13071Y328752D01*
X13088Y328819D01*
X13102Y328886D01*
X13111Y328955D01*
X13117Y329023D01*
X13119Y329092D01*
X13119Y329501D01*
X10254Y333701D02*
X10254Y335542D01*
X10255Y333701D02*
X10257Y333626D01*
X10263Y333551D01*
X10273Y333477D01*
X10286Y333403D01*
X10304Y333330D01*
X10325Y333258D01*
X10350Y333188D01*
X10379Y333119D01*
X10411Y333051D01*
X10447Y332985D01*
X10486Y332921D01*
X10528Y332859D01*
X10574Y332800D01*
X10623Y332743D01*
X10674Y332688D01*
X10729Y332637D01*
X10786Y332588D01*
X10845Y332542D01*
X10907Y332500D01*
X10971Y332461D01*
X11037Y332425D01*
X11105Y332393D01*
X11174Y332364D01*
X11244Y332339D01*
X11316Y332318D01*
X11389Y332300D01*
X11463Y332287D01*
X11537Y332277D01*
X11612Y332271D01*
X11687Y332269D01*
X11762Y332271D01*
X11837Y332277D01*
X11911Y332287D01*
X11985Y332300D01*
X12058Y332318D01*
X12130Y332339D01*
X12200Y332364D01*
X12269Y332393D01*
X12337Y332425D01*
X12403Y332461D01*
X12467Y332500D01*
X12529Y332542D01*
X12588Y332588D01*
X12645Y332637D01*
X12700Y332688D01*
X12751Y332743D01*
X12800Y332800D01*
X12846Y332859D01*
X12888Y332921D01*
X12927Y332985D01*
X12963Y333051D01*
X12995Y333119D01*
X13024Y333188D01*
X13049Y333258D01*
X13070Y333330D01*
X13088Y333403D01*
X13101Y333477D01*
X13111Y333551D01*
X13117Y333626D01*
X13119Y333701D01*
X13119Y335542D01*
X9436Y335542D01*
X9367Y335540D01*
X9299Y335534D01*
X9230Y335525D01*
X9163Y335511D01*
X9096Y335494D01*
X9030Y335473D01*
X8966Y335449D01*
X8903Y335420D01*
X8842Y335389D01*
X8783Y335354D01*
X8725Y335316D01*
X8670Y335274D01*
X8618Y335230D01*
X8568Y335182D01*
X8520Y335132D01*
X8476Y335080D01*
X8435Y335025D01*
X8396Y334967D01*
X8361Y334908D01*
X8330Y334847D01*
X8301Y334784D01*
X8277Y334720D01*
X8256Y334654D01*
X8239Y334587D01*
X8225Y334520D01*
X8216Y334452D01*
X8210Y334383D01*
X8208Y334314D01*
X8208Y332678D01*
X8208Y339183D02*
X13119Y339183D01*
X8208Y339183D02*
X8208Y341638D01*
X9027Y341638D01*
X5753Y348316D02*
X13119Y348316D01*
X9845Y350771D02*
X5753Y348316D01*
X9845Y350771D02*
X5753Y353226D01*
X13119Y353226D01*
X13119Y356623D02*
X8208Y356623D01*
X6162Y356419D02*
X5753Y356419D01*
X5753Y356828D01*
X6162Y356828D01*
X6162Y356419D01*
X8208Y362649D02*
X13119Y359375D01*
X13119Y362649D02*
X8208Y359375D01*
X13119Y366699D02*
X13119Y368745D01*
X13119Y366699D02*
X13117Y366630D01*
X13111Y366562D01*
X13102Y366493D01*
X13088Y366426D01*
X13071Y366359D01*
X13050Y366293D01*
X13026Y366229D01*
X12997Y366166D01*
X12966Y366105D01*
X12931Y366046D01*
X12893Y365988D01*
X12851Y365933D01*
X12807Y365881D01*
X12759Y365831D01*
X12709Y365783D01*
X12657Y365739D01*
X12602Y365698D01*
X12544Y365659D01*
X12485Y365624D01*
X12424Y365593D01*
X12361Y365564D01*
X12297Y365540D01*
X12231Y365519D01*
X12164Y365502D01*
X12097Y365488D01*
X12029Y365479D01*
X11960Y365473D01*
X11891Y365471D01*
X9845Y365471D01*
X9766Y365473D01*
X9687Y365479D01*
X9608Y365488D01*
X9530Y365501D01*
X9453Y365519D01*
X9377Y365539D01*
X9302Y365564D01*
X9228Y365592D01*
X9155Y365623D01*
X9084Y365659D01*
X9015Y365697D01*
X8948Y365739D01*
X8883Y365784D01*
X8820Y365832D01*
X8759Y365883D01*
X8702Y365937D01*
X8646Y365993D01*
X8594Y366052D01*
X8544Y366114D01*
X8498Y366178D01*
X8454Y366244D01*
X8414Y366312D01*
X8378Y366382D01*
X8344Y366454D01*
X8314Y366528D01*
X8288Y366602D01*
X8265Y366678D01*
X8247Y366755D01*
X8231Y366832D01*
X8220Y366911D01*
X8212Y366989D01*
X8208Y367068D01*
X8208Y367148D01*
X8212Y367227D01*
X8220Y367305D01*
X8231Y367384D01*
X8247Y367461D01*
X8265Y367538D01*
X8288Y367614D01*
X8314Y367688D01*
X8344Y367762D01*
X8378Y367834D01*
X8414Y367904D01*
X8454Y367972D01*
X8498Y368038D01*
X8544Y368102D01*
X8594Y368164D01*
X8646Y368223D01*
X8702Y368279D01*
X8759Y368333D01*
X8820Y368384D01*
X8883Y368432D01*
X8948Y368477D01*
X9015Y368519D01*
X9084Y368557D01*
X9155Y368593D01*
X9228Y368624D01*
X9302Y368652D01*
X9377Y368677D01*
X9453Y368697D01*
X9530Y368715D01*
X9608Y368728D01*
X9687Y368737D01*
X9766Y368743D01*
X9845Y368745D01*
X10664Y368745D01*
X10664Y365471D01*
X13119Y375044D02*
X5753Y375044D01*
X13119Y375044D02*
X13119Y372998D01*
X13117Y372929D01*
X13111Y372861D01*
X13102Y372792D01*
X13088Y372725D01*
X13071Y372658D01*
X13050Y372592D01*
X13026Y372528D01*
X12997Y372465D01*
X12966Y372404D01*
X12931Y372345D01*
X12893Y372287D01*
X12851Y372232D01*
X12807Y372180D01*
X12759Y372130D01*
X12709Y372082D01*
X12657Y372038D01*
X12602Y371997D01*
X12544Y371958D01*
X12485Y371923D01*
X12424Y371892D01*
X12361Y371863D01*
X12297Y371839D01*
X12231Y371818D01*
X12164Y371801D01*
X12097Y371787D01*
X12029Y371778D01*
X11960Y371772D01*
X11891Y371770D01*
X9436Y371770D01*
X9367Y371772D01*
X9299Y371778D01*
X9230Y371787D01*
X9163Y371801D01*
X9096Y371818D01*
X9030Y371839D01*
X8966Y371863D01*
X8903Y371892D01*
X8842Y371923D01*
X8783Y371958D01*
X8725Y371996D01*
X8670Y372038D01*
X8618Y372082D01*
X8568Y372130D01*
X8520Y372180D01*
X8476Y372232D01*
X8434Y372287D01*
X8396Y372345D01*
X8361Y372404D01*
X8330Y372465D01*
X8301Y372528D01*
X8277Y372592D01*
X8256Y372658D01*
X8239Y372725D01*
X8225Y372792D01*
X8216Y372861D01*
X8210Y372929D01*
X8208Y372998D01*
X8208Y375044D01*
X5753Y382670D02*
X13119Y382670D01*
X5753Y382670D02*
X5753Y384716D01*
X5755Y384805D01*
X5761Y384894D01*
X5771Y384983D01*
X5784Y385071D01*
X5801Y385159D01*
X5823Y385246D01*
X5848Y385331D01*
X5876Y385416D01*
X5909Y385499D01*
X5945Y385581D01*
X5984Y385661D01*
X6027Y385739D01*
X6073Y385815D01*
X6123Y385890D01*
X6176Y385962D01*
X6232Y386031D01*
X6291Y386098D01*
X6352Y386163D01*
X6417Y386224D01*
X6484Y386283D01*
X6553Y386339D01*
X6625Y386392D01*
X6700Y386442D01*
X6776Y386488D01*
X6854Y386531D01*
X6934Y386570D01*
X7016Y386606D01*
X7099Y386639D01*
X7184Y386667D01*
X7269Y386692D01*
X7356Y386714D01*
X7444Y386731D01*
X7532Y386744D01*
X7621Y386754D01*
X7710Y386760D01*
X7799Y386762D01*
X7888Y386760D01*
X7977Y386754D01*
X8066Y386744D01*
X8154Y386731D01*
X8242Y386714D01*
X8329Y386692D01*
X8414Y386667D01*
X8499Y386639D01*
X8582Y386606D01*
X8664Y386570D01*
X8744Y386531D01*
X8822Y386488D01*
X8898Y386442D01*
X8973Y386392D01*
X9045Y386339D01*
X9114Y386283D01*
X9181Y386224D01*
X9246Y386163D01*
X9307Y386098D01*
X9366Y386031D01*
X9422Y385962D01*
X9475Y385890D01*
X9525Y385815D01*
X9571Y385739D01*
X9614Y385661D01*
X9653Y385581D01*
X9689Y385499D01*
X9722Y385416D01*
X9750Y385331D01*
X9775Y385246D01*
X9797Y385159D01*
X9814Y385071D01*
X9827Y384983D01*
X9837Y384894D01*
X9843Y384805D01*
X9845Y384716D01*
X9845Y382670D01*
X9845Y385125D02*
X13119Y386762D01*
X13119Y391083D02*
X13119Y393129D01*
X13119Y391083D02*
X13117Y391014D01*
X13111Y390946D01*
X13102Y390877D01*
X13088Y390810D01*
X13071Y390743D01*
X13050Y390677D01*
X13026Y390613D01*
X12997Y390550D01*
X12966Y390489D01*
X12931Y390430D01*
X12893Y390372D01*
X12851Y390317D01*
X12807Y390265D01*
X12759Y390215D01*
X12709Y390167D01*
X12657Y390123D01*
X12602Y390082D01*
X12544Y390043D01*
X12485Y390008D01*
X12424Y389977D01*
X12361Y389948D01*
X12297Y389924D01*
X12231Y389903D01*
X12164Y389886D01*
X12097Y389872D01*
X12029Y389863D01*
X11960Y389857D01*
X11891Y389855D01*
X9845Y389855D01*
X9766Y389857D01*
X9687Y389863D01*
X9608Y389872D01*
X9530Y389885D01*
X9453Y389903D01*
X9377Y389923D01*
X9302Y389948D01*
X9228Y389976D01*
X9155Y390007D01*
X9084Y390043D01*
X9015Y390081D01*
X8948Y390123D01*
X8883Y390168D01*
X8820Y390216D01*
X8759Y390267D01*
X8702Y390321D01*
X8646Y390377D01*
X8594Y390436D01*
X8544Y390498D01*
X8498Y390562D01*
X8454Y390628D01*
X8414Y390696D01*
X8378Y390766D01*
X8344Y390838D01*
X8314Y390912D01*
X8288Y390986D01*
X8265Y391062D01*
X8247Y391139D01*
X8231Y391216D01*
X8220Y391295D01*
X8212Y391373D01*
X8208Y391452D01*
X8208Y391532D01*
X8212Y391611D01*
X8220Y391689D01*
X8231Y391768D01*
X8247Y391845D01*
X8265Y391922D01*
X8288Y391998D01*
X8314Y392072D01*
X8344Y392146D01*
X8378Y392218D01*
X8414Y392288D01*
X8454Y392356D01*
X8498Y392422D01*
X8544Y392486D01*
X8594Y392548D01*
X8646Y392607D01*
X8702Y392663D01*
X8759Y392717D01*
X8820Y392768D01*
X8883Y392816D01*
X8948Y392861D01*
X9015Y392903D01*
X9084Y392941D01*
X9155Y392977D01*
X9228Y393008D01*
X9302Y393036D01*
X9377Y393061D01*
X9453Y393081D01*
X9530Y393099D01*
X9608Y393112D01*
X9687Y393121D01*
X9766Y393127D01*
X9845Y393129D01*
X10664Y393129D01*
X10664Y389855D01*
X10254Y397586D02*
X10254Y399428D01*
X10255Y397586D02*
X10257Y397511D01*
X10263Y397436D01*
X10273Y397362D01*
X10286Y397288D01*
X10304Y397215D01*
X10325Y397143D01*
X10350Y397073D01*
X10379Y397004D01*
X10411Y396936D01*
X10447Y396870D01*
X10486Y396806D01*
X10528Y396744D01*
X10574Y396685D01*
X10623Y396628D01*
X10674Y396573D01*
X10729Y396522D01*
X10786Y396473D01*
X10845Y396427D01*
X10907Y396385D01*
X10971Y396346D01*
X11037Y396310D01*
X11105Y396278D01*
X11174Y396249D01*
X11244Y396224D01*
X11316Y396203D01*
X11389Y396185D01*
X11463Y396172D01*
X11537Y396162D01*
X11612Y396156D01*
X11687Y396154D01*
X11762Y396156D01*
X11837Y396162D01*
X11911Y396172D01*
X11985Y396185D01*
X12058Y396203D01*
X12130Y396224D01*
X12200Y396249D01*
X12269Y396278D01*
X12337Y396310D01*
X12403Y396346D01*
X12467Y396385D01*
X12529Y396427D01*
X12588Y396473D01*
X12645Y396522D01*
X12700Y396573D01*
X12751Y396628D01*
X12800Y396685D01*
X12846Y396744D01*
X12888Y396806D01*
X12927Y396870D01*
X12963Y396936D01*
X12995Y397004D01*
X13024Y397073D01*
X13049Y397143D01*
X13070Y397215D01*
X13088Y397288D01*
X13101Y397362D01*
X13111Y397436D01*
X13117Y397511D01*
X13119Y397586D01*
X13119Y399428D01*
X9436Y399428D01*
X9367Y399426D01*
X9299Y399420D01*
X9230Y399411D01*
X9163Y399397D01*
X9096Y399380D01*
X9030Y399359D01*
X8966Y399335D01*
X8903Y399306D01*
X8842Y399275D01*
X8783Y399240D01*
X8725Y399202D01*
X8670Y399160D01*
X8618Y399116D01*
X8568Y399068D01*
X8520Y399018D01*
X8476Y398966D01*
X8435Y398911D01*
X8396Y398853D01*
X8361Y398794D01*
X8330Y398733D01*
X8301Y398670D01*
X8277Y398606D01*
X8256Y398540D01*
X8239Y398473D01*
X8225Y398406D01*
X8216Y398338D01*
X8210Y398269D01*
X8208Y398200D01*
X8208Y396563D01*
X5753Y402862D02*
X11891Y402862D01*
X11891Y402861D02*
X11960Y402863D01*
X12028Y402869D01*
X12097Y402878D01*
X12164Y402892D01*
X12231Y402909D01*
X12297Y402930D01*
X12361Y402954D01*
X12424Y402983D01*
X12485Y403014D01*
X12544Y403049D01*
X12602Y403087D01*
X12657Y403129D01*
X12709Y403173D01*
X12759Y403221D01*
X12807Y403271D01*
X12851Y403323D01*
X12893Y403378D01*
X12931Y403436D01*
X12966Y403495D01*
X12997Y403556D01*
X13026Y403619D01*
X13050Y403683D01*
X13071Y403749D01*
X13088Y403816D01*
X13102Y403883D01*
X13111Y403952D01*
X13117Y404020D01*
X13119Y404089D01*
X13119Y406610D02*
X8208Y406610D01*
X6162Y406406D02*
X5753Y406406D01*
X5753Y406815D01*
X6162Y406815D01*
X6162Y406406D01*
X8208Y408976D02*
X8208Y411431D01*
X5753Y409794D02*
X11891Y409794D01*
X11960Y409796D01*
X12028Y409802D01*
X12097Y409811D01*
X12164Y409825D01*
X12231Y409842D01*
X12297Y409863D01*
X12361Y409887D01*
X12424Y409916D01*
X12485Y409947D01*
X12544Y409982D01*
X12602Y410020D01*
X12657Y410062D01*
X12709Y410106D01*
X12759Y410154D01*
X12807Y410204D01*
X12851Y410256D01*
X12893Y410311D01*
X12931Y410369D01*
X12966Y410428D01*
X12997Y410489D01*
X13026Y410552D01*
X13050Y410616D01*
X13071Y410682D01*
X13088Y410749D01*
X13102Y410816D01*
X13111Y410885D01*
X13117Y410953D01*
X13119Y411022D01*
X13119Y411431D01*
X15574Y413995D02*
X15574Y414814D01*
X8208Y417269D01*
X8208Y413995D02*
X13119Y415632D01*
X13119Y425220D02*
X13119Y427266D01*
X13119Y425220D02*
X13117Y425151D01*
X13111Y425083D01*
X13102Y425014D01*
X13088Y424947D01*
X13071Y424880D01*
X13050Y424814D01*
X13026Y424750D01*
X12997Y424687D01*
X12966Y424626D01*
X12931Y424567D01*
X12893Y424509D01*
X12851Y424454D01*
X12807Y424402D01*
X12759Y424352D01*
X12709Y424304D01*
X12657Y424260D01*
X12602Y424219D01*
X12544Y424180D01*
X12485Y424145D01*
X12424Y424114D01*
X12361Y424085D01*
X12297Y424061D01*
X12231Y424040D01*
X12164Y424023D01*
X12097Y424009D01*
X12029Y424000D01*
X11960Y423994D01*
X11891Y423992D01*
X11891Y423993D02*
X9845Y423993D01*
X9766Y423995D01*
X9687Y424001D01*
X9608Y424010D01*
X9530Y424023D01*
X9453Y424041D01*
X9377Y424061D01*
X9302Y424086D01*
X9228Y424114D01*
X9155Y424145D01*
X9084Y424181D01*
X9015Y424219D01*
X8948Y424261D01*
X8883Y424306D01*
X8820Y424354D01*
X8759Y424405D01*
X8702Y424459D01*
X8646Y424515D01*
X8594Y424574D01*
X8544Y424636D01*
X8498Y424700D01*
X8454Y424766D01*
X8414Y424834D01*
X8378Y424904D01*
X8344Y424976D01*
X8314Y425050D01*
X8288Y425124D01*
X8265Y425200D01*
X8247Y425277D01*
X8231Y425354D01*
X8220Y425433D01*
X8212Y425511D01*
X8208Y425590D01*
X8208Y425670D01*
X8212Y425749D01*
X8220Y425827D01*
X8231Y425906D01*
X8247Y425983D01*
X8265Y426060D01*
X8288Y426136D01*
X8314Y426210D01*
X8344Y426284D01*
X8378Y426356D01*
X8414Y426426D01*
X8454Y426494D01*
X8498Y426560D01*
X8544Y426624D01*
X8594Y426686D01*
X8646Y426745D01*
X8702Y426801D01*
X8759Y426855D01*
X8820Y426906D01*
X8883Y426954D01*
X8948Y426999D01*
X9015Y427041D01*
X9084Y427079D01*
X9155Y427115D01*
X9228Y427146D01*
X9302Y427174D01*
X9377Y427199D01*
X9453Y427219D01*
X9530Y427237D01*
X9608Y427250D01*
X9687Y427259D01*
X9766Y427265D01*
X9845Y427267D01*
X9845Y427266D02*
X10664Y427266D01*
X10664Y423993D01*
X13119Y430089D02*
X8208Y433362D01*
X8208Y430089D02*
X13119Y433362D01*
X8208Y435554D02*
X8208Y438010D01*
X5753Y436373D02*
X11891Y436373D01*
X11891Y436372D02*
X11960Y436374D01*
X12028Y436380D01*
X12097Y436389D01*
X12164Y436403D01*
X12231Y436420D01*
X12297Y436441D01*
X12361Y436465D01*
X12424Y436494D01*
X12485Y436525D01*
X12544Y436560D01*
X12602Y436598D01*
X12657Y436640D01*
X12709Y436684D01*
X12759Y436732D01*
X12807Y436782D01*
X12851Y436834D01*
X12893Y436889D01*
X12931Y436947D01*
X12966Y437006D01*
X12997Y437067D01*
X13026Y437130D01*
X13050Y437194D01*
X13071Y437260D01*
X13088Y437327D01*
X13102Y437394D01*
X13111Y437463D01*
X13117Y437531D01*
X13119Y437600D01*
X13119Y438010D01*
X13119Y442045D02*
X13119Y444091D01*
X13119Y442045D02*
X13117Y441976D01*
X13111Y441908D01*
X13102Y441839D01*
X13088Y441772D01*
X13071Y441705D01*
X13050Y441639D01*
X13026Y441575D01*
X12997Y441512D01*
X12966Y441451D01*
X12931Y441392D01*
X12893Y441334D01*
X12851Y441279D01*
X12807Y441227D01*
X12759Y441177D01*
X12709Y441129D01*
X12657Y441085D01*
X12602Y441044D01*
X12544Y441005D01*
X12485Y440970D01*
X12424Y440939D01*
X12361Y440910D01*
X12297Y440886D01*
X12231Y440865D01*
X12164Y440848D01*
X12097Y440834D01*
X12029Y440825D01*
X11960Y440819D01*
X11891Y440817D01*
X9845Y440817D01*
X9766Y440819D01*
X9687Y440825D01*
X9608Y440834D01*
X9530Y440847D01*
X9453Y440865D01*
X9377Y440885D01*
X9302Y440910D01*
X9228Y440938D01*
X9155Y440969D01*
X9084Y441005D01*
X9015Y441043D01*
X8948Y441085D01*
X8883Y441130D01*
X8820Y441178D01*
X8759Y441229D01*
X8702Y441283D01*
X8646Y441339D01*
X8594Y441398D01*
X8544Y441460D01*
X8498Y441524D01*
X8454Y441590D01*
X8414Y441658D01*
X8378Y441728D01*
X8344Y441800D01*
X8314Y441874D01*
X8288Y441948D01*
X8265Y442024D01*
X8247Y442101D01*
X8231Y442178D01*
X8220Y442257D01*
X8212Y442335D01*
X8208Y442414D01*
X8208Y442494D01*
X8212Y442573D01*
X8220Y442651D01*
X8231Y442730D01*
X8247Y442807D01*
X8265Y442884D01*
X8288Y442960D01*
X8314Y443034D01*
X8344Y443108D01*
X8378Y443180D01*
X8414Y443250D01*
X8454Y443318D01*
X8498Y443384D01*
X8544Y443448D01*
X8594Y443510D01*
X8646Y443569D01*
X8702Y443625D01*
X8759Y443679D01*
X8820Y443730D01*
X8883Y443778D01*
X8948Y443823D01*
X9015Y443865D01*
X9084Y443903D01*
X9155Y443939D01*
X9228Y443970D01*
X9302Y443998D01*
X9377Y444023D01*
X9453Y444043D01*
X9530Y444061D01*
X9608Y444074D01*
X9687Y444083D01*
X9766Y444089D01*
X9845Y444091D01*
X10664Y444091D01*
X10664Y440817D01*
X13119Y447401D02*
X8208Y447401D01*
X8208Y449447D01*
X8210Y449516D01*
X8216Y449584D01*
X8225Y449653D01*
X8239Y449720D01*
X8256Y449787D01*
X8277Y449853D01*
X8301Y449917D01*
X8330Y449980D01*
X8361Y450041D01*
X8396Y450100D01*
X8434Y450158D01*
X8476Y450213D01*
X8520Y450265D01*
X8568Y450315D01*
X8618Y450363D01*
X8670Y450407D01*
X8725Y450449D01*
X8783Y450487D01*
X8842Y450522D01*
X8903Y450553D01*
X8966Y450582D01*
X9030Y450606D01*
X9096Y450627D01*
X9163Y450644D01*
X9230Y450658D01*
X9299Y450667D01*
X9367Y450673D01*
X9436Y450675D01*
X13119Y450675D01*
X10254Y454599D02*
X11073Y456645D01*
X10254Y454599D02*
X10229Y454540D01*
X10200Y454483D01*
X10167Y454428D01*
X10131Y454375D01*
X10093Y454324D01*
X10051Y454276D01*
X10006Y454230D01*
X9959Y454187D01*
X9909Y454147D01*
X9857Y454110D01*
X9802Y454076D01*
X9746Y454045D01*
X9688Y454018D01*
X9628Y453995D01*
X9568Y453975D01*
X9506Y453959D01*
X9443Y453946D01*
X9379Y453938D01*
X9316Y453933D01*
X9252Y453932D01*
X9188Y453935D01*
X9124Y453942D01*
X9061Y453953D01*
X8999Y453967D01*
X8937Y453985D01*
X8877Y454007D01*
X8818Y454032D01*
X8761Y454061D01*
X8706Y454094D01*
X8653Y454129D01*
X8602Y454168D01*
X8553Y454210D01*
X8507Y454254D01*
X8464Y454302D01*
X8424Y454351D01*
X8387Y454404D01*
X8353Y454458D01*
X8322Y454514D01*
X8295Y454572D01*
X8271Y454631D01*
X8252Y454692D01*
X8235Y454754D01*
X8223Y454817D01*
X8214Y454880D01*
X8209Y454944D01*
X8208Y455008D01*
X8208Y455007D02*
X8212Y455143D01*
X8220Y455278D01*
X8232Y455414D01*
X8248Y455548D01*
X8268Y455683D01*
X8291Y455816D01*
X8319Y455949D01*
X8350Y456081D01*
X8385Y456212D01*
X8424Y456342D01*
X8467Y456471D01*
X8514Y456598D01*
X8564Y456724D01*
X8618Y456849D01*
X11073Y456645D02*
X11098Y456704D01*
X11127Y456761D01*
X11160Y456816D01*
X11196Y456869D01*
X11234Y456920D01*
X11276Y456968D01*
X11321Y457014D01*
X11368Y457057D01*
X11418Y457097D01*
X11470Y457134D01*
X11525Y457168D01*
X11581Y457199D01*
X11639Y457226D01*
X11699Y457249D01*
X11759Y457269D01*
X11821Y457285D01*
X11884Y457298D01*
X11948Y457306D01*
X12011Y457311D01*
X12075Y457312D01*
X12139Y457309D01*
X12203Y457302D01*
X12266Y457291D01*
X12328Y457277D01*
X12390Y457259D01*
X12450Y457237D01*
X12509Y457212D01*
X12566Y457183D01*
X12621Y457150D01*
X12674Y457115D01*
X12725Y457076D01*
X12774Y457034D01*
X12820Y456990D01*
X12863Y456942D01*
X12903Y456893D01*
X12940Y456840D01*
X12974Y456786D01*
X13005Y456730D01*
X13032Y456672D01*
X13056Y456613D01*
X13075Y456552D01*
X13092Y456490D01*
X13104Y456427D01*
X13113Y456364D01*
X13118Y456300D01*
X13119Y456236D01*
X13115Y456072D01*
X13107Y455908D01*
X13095Y455744D01*
X13079Y455581D01*
X13059Y455418D01*
X13036Y455255D01*
X13008Y455094D01*
X12977Y454932D01*
X12942Y454772D01*
X12903Y454613D01*
X12860Y454454D01*
X12814Y454297D01*
X12764Y454140D01*
X12710Y453985D01*
X13119Y460255D02*
X8208Y460255D01*
X6162Y460050D02*
X5753Y460050D01*
X5753Y460459D01*
X6162Y460459D01*
X6162Y460050D01*
X9845Y463251D02*
X11482Y463251D01*
X9845Y463251D02*
X9766Y463253D01*
X9687Y463259D01*
X9608Y463268D01*
X9530Y463281D01*
X9453Y463299D01*
X9377Y463319D01*
X9302Y463344D01*
X9228Y463372D01*
X9155Y463403D01*
X9084Y463439D01*
X9015Y463477D01*
X8948Y463519D01*
X8883Y463564D01*
X8820Y463612D01*
X8759Y463663D01*
X8702Y463717D01*
X8646Y463773D01*
X8594Y463832D01*
X8544Y463894D01*
X8498Y463958D01*
X8454Y464024D01*
X8414Y464092D01*
X8378Y464162D01*
X8344Y464234D01*
X8314Y464308D01*
X8288Y464382D01*
X8265Y464458D01*
X8247Y464535D01*
X8231Y464612D01*
X8220Y464691D01*
X8212Y464769D01*
X8208Y464848D01*
X8208Y464928D01*
X8212Y465007D01*
X8220Y465085D01*
X8231Y465164D01*
X8247Y465241D01*
X8265Y465318D01*
X8288Y465394D01*
X8314Y465468D01*
X8344Y465542D01*
X8378Y465614D01*
X8414Y465684D01*
X8454Y465752D01*
X8498Y465818D01*
X8544Y465882D01*
X8594Y465944D01*
X8646Y466003D01*
X8702Y466059D01*
X8759Y466113D01*
X8820Y466164D01*
X8883Y466212D01*
X8948Y466257D01*
X9015Y466299D01*
X9084Y466337D01*
X9155Y466373D01*
X9228Y466404D01*
X9302Y466432D01*
X9377Y466457D01*
X9453Y466477D01*
X9530Y466495D01*
X9608Y466508D01*
X9687Y466517D01*
X9766Y466523D01*
X9845Y466525D01*
X9845Y466524D02*
X11482Y466524D01*
X11482Y466525D02*
X11561Y466523D01*
X11640Y466517D01*
X11719Y466508D01*
X11797Y466495D01*
X11874Y466477D01*
X11950Y466457D01*
X12025Y466432D01*
X12099Y466404D01*
X12172Y466373D01*
X12243Y466337D01*
X12312Y466299D01*
X12379Y466257D01*
X12444Y466212D01*
X12507Y466164D01*
X12568Y466113D01*
X12625Y466059D01*
X12681Y466003D01*
X12733Y465944D01*
X12783Y465882D01*
X12829Y465818D01*
X12873Y465752D01*
X12913Y465684D01*
X12949Y465614D01*
X12983Y465542D01*
X13013Y465468D01*
X13039Y465394D01*
X13062Y465318D01*
X13080Y465241D01*
X13096Y465164D01*
X13107Y465085D01*
X13115Y465007D01*
X13119Y464928D01*
X13119Y464848D01*
X13115Y464769D01*
X13107Y464691D01*
X13096Y464612D01*
X13080Y464535D01*
X13062Y464458D01*
X13039Y464382D01*
X13013Y464308D01*
X12983Y464234D01*
X12949Y464162D01*
X12913Y464092D01*
X12873Y464024D01*
X12829Y463958D01*
X12783Y463894D01*
X12733Y463832D01*
X12681Y463773D01*
X12625Y463717D01*
X12568Y463663D01*
X12507Y463612D01*
X12444Y463564D01*
X12379Y463519D01*
X12312Y463477D01*
X12243Y463439D01*
X12172Y463403D01*
X12099Y463372D01*
X12025Y463344D01*
X11950Y463319D01*
X11874Y463299D01*
X11797Y463281D01*
X11719Y463268D01*
X11640Y463259D01*
X11561Y463253D01*
X11482Y463251D01*
X13119Y469834D02*
X8208Y469834D01*
X8208Y471880D01*
X8210Y471949D01*
X8216Y472017D01*
X8225Y472086D01*
X8239Y472153D01*
X8256Y472220D01*
X8277Y472286D01*
X8301Y472350D01*
X8330Y472413D01*
X8361Y472474D01*
X8396Y472533D01*
X8434Y472591D01*
X8476Y472646D01*
X8520Y472698D01*
X8568Y472748D01*
X8618Y472796D01*
X8670Y472840D01*
X8725Y472882D01*
X8783Y472920D01*
X8842Y472955D01*
X8903Y472986D01*
X8966Y473015D01*
X9030Y473039D01*
X9096Y473060D01*
X9163Y473077D01*
X9230Y473091D01*
X9299Y473100D01*
X9367Y473106D01*
X9436Y473108D01*
X13119Y473108D01*
X13119Y481556D02*
X13119Y483193D01*
X13119Y481556D02*
X13117Y481487D01*
X13111Y481419D01*
X13102Y481350D01*
X13088Y481283D01*
X13071Y481216D01*
X13050Y481150D01*
X13026Y481086D01*
X12997Y481023D01*
X12966Y480962D01*
X12931Y480903D01*
X12893Y480845D01*
X12851Y480790D01*
X12807Y480738D01*
X12759Y480688D01*
X12709Y480640D01*
X12657Y480596D01*
X12602Y480555D01*
X12544Y480516D01*
X12485Y480481D01*
X12424Y480450D01*
X12361Y480421D01*
X12297Y480397D01*
X12231Y480376D01*
X12164Y480359D01*
X12097Y480345D01*
X12029Y480336D01*
X11960Y480330D01*
X11891Y480328D01*
X11891Y480329D02*
X9436Y480329D01*
X9436Y480328D02*
X9367Y480330D01*
X9299Y480336D01*
X9230Y480345D01*
X9163Y480359D01*
X9096Y480376D01*
X9030Y480397D01*
X8966Y480421D01*
X8903Y480450D01*
X8842Y480481D01*
X8783Y480516D01*
X8725Y480554D01*
X8670Y480596D01*
X8618Y480640D01*
X8568Y480688D01*
X8520Y480738D01*
X8476Y480790D01*
X8434Y480845D01*
X8396Y480903D01*
X8361Y480962D01*
X8330Y481023D01*
X8301Y481086D01*
X8277Y481150D01*
X8256Y481216D01*
X8239Y481283D01*
X8225Y481350D01*
X8216Y481419D01*
X8210Y481487D01*
X8208Y481556D01*
X8208Y483193D01*
X10254Y487319D02*
X10254Y489160D01*
X10255Y487319D02*
X10257Y487244D01*
X10263Y487169D01*
X10273Y487095D01*
X10286Y487021D01*
X10304Y486948D01*
X10325Y486876D01*
X10350Y486806D01*
X10379Y486737D01*
X10411Y486669D01*
X10447Y486603D01*
X10486Y486539D01*
X10528Y486477D01*
X10574Y486418D01*
X10623Y486361D01*
X10674Y486306D01*
X10729Y486255D01*
X10786Y486206D01*
X10845Y486160D01*
X10907Y486118D01*
X10971Y486079D01*
X11037Y486043D01*
X11105Y486011D01*
X11174Y485982D01*
X11244Y485957D01*
X11316Y485936D01*
X11389Y485918D01*
X11463Y485905D01*
X11537Y485895D01*
X11612Y485889D01*
X11687Y485887D01*
X11762Y485889D01*
X11837Y485895D01*
X11911Y485905D01*
X11985Y485918D01*
X12058Y485936D01*
X12130Y485957D01*
X12200Y485982D01*
X12269Y486011D01*
X12337Y486043D01*
X12403Y486079D01*
X12467Y486118D01*
X12529Y486160D01*
X12588Y486206D01*
X12645Y486255D01*
X12700Y486306D01*
X12751Y486361D01*
X12800Y486418D01*
X12846Y486477D01*
X12888Y486539D01*
X12927Y486603D01*
X12963Y486669D01*
X12995Y486737D01*
X13024Y486806D01*
X13049Y486876D01*
X13070Y486948D01*
X13088Y487021D01*
X13101Y487095D01*
X13111Y487169D01*
X13117Y487244D01*
X13119Y487319D01*
X13119Y489160D01*
X9436Y489160D01*
X9436Y489161D02*
X9367Y489159D01*
X9299Y489153D01*
X9230Y489144D01*
X9163Y489130D01*
X9096Y489113D01*
X9030Y489092D01*
X8966Y489068D01*
X8903Y489039D01*
X8842Y489008D01*
X8783Y488973D01*
X8725Y488935D01*
X8670Y488893D01*
X8618Y488849D01*
X8568Y488801D01*
X8520Y488751D01*
X8476Y488699D01*
X8435Y488644D01*
X8396Y488586D01*
X8361Y488527D01*
X8330Y488466D01*
X8301Y488403D01*
X8277Y488339D01*
X8256Y488273D01*
X8239Y488206D01*
X8225Y488139D01*
X8216Y488071D01*
X8210Y488002D01*
X8208Y487933D01*
X8208Y486296D01*
X5753Y492796D02*
X13119Y492796D01*
X13119Y494842D01*
X13117Y494911D01*
X13111Y494979D01*
X13102Y495048D01*
X13088Y495115D01*
X13071Y495182D01*
X13050Y495248D01*
X13026Y495312D01*
X12997Y495375D01*
X12966Y495436D01*
X12931Y495495D01*
X12893Y495553D01*
X12851Y495608D01*
X12807Y495660D01*
X12759Y495710D01*
X12709Y495758D01*
X12657Y495802D01*
X12602Y495844D01*
X12544Y495882D01*
X12485Y495917D01*
X12424Y495948D01*
X12361Y495977D01*
X12297Y496001D01*
X12231Y496022D01*
X12164Y496039D01*
X12097Y496053D01*
X12028Y496062D01*
X11960Y496068D01*
X11891Y496070D01*
X9436Y496070D01*
X9367Y496068D01*
X9299Y496062D01*
X9230Y496053D01*
X9163Y496039D01*
X9096Y496022D01*
X9030Y496001D01*
X8966Y495977D01*
X8903Y495948D01*
X8842Y495917D01*
X8783Y495882D01*
X8725Y495844D01*
X8670Y495802D01*
X8618Y495758D01*
X8568Y495710D01*
X8520Y495660D01*
X8476Y495608D01*
X8435Y495553D01*
X8396Y495495D01*
X8361Y495436D01*
X8330Y495375D01*
X8301Y495312D01*
X8277Y495248D01*
X8256Y495182D01*
X8239Y495115D01*
X8225Y495048D01*
X8216Y494980D01*
X8210Y494911D01*
X8208Y494842D01*
X8208Y492796D01*
X5753Y499178D02*
X11891Y499178D01*
X11960Y499180D01*
X12028Y499186D01*
X12097Y499195D01*
X12164Y499209D01*
X12231Y499226D01*
X12297Y499247D01*
X12361Y499271D01*
X12424Y499300D01*
X12485Y499331D01*
X12544Y499366D01*
X12602Y499404D01*
X12657Y499446D01*
X12709Y499490D01*
X12759Y499538D01*
X12807Y499588D01*
X12851Y499640D01*
X12893Y499695D01*
X12931Y499753D01*
X12966Y499812D01*
X12997Y499873D01*
X13026Y499936D01*
X13050Y500000D01*
X13071Y500066D01*
X13088Y500133D01*
X13102Y500200D01*
X13111Y500269D01*
X13117Y500337D01*
X13119Y500406D01*
X13119Y504224D02*
X13119Y506270D01*
X13119Y504224D02*
X13117Y504155D01*
X13111Y504087D01*
X13102Y504018D01*
X13088Y503951D01*
X13071Y503884D01*
X13050Y503818D01*
X13026Y503754D01*
X12997Y503691D01*
X12966Y503630D01*
X12931Y503571D01*
X12893Y503513D01*
X12851Y503458D01*
X12807Y503406D01*
X12759Y503356D01*
X12709Y503308D01*
X12657Y503264D01*
X12602Y503223D01*
X12544Y503184D01*
X12485Y503149D01*
X12424Y503118D01*
X12361Y503089D01*
X12297Y503065D01*
X12231Y503044D01*
X12164Y503027D01*
X12097Y503013D01*
X12029Y503004D01*
X11960Y502998D01*
X11891Y502996D01*
X9845Y502996D01*
X9766Y502998D01*
X9687Y503004D01*
X9608Y503013D01*
X9530Y503026D01*
X9453Y503044D01*
X9377Y503064D01*
X9302Y503089D01*
X9228Y503117D01*
X9155Y503148D01*
X9084Y503184D01*
X9015Y503222D01*
X8948Y503264D01*
X8883Y503309D01*
X8820Y503357D01*
X8759Y503408D01*
X8702Y503462D01*
X8646Y503518D01*
X8594Y503577D01*
X8544Y503639D01*
X8498Y503703D01*
X8454Y503769D01*
X8414Y503837D01*
X8378Y503907D01*
X8344Y503979D01*
X8314Y504053D01*
X8288Y504127D01*
X8265Y504203D01*
X8247Y504280D01*
X8231Y504357D01*
X8220Y504436D01*
X8212Y504514D01*
X8208Y504593D01*
X8208Y504673D01*
X8212Y504752D01*
X8220Y504830D01*
X8231Y504909D01*
X8247Y504986D01*
X8265Y505063D01*
X8288Y505139D01*
X8314Y505213D01*
X8344Y505287D01*
X8378Y505359D01*
X8414Y505429D01*
X8454Y505497D01*
X8498Y505563D01*
X8544Y505627D01*
X8594Y505689D01*
X8646Y505748D01*
X8702Y505804D01*
X8759Y505858D01*
X8820Y505909D01*
X8883Y505957D01*
X8948Y506002D01*
X9015Y506044D01*
X9084Y506082D01*
X9155Y506118D01*
X9228Y506149D01*
X9302Y506177D01*
X9377Y506202D01*
X9453Y506222D01*
X9530Y506240D01*
X9608Y506253D01*
X9687Y506262D01*
X9766Y506268D01*
X9845Y506270D01*
X10664Y506270D01*
X10664Y502996D01*
X13119Y513631D02*
X6981Y513631D01*
X6912Y513633D01*
X6844Y513639D01*
X6775Y513648D01*
X6708Y513662D01*
X6641Y513679D01*
X6575Y513700D01*
X6511Y513724D01*
X6448Y513753D01*
X6387Y513784D01*
X6328Y513819D01*
X6270Y513857D01*
X6215Y513899D01*
X6163Y513943D01*
X6113Y513991D01*
X6065Y514041D01*
X6021Y514093D01*
X5980Y514148D01*
X5941Y514206D01*
X5906Y514265D01*
X5875Y514326D01*
X5846Y514389D01*
X5822Y514453D01*
X5801Y514519D01*
X5784Y514586D01*
X5770Y514653D01*
X5761Y514721D01*
X5755Y514790D01*
X5753Y514859D01*
X5753Y515268D01*
X8208Y515268D02*
X8208Y512813D01*
X9845Y517383D02*
X11482Y517383D01*
X9845Y517383D02*
X9766Y517385D01*
X9687Y517391D01*
X9608Y517400D01*
X9530Y517413D01*
X9453Y517431D01*
X9377Y517451D01*
X9302Y517476D01*
X9228Y517504D01*
X9155Y517535D01*
X9084Y517571D01*
X9015Y517609D01*
X8948Y517651D01*
X8883Y517696D01*
X8820Y517744D01*
X8759Y517795D01*
X8702Y517849D01*
X8646Y517905D01*
X8594Y517964D01*
X8544Y518026D01*
X8498Y518090D01*
X8454Y518156D01*
X8414Y518224D01*
X8378Y518294D01*
X8344Y518366D01*
X8314Y518440D01*
X8288Y518514D01*
X8265Y518590D01*
X8247Y518667D01*
X8231Y518744D01*
X8220Y518823D01*
X8212Y518901D01*
X8208Y518980D01*
X8208Y519060D01*
X8212Y519139D01*
X8220Y519217D01*
X8231Y519296D01*
X8247Y519373D01*
X8265Y519450D01*
X8288Y519526D01*
X8314Y519600D01*
X8344Y519674D01*
X8378Y519746D01*
X8414Y519816D01*
X8454Y519884D01*
X8498Y519950D01*
X8544Y520014D01*
X8594Y520076D01*
X8646Y520135D01*
X8702Y520191D01*
X8759Y520245D01*
X8820Y520296D01*
X8883Y520344D01*
X8948Y520389D01*
X9015Y520431D01*
X9084Y520469D01*
X9155Y520505D01*
X9228Y520536D01*
X9302Y520564D01*
X9377Y520589D01*
X9453Y520609D01*
X9530Y520627D01*
X9608Y520640D01*
X9687Y520649D01*
X9766Y520655D01*
X9845Y520657D01*
X11482Y520657D01*
X11561Y520655D01*
X11640Y520649D01*
X11719Y520640D01*
X11797Y520627D01*
X11874Y520609D01*
X11950Y520589D01*
X12025Y520564D01*
X12099Y520536D01*
X12172Y520505D01*
X12243Y520469D01*
X12312Y520431D01*
X12379Y520389D01*
X12444Y520344D01*
X12507Y520296D01*
X12568Y520245D01*
X12625Y520191D01*
X12681Y520135D01*
X12733Y520076D01*
X12783Y520014D01*
X12829Y519950D01*
X12873Y519884D01*
X12913Y519816D01*
X12949Y519746D01*
X12983Y519674D01*
X13013Y519600D01*
X13039Y519526D01*
X13062Y519450D01*
X13080Y519373D01*
X13096Y519296D01*
X13107Y519217D01*
X13115Y519139D01*
X13119Y519060D01*
X13119Y518980D01*
X13115Y518901D01*
X13107Y518823D01*
X13096Y518744D01*
X13080Y518667D01*
X13062Y518590D01*
X13039Y518514D01*
X13013Y518440D01*
X12983Y518366D01*
X12949Y518294D01*
X12913Y518224D01*
X12873Y518156D01*
X12829Y518090D01*
X12783Y518026D01*
X12733Y517964D01*
X12681Y517905D01*
X12625Y517849D01*
X12568Y517795D01*
X12507Y517744D01*
X12444Y517696D01*
X12379Y517651D01*
X12312Y517609D01*
X12243Y517571D01*
X12172Y517535D01*
X12099Y517504D01*
X12025Y517476D01*
X11950Y517451D01*
X11874Y517431D01*
X11797Y517413D01*
X11719Y517400D01*
X11640Y517391D01*
X11561Y517385D01*
X11482Y517383D01*
X13119Y524013D02*
X8208Y524013D01*
X8208Y526468D01*
X9027Y526468D01*
X10254Y533359D02*
X11073Y535405D01*
X10254Y533359D02*
X10229Y533300D01*
X10200Y533243D01*
X10167Y533188D01*
X10131Y533135D01*
X10093Y533084D01*
X10051Y533036D01*
X10006Y532990D01*
X9959Y532947D01*
X9909Y532907D01*
X9857Y532870D01*
X9802Y532836D01*
X9746Y532805D01*
X9688Y532778D01*
X9628Y532755D01*
X9568Y532735D01*
X9506Y532719D01*
X9443Y532706D01*
X9379Y532698D01*
X9316Y532693D01*
X9252Y532692D01*
X9188Y532695D01*
X9124Y532702D01*
X9061Y532713D01*
X8999Y532727D01*
X8937Y532745D01*
X8877Y532767D01*
X8818Y532792D01*
X8761Y532821D01*
X8706Y532854D01*
X8653Y532889D01*
X8602Y532928D01*
X8553Y532970D01*
X8507Y533014D01*
X8464Y533062D01*
X8424Y533111D01*
X8387Y533164D01*
X8353Y533218D01*
X8322Y533274D01*
X8295Y533332D01*
X8271Y533391D01*
X8252Y533452D01*
X8235Y533514D01*
X8223Y533577D01*
X8214Y533640D01*
X8209Y533704D01*
X8208Y533768D01*
X8208Y533767D02*
X8212Y533903D01*
X8220Y534038D01*
X8232Y534174D01*
X8248Y534308D01*
X8268Y534443D01*
X8291Y534576D01*
X8319Y534709D01*
X8350Y534841D01*
X8385Y534972D01*
X8424Y535102D01*
X8467Y535231D01*
X8514Y535358D01*
X8564Y535484D01*
X8618Y535609D01*
X11073Y535405D02*
X11098Y535464D01*
X11127Y535521D01*
X11160Y535576D01*
X11196Y535629D01*
X11234Y535680D01*
X11276Y535728D01*
X11321Y535774D01*
X11368Y535817D01*
X11418Y535857D01*
X11470Y535894D01*
X11525Y535928D01*
X11581Y535959D01*
X11639Y535986D01*
X11699Y536009D01*
X11759Y536029D01*
X11821Y536045D01*
X11884Y536058D01*
X11948Y536066D01*
X12011Y536071D01*
X12075Y536072D01*
X12139Y536069D01*
X12203Y536062D01*
X12266Y536051D01*
X12328Y536037D01*
X12390Y536019D01*
X12450Y535997D01*
X12509Y535972D01*
X12566Y535943D01*
X12621Y535910D01*
X12674Y535875D01*
X12725Y535836D01*
X12774Y535794D01*
X12820Y535750D01*
X12863Y535702D01*
X12903Y535653D01*
X12940Y535600D01*
X12974Y535546D01*
X13005Y535490D01*
X13032Y535432D01*
X13056Y535373D01*
X13075Y535312D01*
X13092Y535250D01*
X13104Y535187D01*
X13113Y535124D01*
X13118Y535060D01*
X13119Y534996D01*
X13115Y534832D01*
X13107Y534668D01*
X13095Y534504D01*
X13079Y534341D01*
X13059Y534178D01*
X13036Y534015D01*
X13008Y533854D01*
X12977Y533692D01*
X12942Y533532D01*
X12903Y533373D01*
X12860Y533214D01*
X12814Y533057D01*
X12764Y532900D01*
X12710Y532745D01*
X13119Y539328D02*
X5753Y539328D01*
X8208Y539328D02*
X8208Y541374D01*
X8210Y541443D01*
X8216Y541511D01*
X8225Y541580D01*
X8239Y541647D01*
X8256Y541714D01*
X8277Y541780D01*
X8301Y541844D01*
X8330Y541907D01*
X8361Y541968D01*
X8396Y542027D01*
X8434Y542085D01*
X8476Y542140D01*
X8520Y542192D01*
X8568Y542242D01*
X8618Y542290D01*
X8670Y542334D01*
X8725Y542376D01*
X8783Y542414D01*
X8842Y542449D01*
X8903Y542480D01*
X8966Y542509D01*
X9030Y542533D01*
X9096Y542554D01*
X9163Y542571D01*
X9230Y542585D01*
X9299Y542594D01*
X9367Y542600D01*
X9436Y542602D01*
X13119Y542602D01*
X10254Y547303D02*
X10254Y549145D01*
X10255Y547303D02*
X10257Y547228D01*
X10263Y547153D01*
X10273Y547079D01*
X10286Y547005D01*
X10304Y546932D01*
X10325Y546860D01*
X10350Y546790D01*
X10379Y546721D01*
X10411Y546653D01*
X10447Y546587D01*
X10486Y546523D01*
X10528Y546461D01*
X10574Y546402D01*
X10623Y546345D01*
X10674Y546290D01*
X10729Y546239D01*
X10786Y546190D01*
X10845Y546144D01*
X10907Y546102D01*
X10971Y546063D01*
X11037Y546027D01*
X11105Y545995D01*
X11174Y545966D01*
X11244Y545941D01*
X11316Y545920D01*
X11389Y545902D01*
X11463Y545889D01*
X11537Y545879D01*
X11612Y545873D01*
X11687Y545871D01*
X11762Y545873D01*
X11837Y545879D01*
X11911Y545889D01*
X11985Y545902D01*
X12058Y545920D01*
X12130Y545941D01*
X12200Y545966D01*
X12269Y545995D01*
X12337Y546027D01*
X12403Y546063D01*
X12467Y546102D01*
X12529Y546144D01*
X12588Y546190D01*
X12645Y546239D01*
X12700Y546290D01*
X12751Y546345D01*
X12800Y546402D01*
X12846Y546461D01*
X12888Y546523D01*
X12927Y546587D01*
X12963Y546653D01*
X12995Y546721D01*
X13024Y546790D01*
X13049Y546860D01*
X13070Y546932D01*
X13088Y547005D01*
X13101Y547079D01*
X13111Y547153D01*
X13117Y547228D01*
X13119Y547303D01*
X13119Y549145D01*
X9436Y549145D01*
X9367Y549143D01*
X9299Y549137D01*
X9230Y549128D01*
X9163Y549114D01*
X9096Y549097D01*
X9030Y549076D01*
X8966Y549052D01*
X8903Y549023D01*
X8842Y548992D01*
X8783Y548957D01*
X8725Y548919D01*
X8670Y548877D01*
X8618Y548833D01*
X8568Y548785D01*
X8520Y548735D01*
X8476Y548683D01*
X8435Y548628D01*
X8396Y548570D01*
X8361Y548511D01*
X8330Y548450D01*
X8301Y548387D01*
X8277Y548323D01*
X8256Y548257D01*
X8239Y548190D01*
X8225Y548123D01*
X8216Y548055D01*
X8210Y547986D01*
X8208Y547917D01*
X8208Y546280D01*
X8208Y552786D02*
X13119Y552786D01*
X8208Y552786D02*
X8208Y555241D01*
X9027Y555241D01*
X8208Y557901D02*
X15574Y557901D01*
X8208Y557901D02*
X8208Y559947D01*
X8210Y560016D01*
X8216Y560084D01*
X8225Y560153D01*
X8239Y560220D01*
X8256Y560287D01*
X8277Y560353D01*
X8301Y560417D01*
X8330Y560480D01*
X8361Y560541D01*
X8396Y560600D01*
X8434Y560658D01*
X8476Y560713D01*
X8520Y560765D01*
X8568Y560815D01*
X8618Y560863D01*
X8670Y560907D01*
X8725Y560949D01*
X8783Y560987D01*
X8842Y561022D01*
X8903Y561053D01*
X8966Y561082D01*
X9030Y561106D01*
X9096Y561127D01*
X9163Y561144D01*
X9230Y561158D01*
X9299Y561167D01*
X9367Y561173D01*
X9436Y561175D01*
X11891Y561175D01*
X11960Y561173D01*
X12028Y561167D01*
X12097Y561158D01*
X12164Y561144D01*
X12231Y561127D01*
X12297Y561106D01*
X12361Y561082D01*
X12424Y561053D01*
X12485Y561022D01*
X12544Y560987D01*
X12602Y560949D01*
X12657Y560907D01*
X12709Y560863D01*
X12759Y560815D01*
X12807Y560765D01*
X12851Y560713D01*
X12893Y560658D01*
X12931Y560600D01*
X12966Y560541D01*
X12997Y560480D01*
X13026Y560417D01*
X13050Y560353D01*
X13071Y560287D01*
X13088Y560220D01*
X13102Y560153D01*
X13111Y560084D01*
X13117Y560016D01*
X13119Y559947D01*
X13119Y557901D01*
X13119Y571334D02*
X5753Y571334D01*
X13119Y571334D02*
X13119Y569288D01*
X13117Y569219D01*
X13111Y569151D01*
X13102Y569082D01*
X13088Y569015D01*
X13071Y568948D01*
X13050Y568882D01*
X13026Y568818D01*
X12997Y568755D01*
X12966Y568694D01*
X12931Y568635D01*
X12893Y568577D01*
X12851Y568522D01*
X12807Y568470D01*
X12759Y568420D01*
X12709Y568372D01*
X12657Y568328D01*
X12602Y568287D01*
X12544Y568248D01*
X12485Y568213D01*
X12424Y568182D01*
X12361Y568153D01*
X12297Y568129D01*
X12231Y568108D01*
X12164Y568091D01*
X12097Y568077D01*
X12029Y568068D01*
X11960Y568062D01*
X11891Y568060D01*
X9436Y568060D01*
X9367Y568062D01*
X9299Y568068D01*
X9230Y568077D01*
X9163Y568091D01*
X9096Y568108D01*
X9030Y568129D01*
X8966Y568153D01*
X8903Y568182D01*
X8842Y568213D01*
X8783Y568248D01*
X8725Y568286D01*
X8670Y568328D01*
X8618Y568372D01*
X8568Y568420D01*
X8520Y568470D01*
X8476Y568522D01*
X8434Y568577D01*
X8396Y568635D01*
X8361Y568694D01*
X8330Y568755D01*
X8301Y568818D01*
X8277Y568882D01*
X8256Y568948D01*
X8239Y569015D01*
X8225Y569082D01*
X8216Y569151D01*
X8210Y569219D01*
X8208Y569288D01*
X8208Y571334D01*
X8208Y574615D02*
X13119Y574615D01*
X6162Y574410D02*
X5753Y574410D01*
X5753Y574820D01*
X6162Y574820D01*
X6162Y574410D01*
X10254Y578225D02*
X11073Y580271D01*
X10254Y578225D02*
X10229Y578166D01*
X10200Y578109D01*
X10167Y578054D01*
X10131Y578001D01*
X10093Y577950D01*
X10051Y577902D01*
X10006Y577856D01*
X9959Y577813D01*
X9909Y577773D01*
X9857Y577736D01*
X9802Y577702D01*
X9746Y577671D01*
X9688Y577644D01*
X9628Y577621D01*
X9568Y577601D01*
X9506Y577585D01*
X9443Y577572D01*
X9379Y577564D01*
X9316Y577559D01*
X9252Y577558D01*
X9188Y577561D01*
X9124Y577568D01*
X9061Y577579D01*
X8999Y577593D01*
X8937Y577611D01*
X8877Y577633D01*
X8818Y577658D01*
X8761Y577687D01*
X8706Y577720D01*
X8653Y577755D01*
X8602Y577794D01*
X8553Y577836D01*
X8507Y577880D01*
X8464Y577928D01*
X8424Y577977D01*
X8387Y578030D01*
X8353Y578084D01*
X8322Y578140D01*
X8295Y578198D01*
X8271Y578257D01*
X8252Y578318D01*
X8235Y578380D01*
X8223Y578443D01*
X8214Y578506D01*
X8209Y578570D01*
X8208Y578634D01*
X8212Y578770D01*
X8220Y578905D01*
X8232Y579041D01*
X8248Y579175D01*
X8268Y579310D01*
X8291Y579443D01*
X8319Y579576D01*
X8350Y579708D01*
X8385Y579839D01*
X8424Y579969D01*
X8467Y580098D01*
X8514Y580225D01*
X8564Y580351D01*
X8618Y580476D01*
X11073Y580271D02*
X11098Y580330D01*
X11127Y580387D01*
X11160Y580442D01*
X11196Y580495D01*
X11234Y580546D01*
X11276Y580594D01*
X11321Y580640D01*
X11368Y580683D01*
X11418Y580723D01*
X11470Y580760D01*
X11525Y580794D01*
X11581Y580825D01*
X11639Y580852D01*
X11699Y580875D01*
X11759Y580895D01*
X11821Y580911D01*
X11884Y580924D01*
X11948Y580932D01*
X12011Y580937D01*
X12075Y580938D01*
X12139Y580935D01*
X12203Y580928D01*
X12266Y580917D01*
X12328Y580903D01*
X12390Y580885D01*
X12450Y580863D01*
X12509Y580838D01*
X12566Y580809D01*
X12621Y580776D01*
X12674Y580741D01*
X12725Y580702D01*
X12774Y580660D01*
X12820Y580616D01*
X12863Y580568D01*
X12903Y580519D01*
X12940Y580466D01*
X12974Y580412D01*
X13005Y580356D01*
X13032Y580298D01*
X13056Y580239D01*
X13075Y580178D01*
X13092Y580116D01*
X13104Y580053D01*
X13113Y579990D01*
X13118Y579926D01*
X13119Y579862D01*
X13115Y579698D01*
X13107Y579534D01*
X13095Y579370D01*
X13079Y579207D01*
X13059Y579044D01*
X13036Y578881D01*
X13008Y578720D01*
X12977Y578558D01*
X12942Y578398D01*
X12903Y578239D01*
X12860Y578080D01*
X12814Y577923D01*
X12764Y577766D01*
X12710Y577611D01*
X13119Y583881D02*
X8208Y583881D01*
X6162Y583676D02*
X5753Y583676D01*
X5753Y584085D01*
X6162Y584085D01*
X6162Y583676D01*
X8208Y587162D02*
X15574Y587162D01*
X8208Y587162D02*
X8208Y589208D01*
X8210Y589277D01*
X8216Y589345D01*
X8225Y589414D01*
X8239Y589481D01*
X8256Y589548D01*
X8277Y589614D01*
X8301Y589678D01*
X8330Y589741D01*
X8361Y589802D01*
X8396Y589861D01*
X8434Y589919D01*
X8476Y589974D01*
X8520Y590026D01*
X8568Y590076D01*
X8618Y590124D01*
X8670Y590168D01*
X8725Y590210D01*
X8783Y590248D01*
X8842Y590283D01*
X8903Y590314D01*
X8966Y590343D01*
X9030Y590367D01*
X9096Y590388D01*
X9163Y590405D01*
X9230Y590419D01*
X9299Y590428D01*
X9367Y590434D01*
X9436Y590436D01*
X9436Y590435D02*
X11891Y590435D01*
X11891Y590436D02*
X11960Y590434D01*
X12028Y590428D01*
X12097Y590419D01*
X12164Y590405D01*
X12231Y590388D01*
X12297Y590367D01*
X12361Y590343D01*
X12424Y590314D01*
X12485Y590283D01*
X12544Y590248D01*
X12602Y590210D01*
X12657Y590168D01*
X12709Y590124D01*
X12759Y590076D01*
X12807Y590026D01*
X12851Y589974D01*
X12893Y589919D01*
X12931Y589861D01*
X12966Y589802D01*
X12997Y589741D01*
X13026Y589678D01*
X13050Y589614D01*
X13071Y589548D01*
X13088Y589481D01*
X13102Y589414D01*
X13111Y589345D01*
X13117Y589277D01*
X13119Y589208D01*
X13119Y587162D01*
X11891Y593544D02*
X5753Y593544D01*
X11891Y593543D02*
X11960Y593545D01*
X12028Y593551D01*
X12097Y593560D01*
X12164Y593574D01*
X12231Y593591D01*
X12297Y593612D01*
X12361Y593636D01*
X12424Y593665D01*
X12485Y593696D01*
X12544Y593731D01*
X12602Y593769D01*
X12657Y593811D01*
X12709Y593855D01*
X12759Y593903D01*
X12807Y593953D01*
X12851Y594005D01*
X12893Y594060D01*
X12931Y594118D01*
X12966Y594177D01*
X12997Y594238D01*
X13026Y594301D01*
X13050Y594365D01*
X13071Y594431D01*
X13088Y594498D01*
X13102Y594565D01*
X13111Y594634D01*
X13117Y594702D01*
X13119Y594771D01*
X10254Y598753D02*
X10254Y600595D01*
X10255Y598753D02*
X10257Y598678D01*
X10263Y598603D01*
X10273Y598529D01*
X10286Y598455D01*
X10304Y598382D01*
X10325Y598310D01*
X10350Y598240D01*
X10379Y598171D01*
X10411Y598103D01*
X10447Y598037D01*
X10486Y597973D01*
X10528Y597911D01*
X10574Y597852D01*
X10623Y597795D01*
X10674Y597740D01*
X10729Y597689D01*
X10786Y597640D01*
X10845Y597594D01*
X10907Y597552D01*
X10971Y597513D01*
X11037Y597477D01*
X11105Y597445D01*
X11174Y597416D01*
X11244Y597391D01*
X11316Y597370D01*
X11389Y597352D01*
X11463Y597339D01*
X11537Y597329D01*
X11612Y597323D01*
X11687Y597321D01*
X11762Y597323D01*
X11837Y597329D01*
X11911Y597339D01*
X11985Y597352D01*
X12058Y597370D01*
X12130Y597391D01*
X12200Y597416D01*
X12269Y597445D01*
X12337Y597477D01*
X12403Y597513D01*
X12467Y597552D01*
X12529Y597594D01*
X12588Y597640D01*
X12645Y597689D01*
X12700Y597740D01*
X12751Y597795D01*
X12800Y597852D01*
X12846Y597911D01*
X12888Y597973D01*
X12927Y598037D01*
X12963Y598103D01*
X12995Y598171D01*
X13024Y598240D01*
X13049Y598310D01*
X13070Y598382D01*
X13088Y598455D01*
X13101Y598529D01*
X13111Y598603D01*
X13117Y598678D01*
X13119Y598753D01*
X13119Y600595D01*
X9436Y600595D01*
X9367Y600593D01*
X9299Y600587D01*
X9230Y600578D01*
X9163Y600564D01*
X9096Y600547D01*
X9030Y600526D01*
X8966Y600502D01*
X8903Y600473D01*
X8842Y600442D01*
X8783Y600407D01*
X8725Y600369D01*
X8670Y600327D01*
X8618Y600283D01*
X8568Y600235D01*
X8520Y600185D01*
X8476Y600133D01*
X8435Y600078D01*
X8396Y600020D01*
X8361Y599961D01*
X8330Y599900D01*
X8301Y599837D01*
X8277Y599773D01*
X8256Y599707D01*
X8239Y599640D01*
X8225Y599573D01*
X8216Y599505D01*
X8210Y599436D01*
X8208Y599367D01*
X8208Y597730D01*
X15574Y603702D02*
X15574Y604520D01*
X8208Y606976D01*
X8208Y603702D02*
X13119Y605339D01*
X13119Y614037D02*
X5753Y614037D01*
X13119Y614037D02*
X13119Y617311D01*
X13119Y622329D02*
X13117Y622407D01*
X13112Y622485D01*
X13102Y622562D01*
X13089Y622639D01*
X13073Y622715D01*
X13053Y622790D01*
X13029Y622864D01*
X13002Y622937D01*
X12971Y623009D01*
X12937Y623079D01*
X12900Y623148D01*
X12859Y623214D01*
X12815Y623279D01*
X12769Y623341D01*
X12719Y623401D01*
X12667Y623459D01*
X12612Y623514D01*
X12554Y623566D01*
X12494Y623616D01*
X12432Y623662D01*
X12367Y623706D01*
X12301Y623747D01*
X12232Y623784D01*
X12162Y623818D01*
X12090Y623849D01*
X12017Y623876D01*
X11943Y623900D01*
X11868Y623920D01*
X11792Y623936D01*
X11715Y623949D01*
X11638Y623959D01*
X11560Y623964D01*
X11482Y623966D01*
X13119Y622329D02*
X13117Y622215D01*
X13112Y622102D01*
X13102Y621988D01*
X13089Y621875D01*
X13072Y621763D01*
X13052Y621651D01*
X13028Y621540D01*
X13000Y621429D01*
X12969Y621320D01*
X12934Y621212D01*
X12895Y621105D01*
X12853Y620999D01*
X12808Y620895D01*
X12759Y620792D01*
X12706Y620691D01*
X12651Y620592D01*
X12592Y620494D01*
X12530Y620399D01*
X12465Y620306D01*
X12397Y620214D01*
X12326Y620126D01*
X12252Y620039D01*
X12175Y619955D01*
X12096Y619874D01*
X7390Y620078D02*
X7312Y620080D01*
X7234Y620085D01*
X7157Y620095D01*
X7080Y620108D01*
X7004Y620124D01*
X6929Y620144D01*
X6855Y620168D01*
X6782Y620195D01*
X6710Y620226D01*
X6640Y620260D01*
X6571Y620297D01*
X6505Y620338D01*
X6440Y620382D01*
X6378Y620428D01*
X6318Y620478D01*
X6260Y620530D01*
X6205Y620585D01*
X6153Y620643D01*
X6103Y620703D01*
X6057Y620765D01*
X6013Y620830D01*
X5972Y620897D01*
X5935Y620965D01*
X5901Y621035D01*
X5870Y621107D01*
X5843Y621180D01*
X5819Y621254D01*
X5799Y621329D01*
X5783Y621405D01*
X5770Y621482D01*
X5760Y621559D01*
X5755Y621637D01*
X5753Y621715D01*
X5755Y621825D01*
X5761Y621934D01*
X5771Y622044D01*
X5784Y622152D01*
X5802Y622261D01*
X5823Y622368D01*
X5849Y622475D01*
X5878Y622581D01*
X5910Y622686D01*
X5947Y622789D01*
X5987Y622891D01*
X6031Y622992D01*
X6079Y623091D01*
X6129Y623188D01*
X6184Y623283D01*
X6242Y623376D01*
X6303Y623467D01*
X6367Y623556D01*
X8822Y620897D02*
X8780Y620831D01*
X8736Y620766D01*
X8688Y620704D01*
X8638Y620644D01*
X8585Y620586D01*
X8529Y620531D01*
X8471Y620478D01*
X8410Y620429D01*
X8347Y620382D01*
X8282Y620338D01*
X8215Y620298D01*
X8146Y620261D01*
X8075Y620227D01*
X8003Y620196D01*
X7929Y620169D01*
X7854Y620145D01*
X7779Y620125D01*
X7702Y620109D01*
X7625Y620096D01*
X7547Y620086D01*
X7468Y620081D01*
X7390Y620079D01*
X10049Y623147D02*
X10091Y623214D01*
X10135Y623279D01*
X10183Y623341D01*
X10233Y623401D01*
X10286Y623459D01*
X10342Y623514D01*
X10401Y623566D01*
X10461Y623616D01*
X10525Y623663D01*
X10590Y623706D01*
X10657Y623747D01*
X10726Y623784D01*
X10797Y623818D01*
X10869Y623849D01*
X10943Y623876D01*
X11017Y623900D01*
X11093Y623920D01*
X11170Y623936D01*
X11247Y623949D01*
X11325Y623959D01*
X11404Y623964D01*
X11482Y623966D01*
X10050Y623147D02*
X8822Y620897D01*
X9436Y626945D02*
X9283Y626947D01*
X9130Y626953D01*
X8978Y626962D01*
X8825Y626976D01*
X8673Y626993D01*
X8522Y627014D01*
X8371Y627039D01*
X8221Y627068D01*
X8071Y627100D01*
X7923Y627137D01*
X7775Y627177D01*
X7628Y627220D01*
X7483Y627268D01*
X7339Y627319D01*
X7196Y627373D01*
X7054Y627432D01*
X6915Y627493D01*
X6776Y627559D01*
X6706Y627585D01*
X6636Y627615D01*
X6569Y627648D01*
X6503Y627684D01*
X6439Y627723D01*
X6377Y627766D01*
X6318Y627812D01*
X6260Y627860D01*
X6206Y627911D01*
X6153Y627965D01*
X6104Y628022D01*
X6057Y628081D01*
X6014Y628142D01*
X5973Y628205D01*
X5936Y628270D01*
X5901Y628337D01*
X5871Y628406D01*
X5843Y628476D01*
X5820Y628547D01*
X5799Y628619D01*
X5783Y628692D01*
X5770Y628766D01*
X5760Y628841D01*
X5755Y628916D01*
X5753Y628991D01*
X5755Y629066D01*
X5760Y629141D01*
X5770Y629216D01*
X5783Y629290D01*
X5799Y629363D01*
X5820Y629435D01*
X5843Y629506D01*
X5871Y629576D01*
X5901Y629645D01*
X5936Y629712D01*
X5973Y629777D01*
X6014Y629840D01*
X6057Y629901D01*
X6104Y629960D01*
X6153Y630017D01*
X6206Y630071D01*
X6260Y630122D01*
X6318Y630171D01*
X6377Y630216D01*
X6439Y630259D01*
X6503Y630298D01*
X6569Y630335D01*
X6637Y630367D01*
X6706Y630397D01*
X6776Y630423D01*
X6914Y630488D01*
X7054Y630550D01*
X7196Y630608D01*
X7339Y630663D01*
X7483Y630714D01*
X7628Y630762D01*
X7775Y630805D01*
X7922Y630845D01*
X8071Y630882D01*
X8221Y630914D01*
X8371Y630943D01*
X8522Y630968D01*
X8673Y630989D01*
X8825Y631006D01*
X8978Y631020D01*
X9130Y631029D01*
X9283Y631035D01*
X9436Y631037D01*
X9436Y626945D02*
X9589Y626947D01*
X9742Y626953D01*
X9894Y626962D01*
X10047Y626976D01*
X10199Y626993D01*
X10350Y627014D01*
X10501Y627039D01*
X10651Y627068D01*
X10801Y627100D01*
X10949Y627137D01*
X11097Y627177D01*
X11244Y627220D01*
X11389Y627268D01*
X11533Y627319D01*
X11676Y627373D01*
X11818Y627432D01*
X11957Y627493D01*
X12096Y627559D01*
X12167Y627585D01*
X12236Y627615D01*
X12303Y627648D01*
X12369Y627684D01*
X12433Y627723D01*
X12495Y627766D01*
X12554Y627812D01*
X12612Y627860D01*
X12666Y627911D01*
X12719Y627965D01*
X12768Y628022D01*
X12815Y628081D01*
X12858Y628142D01*
X12899Y628205D01*
X12936Y628270D01*
X12971Y628337D01*
X13001Y628406D01*
X13029Y628476D01*
X13052Y628547D01*
X13073Y628619D01*
X13089Y628692D01*
X13102Y628766D01*
X13112Y628841D01*
X13117Y628916D01*
X13119Y628991D01*
X12096Y630423D02*
X11958Y630488D01*
X11818Y630550D01*
X11676Y630608D01*
X11533Y630663D01*
X11389Y630714D01*
X11244Y630762D01*
X11097Y630805D01*
X10950Y630845D01*
X10801Y630882D01*
X10651Y630914D01*
X10501Y630943D01*
X10350Y630968D01*
X10199Y630989D01*
X10047Y631006D01*
X9894Y631020D01*
X9742Y631029D01*
X9589Y631035D01*
X9436Y631037D01*
X12096Y630423D02*
X12166Y630397D01*
X12236Y630367D01*
X12303Y630334D01*
X12369Y630298D01*
X12433Y630259D01*
X12495Y630216D01*
X12554Y630170D01*
X12612Y630122D01*
X12666Y630071D01*
X12719Y630017D01*
X12768Y629960D01*
X12815Y629901D01*
X12858Y629840D01*
X12899Y629777D01*
X12936Y629712D01*
X12971Y629645D01*
X13001Y629576D01*
X13029Y629506D01*
X13052Y629435D01*
X13073Y629363D01*
X13089Y629290D01*
X13102Y629216D01*
X13112Y629141D01*
X13117Y629066D01*
X13119Y628991D01*
X11482Y627354D02*
X7390Y630628D01*
X5753Y636511D02*
X5755Y636596D01*
X5761Y636681D01*
X5771Y636765D01*
X5784Y636849D01*
X5802Y636933D01*
X5823Y637015D01*
X5848Y637096D01*
X5877Y637176D01*
X5910Y637255D01*
X5946Y637332D01*
X5986Y637407D01*
X6029Y637481D01*
X6075Y637552D01*
X6125Y637621D01*
X6178Y637688D01*
X6234Y637752D01*
X6293Y637813D01*
X6354Y637872D01*
X6418Y637928D01*
X6485Y637981D01*
X6554Y638031D01*
X6625Y638077D01*
X6699Y638120D01*
X6774Y638160D01*
X6851Y638196D01*
X6930Y638229D01*
X7010Y638258D01*
X7091Y638283D01*
X7173Y638304D01*
X7257Y638322D01*
X7341Y638335D01*
X7425Y638345D01*
X7510Y638351D01*
X7595Y638353D01*
X5753Y636511D02*
X5755Y636415D01*
X5761Y636319D01*
X5771Y636224D01*
X5784Y636129D01*
X5802Y636034D01*
X5823Y635941D01*
X5848Y635848D01*
X5877Y635757D01*
X5909Y635666D01*
X5945Y635577D01*
X5985Y635490D01*
X6028Y635404D01*
X6074Y635320D01*
X6124Y635238D01*
X6178Y635158D01*
X6234Y635081D01*
X6294Y635006D01*
X6356Y634933D01*
X6422Y634863D01*
X6490Y634795D01*
X6561Y634730D01*
X6634Y634669D01*
X6710Y634610D01*
X6789Y634554D01*
X6869Y634502D01*
X6952Y634453D01*
X7036Y634407D01*
X7122Y634365D01*
X7210Y634327D01*
X7299Y634292D01*
X7390Y634260D01*
X9027Y637739D02*
X8968Y637799D01*
X8906Y637856D01*
X8842Y637911D01*
X8775Y637962D01*
X8706Y638011D01*
X8636Y638057D01*
X8563Y638100D01*
X8489Y638140D01*
X8413Y638176D01*
X8335Y638209D01*
X8256Y638239D01*
X8176Y638266D01*
X8095Y638289D01*
X8013Y638308D01*
X7931Y638324D01*
X7847Y638337D01*
X7763Y638346D01*
X7679Y638351D01*
X7595Y638353D01*
X9027Y637739D02*
X13119Y634260D01*
X13119Y638352D01*
X9845Y643212D02*
X9845Y645668D01*
X9845Y643212D02*
X9843Y643134D01*
X9838Y643056D01*
X9828Y642979D01*
X9815Y642902D01*
X9799Y642826D01*
X9779Y642751D01*
X9755Y642677D01*
X9728Y642604D01*
X9697Y642532D01*
X9663Y642462D01*
X9626Y642394D01*
X9585Y642327D01*
X9541Y642262D01*
X9495Y642200D01*
X9445Y642140D01*
X9393Y642082D01*
X9338Y642027D01*
X9280Y641975D01*
X9220Y641925D01*
X9158Y641879D01*
X9093Y641835D01*
X9027Y641794D01*
X8958Y641757D01*
X8888Y641723D01*
X8816Y641692D01*
X8743Y641665D01*
X8669Y641641D01*
X8594Y641621D01*
X8518Y641605D01*
X8441Y641592D01*
X8364Y641582D01*
X8286Y641577D01*
X8208Y641575D01*
X7799Y641575D01*
X7799Y641576D02*
X7710Y641578D01*
X7621Y641584D01*
X7532Y641594D01*
X7444Y641607D01*
X7356Y641624D01*
X7269Y641646D01*
X7184Y641671D01*
X7099Y641699D01*
X7016Y641732D01*
X6934Y641768D01*
X6854Y641807D01*
X6776Y641850D01*
X6700Y641896D01*
X6625Y641946D01*
X6553Y641999D01*
X6484Y642055D01*
X6417Y642114D01*
X6352Y642175D01*
X6291Y642240D01*
X6232Y642307D01*
X6176Y642376D01*
X6123Y642448D01*
X6073Y642523D01*
X6027Y642599D01*
X5984Y642677D01*
X5945Y642757D01*
X5909Y642839D01*
X5876Y642922D01*
X5848Y643007D01*
X5823Y643092D01*
X5801Y643179D01*
X5784Y643267D01*
X5771Y643355D01*
X5761Y643444D01*
X5755Y643533D01*
X5753Y643622D01*
X5755Y643711D01*
X5761Y643800D01*
X5771Y643889D01*
X5784Y643977D01*
X5801Y644065D01*
X5823Y644152D01*
X5848Y644237D01*
X5876Y644322D01*
X5909Y644405D01*
X5945Y644487D01*
X5984Y644567D01*
X6027Y644645D01*
X6073Y644721D01*
X6123Y644796D01*
X6176Y644868D01*
X6232Y644937D01*
X6291Y645004D01*
X6352Y645069D01*
X6417Y645130D01*
X6484Y645189D01*
X6553Y645245D01*
X6625Y645298D01*
X6700Y645348D01*
X6776Y645394D01*
X6854Y645437D01*
X6934Y645476D01*
X7016Y645512D01*
X7099Y645545D01*
X7184Y645573D01*
X7269Y645598D01*
X7356Y645620D01*
X7444Y645637D01*
X7532Y645650D01*
X7621Y645660D01*
X7710Y645666D01*
X7799Y645668D01*
X9845Y645668D01*
X9957Y645666D01*
X10068Y645660D01*
X10180Y645651D01*
X10291Y645638D01*
X10401Y645620D01*
X10511Y645600D01*
X10620Y645575D01*
X10728Y645547D01*
X10835Y645515D01*
X10941Y645479D01*
X11046Y645440D01*
X11149Y645397D01*
X11251Y645351D01*
X11351Y645301D01*
X11450Y645248D01*
X11546Y645191D01*
X11641Y645132D01*
X11733Y645069D01*
X11823Y645003D01*
X11911Y644934D01*
X11997Y644862D01*
X12080Y644787D01*
X12160Y644709D01*
X12238Y644629D01*
X12313Y644546D01*
X12385Y644460D01*
X12454Y644372D01*
X12520Y644282D01*
X12583Y644190D01*
X12642Y644095D01*
X12699Y643999D01*
X12752Y643900D01*
X12802Y643800D01*
X12848Y643698D01*
X12891Y643595D01*
X12930Y643490D01*
X12966Y643384D01*
X12998Y643277D01*
X13026Y643169D01*
X13051Y643060D01*
X13071Y642950D01*
X13089Y642840D01*
X13102Y642729D01*
X13111Y642617D01*
X13117Y642506D01*
X13119Y642394D01*
X9027Y649252D02*
X9027Y651298D01*
X9029Y651387D01*
X9035Y651476D01*
X9045Y651565D01*
X9058Y651653D01*
X9075Y651741D01*
X9097Y651828D01*
X9122Y651913D01*
X9150Y651998D01*
X9183Y652081D01*
X9219Y652163D01*
X9258Y652243D01*
X9301Y652321D01*
X9347Y652397D01*
X9397Y652472D01*
X9450Y652544D01*
X9506Y652613D01*
X9565Y652680D01*
X9626Y652745D01*
X9691Y652806D01*
X9758Y652865D01*
X9827Y652921D01*
X9899Y652974D01*
X9974Y653024D01*
X10050Y653070D01*
X10128Y653113D01*
X10208Y653152D01*
X10290Y653188D01*
X10373Y653221D01*
X10458Y653249D01*
X10543Y653274D01*
X10630Y653296D01*
X10718Y653313D01*
X10806Y653326D01*
X10895Y653336D01*
X10984Y653342D01*
X11073Y653344D01*
X11162Y653342D01*
X11251Y653336D01*
X11340Y653326D01*
X11428Y653313D01*
X11516Y653296D01*
X11603Y653274D01*
X11688Y653249D01*
X11773Y653221D01*
X11856Y653188D01*
X11938Y653152D01*
X12018Y653113D01*
X12096Y653070D01*
X12172Y653024D01*
X12247Y652974D01*
X12319Y652921D01*
X12388Y652865D01*
X12455Y652806D01*
X12520Y652745D01*
X12581Y652680D01*
X12640Y652613D01*
X12696Y652544D01*
X12749Y652472D01*
X12799Y652397D01*
X12845Y652321D01*
X12888Y652243D01*
X12927Y652163D01*
X12963Y652081D01*
X12996Y651998D01*
X13024Y651913D01*
X13049Y651828D01*
X13071Y651741D01*
X13088Y651653D01*
X13101Y651565D01*
X13111Y651476D01*
X13117Y651387D01*
X13119Y651298D01*
X13119Y649252D01*
X5753Y649252D01*
X5753Y651298D01*
X5755Y651377D01*
X5761Y651456D01*
X5770Y651535D01*
X5783Y651613D01*
X5801Y651690D01*
X5821Y651766D01*
X5846Y651841D01*
X5874Y651915D01*
X5905Y651988D01*
X5941Y652059D01*
X5979Y652128D01*
X6021Y652195D01*
X6066Y652260D01*
X6114Y652323D01*
X6165Y652384D01*
X6219Y652441D01*
X6275Y652497D01*
X6334Y652549D01*
X6396Y652599D01*
X6460Y652645D01*
X6526Y652689D01*
X6594Y652729D01*
X6664Y652765D01*
X6736Y652799D01*
X6810Y652829D01*
X6884Y652855D01*
X6960Y652878D01*
X7037Y652896D01*
X7114Y652912D01*
X7193Y652923D01*
X7271Y652931D01*
X7350Y652935D01*
X7430Y652935D01*
X7509Y652931D01*
X7587Y652923D01*
X7666Y652912D01*
X7743Y652896D01*
X7820Y652878D01*
X7896Y652855D01*
X7970Y652829D01*
X8044Y652799D01*
X8116Y652765D01*
X8186Y652729D01*
X8254Y652689D01*
X8320Y652645D01*
X8384Y652599D01*
X8446Y652549D01*
X8505Y652497D01*
X8561Y652441D01*
X8615Y652384D01*
X8666Y652323D01*
X8714Y652260D01*
X8759Y652195D01*
X8801Y652128D01*
X8839Y652059D01*
X8875Y651988D01*
X8906Y651915D01*
X8934Y651841D01*
X8959Y651766D01*
X8979Y651690D01*
X8997Y651613D01*
X9010Y651535D01*
X9019Y651456D01*
X9025Y651377D01*
X9027Y651298D01*
X13119Y656206D02*
X13119Y658252D01*
X13117Y658341D01*
X13111Y658430D01*
X13101Y658519D01*
X13088Y658607D01*
X13071Y658695D01*
X13049Y658782D01*
X13024Y658867D01*
X12996Y658952D01*
X12963Y659035D01*
X12927Y659117D01*
X12888Y659197D01*
X12845Y659275D01*
X12799Y659351D01*
X12749Y659426D01*
X12696Y659498D01*
X12640Y659567D01*
X12581Y659634D01*
X12520Y659699D01*
X12455Y659760D01*
X12388Y659819D01*
X12319Y659875D01*
X12247Y659928D01*
X12172Y659978D01*
X12096Y660024D01*
X12018Y660067D01*
X11938Y660106D01*
X11856Y660142D01*
X11773Y660175D01*
X11688Y660203D01*
X11603Y660228D01*
X11516Y660250D01*
X11428Y660267D01*
X11340Y660280D01*
X11251Y660290D01*
X11162Y660296D01*
X11073Y660298D01*
X10984Y660296D01*
X10895Y660290D01*
X10806Y660280D01*
X10718Y660267D01*
X10630Y660250D01*
X10543Y660228D01*
X10458Y660203D01*
X10373Y660175D01*
X10290Y660142D01*
X10208Y660106D01*
X10128Y660067D01*
X10050Y660024D01*
X9974Y659978D01*
X9899Y659928D01*
X9827Y659875D01*
X9758Y659819D01*
X9691Y659760D01*
X9626Y659699D01*
X9565Y659634D01*
X9506Y659567D01*
X9450Y659498D01*
X9397Y659426D01*
X9347Y659351D01*
X9301Y659275D01*
X9258Y659197D01*
X9219Y659117D01*
X9183Y659035D01*
X9150Y658952D01*
X9122Y658867D01*
X9097Y658782D01*
X9075Y658695D01*
X9058Y658607D01*
X9045Y658519D01*
X9035Y658430D01*
X9029Y658341D01*
X9027Y658252D01*
X5753Y658661D02*
X5753Y656206D01*
X5753Y658661D02*
X5755Y658740D01*
X5761Y658819D01*
X5770Y658898D01*
X5783Y658976D01*
X5801Y659053D01*
X5821Y659129D01*
X5846Y659204D01*
X5874Y659278D01*
X5905Y659351D01*
X5941Y659422D01*
X5979Y659491D01*
X6021Y659558D01*
X6066Y659623D01*
X6114Y659686D01*
X6165Y659747D01*
X6219Y659804D01*
X6275Y659860D01*
X6334Y659912D01*
X6396Y659962D01*
X6460Y660008D01*
X6526Y660052D01*
X6594Y660092D01*
X6664Y660128D01*
X6736Y660162D01*
X6810Y660192D01*
X6884Y660218D01*
X6960Y660241D01*
X7037Y660259D01*
X7114Y660275D01*
X7193Y660286D01*
X7271Y660294D01*
X7350Y660298D01*
X7430Y660298D01*
X7509Y660294D01*
X7587Y660286D01*
X7666Y660275D01*
X7743Y660259D01*
X7820Y660241D01*
X7896Y660218D01*
X7970Y660192D01*
X8044Y660162D01*
X8116Y660128D01*
X8186Y660092D01*
X8254Y660052D01*
X8320Y660008D01*
X8384Y659962D01*
X8446Y659912D01*
X8505Y659860D01*
X8561Y659804D01*
X8615Y659747D01*
X8666Y659686D01*
X8714Y659623D01*
X8759Y659558D01*
X8801Y659491D01*
X8839Y659422D01*
X8875Y659351D01*
X8906Y659278D01*
X8934Y659204D01*
X8959Y659129D01*
X8979Y659053D01*
X8997Y658976D01*
X9010Y658898D01*
X9019Y658819D01*
X9025Y658740D01*
X9027Y658661D01*
X9027Y657024D01*
X13119Y665733D02*
X13117Y665811D01*
X13112Y665889D01*
X13102Y665966D01*
X13089Y666043D01*
X13073Y666119D01*
X13053Y666194D01*
X13029Y666268D01*
X13002Y666341D01*
X12971Y666413D01*
X12937Y666483D01*
X12900Y666552D01*
X12859Y666618D01*
X12815Y666683D01*
X12769Y666745D01*
X12719Y666805D01*
X12667Y666863D01*
X12612Y666918D01*
X12554Y666970D01*
X12494Y667020D01*
X12432Y667066D01*
X12367Y667110D01*
X12301Y667151D01*
X12232Y667188D01*
X12162Y667222D01*
X12090Y667253D01*
X12017Y667280D01*
X11943Y667304D01*
X11868Y667324D01*
X11792Y667340D01*
X11715Y667353D01*
X11638Y667363D01*
X11560Y667368D01*
X11482Y667370D01*
X13119Y665733D02*
X13117Y665619D01*
X13112Y665506D01*
X13102Y665392D01*
X13089Y665279D01*
X13072Y665167D01*
X13052Y665055D01*
X13028Y664944D01*
X13000Y664833D01*
X12969Y664724D01*
X12934Y664616D01*
X12895Y664509D01*
X12853Y664403D01*
X12808Y664299D01*
X12759Y664196D01*
X12706Y664095D01*
X12651Y663996D01*
X12592Y663898D01*
X12530Y663803D01*
X12465Y663710D01*
X12397Y663618D01*
X12326Y663530D01*
X12252Y663443D01*
X12175Y663359D01*
X12096Y663278D01*
X7390Y663482D02*
X7312Y663484D01*
X7234Y663489D01*
X7157Y663499D01*
X7080Y663512D01*
X7004Y663528D01*
X6929Y663548D01*
X6855Y663572D01*
X6782Y663599D01*
X6710Y663630D01*
X6640Y663664D01*
X6571Y663701D01*
X6505Y663742D01*
X6440Y663786D01*
X6378Y663832D01*
X6318Y663882D01*
X6260Y663934D01*
X6205Y663989D01*
X6153Y664047D01*
X6103Y664107D01*
X6057Y664169D01*
X6013Y664234D01*
X5972Y664301D01*
X5935Y664369D01*
X5901Y664439D01*
X5870Y664511D01*
X5843Y664584D01*
X5819Y664658D01*
X5799Y664733D01*
X5783Y664809D01*
X5770Y664886D01*
X5760Y664963D01*
X5755Y665041D01*
X5753Y665119D01*
X5755Y665229D01*
X5761Y665338D01*
X5771Y665448D01*
X5784Y665556D01*
X5802Y665665D01*
X5823Y665772D01*
X5849Y665879D01*
X5878Y665985D01*
X5910Y666090D01*
X5947Y666193D01*
X5987Y666295D01*
X6031Y666396D01*
X6079Y666495D01*
X6129Y666592D01*
X6184Y666687D01*
X6242Y666780D01*
X6303Y666871D01*
X6367Y666960D01*
X8822Y664300D02*
X8780Y664234D01*
X8736Y664169D01*
X8688Y664107D01*
X8638Y664047D01*
X8585Y663989D01*
X8529Y663934D01*
X8471Y663881D01*
X8410Y663832D01*
X8347Y663785D01*
X8282Y663741D01*
X8215Y663701D01*
X8146Y663664D01*
X8075Y663630D01*
X8003Y663599D01*
X7929Y663572D01*
X7854Y663548D01*
X7779Y663528D01*
X7702Y663512D01*
X7625Y663499D01*
X7547Y663489D01*
X7468Y663484D01*
X7390Y663482D01*
X10049Y666551D02*
X10091Y666618D01*
X10135Y666683D01*
X10183Y666745D01*
X10233Y666805D01*
X10286Y666863D01*
X10342Y666918D01*
X10401Y666970D01*
X10461Y667020D01*
X10525Y667067D01*
X10590Y667110D01*
X10657Y667151D01*
X10726Y667188D01*
X10797Y667222D01*
X10869Y667253D01*
X10943Y667280D01*
X11017Y667304D01*
X11093Y667324D01*
X11170Y667340D01*
X11247Y667353D01*
X11325Y667363D01*
X11404Y667368D01*
X11482Y667370D01*
X10050Y666551D02*
X8822Y664300D01*
X13119Y669939D02*
X5753Y674850D01*
X5753Y669939D02*
X13119Y674850D01*
X9436Y677664D02*
X9283Y677666D01*
X9130Y677672D01*
X8978Y677681D01*
X8825Y677695D01*
X8673Y677712D01*
X8522Y677733D01*
X8371Y677758D01*
X8221Y677787D01*
X8071Y677819D01*
X7923Y677856D01*
X7775Y677896D01*
X7628Y677939D01*
X7483Y677987D01*
X7339Y678038D01*
X7196Y678092D01*
X7054Y678151D01*
X6915Y678212D01*
X6776Y678278D01*
X6706Y678304D01*
X6636Y678334D01*
X6569Y678367D01*
X6503Y678403D01*
X6439Y678442D01*
X6377Y678485D01*
X6318Y678531D01*
X6260Y678579D01*
X6206Y678630D01*
X6153Y678684D01*
X6104Y678741D01*
X6057Y678800D01*
X6014Y678861D01*
X5973Y678924D01*
X5936Y678989D01*
X5901Y679056D01*
X5871Y679125D01*
X5843Y679195D01*
X5820Y679266D01*
X5799Y679338D01*
X5783Y679411D01*
X5770Y679485D01*
X5760Y679560D01*
X5755Y679635D01*
X5753Y679710D01*
X5755Y679785D01*
X5760Y679860D01*
X5770Y679935D01*
X5783Y680009D01*
X5799Y680082D01*
X5820Y680154D01*
X5843Y680225D01*
X5871Y680295D01*
X5901Y680364D01*
X5936Y680431D01*
X5973Y680496D01*
X6014Y680559D01*
X6057Y680620D01*
X6104Y680679D01*
X6153Y680736D01*
X6206Y680790D01*
X6260Y680841D01*
X6318Y680890D01*
X6377Y680935D01*
X6439Y680978D01*
X6503Y681017D01*
X6569Y681054D01*
X6637Y681086D01*
X6706Y681116D01*
X6776Y681142D01*
X6914Y681207D01*
X7054Y681269D01*
X7196Y681327D01*
X7339Y681382D01*
X7483Y681433D01*
X7628Y681481D01*
X7775Y681524D01*
X7922Y681564D01*
X8071Y681601D01*
X8221Y681633D01*
X8371Y681662D01*
X8522Y681687D01*
X8673Y681708D01*
X8825Y681725D01*
X8978Y681739D01*
X9130Y681748D01*
X9283Y681754D01*
X9436Y681756D01*
X9436Y677664D02*
X9589Y677666D01*
X9742Y677672D01*
X9894Y677681D01*
X10047Y677695D01*
X10199Y677712D01*
X10350Y677733D01*
X10501Y677758D01*
X10651Y677787D01*
X10801Y677819D01*
X10949Y677856D01*
X11097Y677896D01*
X11244Y677939D01*
X11389Y677987D01*
X11533Y678038D01*
X11676Y678092D01*
X11818Y678151D01*
X11957Y678212D01*
X12096Y678278D01*
X12167Y678304D01*
X12236Y678334D01*
X12303Y678367D01*
X12369Y678403D01*
X12433Y678442D01*
X12495Y678485D01*
X12554Y678531D01*
X12612Y678579D01*
X12666Y678630D01*
X12719Y678684D01*
X12768Y678741D01*
X12815Y678800D01*
X12858Y678861D01*
X12899Y678924D01*
X12936Y678989D01*
X12971Y679056D01*
X13001Y679125D01*
X13029Y679195D01*
X13052Y679266D01*
X13073Y679338D01*
X13089Y679411D01*
X13102Y679485D01*
X13112Y679560D01*
X13117Y679635D01*
X13119Y679710D01*
X12096Y681142D02*
X11958Y681207D01*
X11818Y681269D01*
X11676Y681327D01*
X11533Y681382D01*
X11389Y681433D01*
X11244Y681481D01*
X11097Y681524D01*
X10950Y681564D01*
X10801Y681601D01*
X10651Y681633D01*
X10501Y681662D01*
X10350Y681687D01*
X10199Y681708D01*
X10047Y681725D01*
X9894Y681739D01*
X9742Y681748D01*
X9589Y681754D01*
X9436Y681756D01*
X12096Y681142D02*
X12166Y681116D01*
X12236Y681086D01*
X12303Y681053D01*
X12369Y681017D01*
X12433Y680978D01*
X12495Y680935D01*
X12554Y680889D01*
X12612Y680841D01*
X12666Y680790D01*
X12719Y680736D01*
X12768Y680679D01*
X12815Y680620D01*
X12858Y680559D01*
X12899Y680496D01*
X12936Y680431D01*
X12971Y680364D01*
X13001Y680295D01*
X13029Y680225D01*
X13052Y680154D01*
X13073Y680082D01*
X13089Y680009D01*
X13102Y679935D01*
X13112Y679860D01*
X13117Y679785D01*
X13119Y679710D01*
X11482Y678073D02*
X7390Y681347D01*
X5753Y687230D02*
X5755Y687315D01*
X5761Y687400D01*
X5771Y687484D01*
X5784Y687568D01*
X5802Y687652D01*
X5823Y687734D01*
X5848Y687815D01*
X5877Y687895D01*
X5910Y687974D01*
X5946Y688051D01*
X5986Y688126D01*
X6029Y688200D01*
X6075Y688271D01*
X6125Y688340D01*
X6178Y688407D01*
X6234Y688471D01*
X6293Y688532D01*
X6354Y688591D01*
X6418Y688647D01*
X6485Y688700D01*
X6554Y688750D01*
X6625Y688796D01*
X6699Y688839D01*
X6774Y688879D01*
X6851Y688915D01*
X6930Y688948D01*
X7010Y688977D01*
X7091Y689002D01*
X7173Y689023D01*
X7257Y689041D01*
X7341Y689054D01*
X7425Y689064D01*
X7510Y689070D01*
X7595Y689072D01*
X5753Y687230D02*
X5755Y687134D01*
X5761Y687038D01*
X5771Y686943D01*
X5784Y686848D01*
X5802Y686753D01*
X5823Y686660D01*
X5848Y686567D01*
X5877Y686476D01*
X5909Y686385D01*
X5945Y686296D01*
X5985Y686209D01*
X6028Y686123D01*
X6074Y686039D01*
X6124Y685957D01*
X6178Y685877D01*
X6234Y685800D01*
X6294Y685725D01*
X6356Y685652D01*
X6422Y685582D01*
X6490Y685514D01*
X6561Y685449D01*
X6634Y685388D01*
X6710Y685329D01*
X6789Y685273D01*
X6869Y685221D01*
X6952Y685172D01*
X7036Y685126D01*
X7122Y685084D01*
X7210Y685046D01*
X7299Y685011D01*
X7390Y684979D01*
X9027Y688457D02*
X8968Y688517D01*
X8906Y688574D01*
X8842Y688629D01*
X8775Y688680D01*
X8706Y688729D01*
X8636Y688775D01*
X8563Y688818D01*
X8489Y688858D01*
X8413Y688894D01*
X8335Y688927D01*
X8256Y688957D01*
X8176Y688984D01*
X8095Y689007D01*
X8013Y689026D01*
X7931Y689042D01*
X7847Y689055D01*
X7763Y689064D01*
X7679Y689069D01*
X7595Y689071D01*
X9027Y688457D02*
X13119Y684979D01*
X13119Y689071D01*
X10254Y696274D02*
X10254Y701185D01*
X8208Y708599D02*
X13119Y708599D01*
X8208Y708599D02*
X8208Y711054D01*
X9027Y711054D01*
X13119Y714616D02*
X13119Y716663D01*
X13119Y714616D02*
X13117Y714547D01*
X13111Y714479D01*
X13102Y714410D01*
X13088Y714343D01*
X13071Y714276D01*
X13050Y714210D01*
X13026Y714146D01*
X12997Y714083D01*
X12966Y714022D01*
X12931Y713963D01*
X12893Y713905D01*
X12851Y713850D01*
X12807Y713798D01*
X12759Y713748D01*
X12709Y713700D01*
X12657Y713656D01*
X12602Y713615D01*
X12544Y713576D01*
X12485Y713541D01*
X12424Y713510D01*
X12361Y713481D01*
X12297Y713457D01*
X12231Y713436D01*
X12164Y713419D01*
X12097Y713405D01*
X12029Y713396D01*
X11960Y713390D01*
X11891Y713388D01*
X11891Y713389D02*
X9436Y713389D01*
X9436Y713388D02*
X9367Y713390D01*
X9299Y713396D01*
X9230Y713405D01*
X9163Y713419D01*
X9096Y713436D01*
X9030Y713457D01*
X8966Y713481D01*
X8903Y713510D01*
X8842Y713541D01*
X8783Y713576D01*
X8725Y713614D01*
X8670Y713656D01*
X8618Y713700D01*
X8568Y713748D01*
X8520Y713798D01*
X8476Y713850D01*
X8434Y713905D01*
X8396Y713963D01*
X8361Y714022D01*
X8330Y714083D01*
X8301Y714146D01*
X8277Y714210D01*
X8256Y714276D01*
X8239Y714343D01*
X8225Y714410D01*
X8216Y714479D01*
X8210Y714547D01*
X8208Y714616D01*
X8208Y716663D01*
X14347Y716663D01*
X14416Y716661D01*
X14484Y716655D01*
X14553Y716646D01*
X14620Y716632D01*
X14687Y716615D01*
X14753Y716594D01*
X14817Y716570D01*
X14880Y716541D01*
X14941Y716510D01*
X15000Y716475D01*
X15058Y716437D01*
X15113Y716395D01*
X15165Y716351D01*
X15215Y716303D01*
X15263Y716253D01*
X15307Y716201D01*
X15349Y716146D01*
X15387Y716088D01*
X15422Y716029D01*
X15453Y715968D01*
X15482Y715905D01*
X15506Y715841D01*
X15527Y715775D01*
X15544Y715708D01*
X15558Y715641D01*
X15567Y715572D01*
X15573Y715504D01*
X15575Y715435D01*
X15574Y715435D02*
X15574Y713798D01*
X14347Y719806D02*
X8208Y719806D01*
X14347Y719806D02*
X14416Y719804D01*
X14484Y719798D01*
X14553Y719789D01*
X14620Y719775D01*
X14687Y719758D01*
X14753Y719737D01*
X14817Y719713D01*
X14880Y719684D01*
X14941Y719653D01*
X15000Y719618D01*
X15058Y719580D01*
X15113Y719538D01*
X15165Y719494D01*
X15215Y719446D01*
X15263Y719396D01*
X15307Y719344D01*
X15349Y719289D01*
X15387Y719231D01*
X15422Y719172D01*
X15453Y719111D01*
X15482Y719048D01*
X15506Y718984D01*
X15527Y718918D01*
X15544Y718851D01*
X15558Y718784D01*
X15567Y718715D01*
X15573Y718647D01*
X15575Y718578D01*
X15574Y718578D02*
X15574Y718169D01*
X6162Y719601D02*
X5753Y719601D01*
X5753Y720011D01*
X6162Y720011D01*
X6162Y719601D01*
D11*
X18000Y62000D02*
X18000Y38000D01*
X112000Y38000D02*
X112000Y62000D01*
X112000Y38000D02*
X110000Y38000D01*
X110000Y62000D02*
X112000Y62000D01*
X20000Y38000D02*
X18500Y38000D01*
X18000Y62000D02*
X20000Y62000D01*
D12*
X102759Y64900D02*
X102761Y64923D01*
X102767Y64946D01*
X102776Y64967D01*
X102789Y64987D01*
X102805Y65004D01*
X102823Y65018D01*
X102843Y65029D01*
X102865Y65037D01*
X102888Y65041D01*
X102912Y65041D01*
X102935Y65037D01*
X102957Y65029D01*
X102977Y65018D01*
X102995Y65004D01*
X103011Y64987D01*
X103024Y64967D01*
X103033Y64946D01*
X103039Y64923D01*
X103041Y64900D01*
X103039Y64877D01*
X103033Y64854D01*
X103024Y64833D01*
X103011Y64813D01*
X102995Y64796D01*
X102977Y64782D01*
X102957Y64771D01*
X102935Y64763D01*
X102912Y64759D01*
X102888Y64759D01*
X102865Y64763D01*
X102843Y64771D01*
X102823Y64782D01*
X102805Y64796D01*
X102789Y64813D01*
X102776Y64833D01*
X102767Y64854D01*
X102761Y64877D01*
X102759Y64900D01*
M02*
