M48
;GenerationSoftware,Autodesk,EAGLE,9.2.0*%
;CreationDate,2018-10-12T02:52:30Z*%
FMAT,2
ICI,OFF
METRIC,TZ,000.000
T1C0.300
%
G90
M71
T1
X11819Y96840
X11800Y97701
X11708Y98588
X10400Y99219
X9541Y99280
X8818Y98572
X8252Y99242
X7288Y98532
X6712Y99268
X5828Y99288
X5652Y98392
X4920Y98870
X4180Y99340
X3343Y99018
X1682Y99288
X1182Y98682
X1298Y97808
X1302Y96932
X1850Y3300
X2670Y2570
X3700Y3300
X2900Y1270
X5240Y1840
X5600Y1100
X7400Y1100
X7860Y1710
X7900Y3300
X9500Y1700
X10480Y1020
X11620Y1560
X10940Y2260
X11600Y2960
X2557Y99332
X11252Y99332
X5100Y3300
M30